<svg width="213" height="211" viewBox="0 0 213 211" fill="none" xmlns="http://www.w3.org/2000/svg">
<g clip-path="url(#clip0_1516_56150)">
<path d="M121.856 208.297H184.442L171.488 88.3019C171.488 88.3019 153.035 77.2994 126.202 74.1885L118.646 84.0058C118.646 84.0058 111.813 173.249 121.853 208.294L121.856 208.297Z" fill="#C5855F"/>
<path d="M118.648 84.006L126.204 74.1886C120.526 73.5307 114.48 73.2164 108.146 73.4455C103.418 73.616 98.6796 74.0501 93.9783 74.7293C93.5888 77.2063 92.9004 79.5687 91.8465 81.7714C82.4627 101.363 78.8527 182.811 77.9375 208.297H121.855C111.812 173.252 118.648 84.0086 118.648 84.0086V84.006Z" fill="#FA9E60"/>
<path d="M49.3561 90.2412C36.9652 97.8107 26.9277 107.822 21.0952 120.082C7.35694 148.959 0.398438 208.297 0.398438 208.297H41.1142C35.7192 168.634 35.6125 128.096 49.3561 90.2412Z" fill="#C5855F"/>
<path d="M45.7795 182.696C45.6861 182.696 45.5954 182.672 45.51 182.619C35.7259 176.552 27.38 168.162 21.3714 158.355C21.2246 158.116 21.302 157.804 21.5395 157.655C21.7769 157.511 22.0918 157.583 22.2412 157.823C28.1671 167.494 36.3983 175.769 46.049 181.751C46.2891 181.9 46.3611 182.212 46.2117 182.451C46.1157 182.606 45.9502 182.691 45.7795 182.691V182.696Z" fill="black"/>
<path d="M46.1946 187.048C46.1573 187.048 46.1199 187.043 46.0826 187.035C38.8226 185.416 31.6666 183.133 24.8122 180.254C24.5534 180.145 24.4306 179.846 24.54 179.588C24.6494 179.33 24.9456 179.207 25.2071 179.316C32.0055 182.172 39.1054 184.435 46.304 186.041C46.5788 186.103 46.7523 186.374 46.6909 186.649C46.6375 186.886 46.4267 187.046 46.1946 187.046V187.048Z" fill="black"/>
<path d="M49.3597 90.2412C35.6162 128.096 35.7229 168.634 41.1179 208.297H77.9381C78.8506 182.814 82.4633 101.364 91.8471 81.7716C92.9011 79.5716 93.5921 77.2065 93.979 74.7295C77.9275 77.0493 62.3509 82.3043 49.3571 90.2412H49.3597Z" fill="#C5855F"/>
<path d="M122.584 127.886C119.342 135.261 113.157 141.538 101.53 141.538C88.3438 141.538 82.1591 133.471 79.3255 124.887C76.0757 115.112 77.69 105.739 77.69 105.739H125.362C125.362 105.739 127.211 117.378 122.584 127.888V127.886Z" fill="#634125"/>
<path d="M100.443 121.71C100.443 121.71 105.25 116.487 107.18 118.516C109.109 120.546 100.437 129.226 100.437 129.226C100.437 129.226 92.3314 120.128 94.9755 118.516C97.6196 116.905 100.443 121.71 100.443 121.71Z" fill="white"/>
<path d="M100.438 129.628H100.427C100.318 129.625 100.214 129.577 100.139 129.495C99.4719 128.746 93.6447 122.109 94.0689 119.267C94.141 118.79 94.3811 118.415 94.768 118.178C95.3923 117.797 96.0754 117.693 96.7931 117.874C98.4767 118.295 99.9202 120.194 100.51 121.068C101.46 120.111 104.074 117.666 106.025 117.65H106.044C106.617 117.65 107.097 117.85 107.471 118.244C109.563 120.444 102.215 128.016 100.721 129.511C100.646 129.585 100.542 129.628 100.438 129.628ZM96.1181 118.588C95.7925 118.588 95.4857 118.678 95.1869 118.86C95.0028 118.971 94.8987 119.139 94.8614 119.384C94.5652 121.374 98.5621 126.464 100.456 128.642C103.888 125.148 108.005 119.965 106.892 118.793C106.668 118.559 106.398 118.444 106.033 118.449C104.349 118.463 101.641 121.004 100.742 121.981C100.657 122.074 100.531 122.122 100.406 122.109C100.28 122.096 100.168 122.024 100.102 121.915C100.086 121.885 98.4313 119.107 96.5983 118.649C96.4356 118.607 96.2755 118.588 96.1207 118.588H96.1181Z" fill="black"/>
<path d="M125.356 105.739C123.032 108.11 113.24 109.889 101.522 109.889C89.8035 109.889 80.0195 108.118 77.6875 105.739C80.0221 103.358 89.8142 101.579 101.522 101.579C113.23 101.579 123.032 103.358 125.356 105.739Z" fill="#F6C966"/>
<path d="M82.7455 80.5653C85.3683 80.9142 87.9964 81.2205 90.6165 81.5987C91.7478 81.7611 92.8844 81.9209 94.0184 82.0807C95.027 82.0355 95.6433 81.9955 95.6433 81.9955C95.9741 76.12 97.0841 64.7872 96.876 64.8165C89.6347 65.8685 81.3341 76.5808 78.8047 80.0672C80.1361 80.3016 81.5102 80.4028 82.7455 80.5679V80.5653Z" fill="#C5C55F"/>
<path d="M94.0146 82.4775C93.9959 82.4775 93.9772 82.4775 93.9586 82.4749C92.8219 82.3177 91.688 82.1553 90.554 81.9928C88.9291 81.7584 87.2749 81.548 85.674 81.3456C84.6788 81.2204 83.6836 81.0925 82.6883 80.9594C82.2428 80.9008 81.7812 80.8502 81.3089 80.7969C80.4631 80.7037 79.5906 80.6078 78.7288 80.456C78.5928 80.432 78.478 80.3415 78.4273 80.2136C78.3766 80.0858 78.3926 79.942 78.4754 79.8301C80.9007 76.4875 89.3907 65.4982 96.8135 64.4195C96.9335 64.4009 97.0616 64.4408 97.1496 64.5261C97.3738 64.7365 97.3871 64.7471 96.7894 72.005C96.5093 75.4221 96.1891 79.2974 96.037 82.0168C96.0264 82.2192 95.8663 82.379 95.6635 82.3923C95.6635 82.3923 95.0445 82.4323 94.0306 82.4775C94.0253 82.4775 94.0199 82.4775 94.0119 82.4775H94.0146ZM79.5106 79.7715C80.1403 79.8647 80.778 79.934 81.3996 80.0032C81.8772 80.0565 82.3442 80.1071 82.7951 80.1683C83.7876 80.3015 84.7828 80.4267 85.7754 80.5519C87.3789 80.757 89.0385 80.9647 90.6687 81.1991C91.7894 81.3589 92.91 81.5187 94.0333 81.6758C94.5669 81.6519 94.9885 81.6306 95.2606 81.6146C95.4207 78.9085 95.7249 75.2117 95.9943 71.9357C96.2211 69.1658 96.4559 66.3159 96.4933 65.2825C89.8256 66.6089 82.2428 76.08 79.5106 79.7715Z" fill="#C5C55F"/>
<path d="M135.515 44.6064C133.304 52.2771 123.002 50.1703 123.002 50.1703C122.073 64.5634 122.583 78.5304 125.561 83.6282C123.562 83.8013 120.659 83.9531 118.65 84.0037C112.994 87.9109 97.7 89.1521 91.8488 81.7771C94.9251 78.2987 95.8243 72.7961 95.987 68.4121C96.1284 64.5474 95.7016 61.5458 95.7016 61.5458C83.3908 59.3884 82.5957 48.6868 83.6149 39.5113C84.5941 30.762 88.6603 23.5095 89.3621 14.6802C95.8643 19.6555 101.091 14.5897 105.085 14.2115C109.08 13.8253 109.386 22.0339 116.681 21.0378C123.986 20.0417 124.987 16.7444 126.596 19.6555C128.205 22.5746 125.587 31.79 121.286 36.0116C116.985 40.2224 119.624 43.581 122.468 42.3478C125.313 41.1147 129.856 36.5895 129.856 36.5895C133.536 36.997 136.991 39.4687 135.513 44.6064H135.515Z" fill="#F6CBBC"/>
<path d="M113.316 32.2267C113.316 33.079 112.625 33.7688 111.771 33.7688C110.918 33.7688 110.227 33.079 110.227 32.2267C110.227 31.3744 110.918 30.6846 111.771 30.6846C112.625 30.6846 113.316 31.3744 113.316 32.2267Z" fill="black"/>
<path d="M94.8631 31.6544C94.8631 32.5067 94.1721 33.1965 93.3183 33.1965C92.4645 33.1965 91.7734 32.5067 91.7734 31.6544C91.7734 30.8021 92.4645 30.1123 93.3183 30.1123C94.1721 30.1123 94.8631 30.8021 94.8631 31.6544Z" fill="black"/>
<path d="M130.881 40.5681C130.804 40.2885 130.526 40.158 130.254 40.2139C127.69 40.7226 125.532 42.7202 124.782 45.2131C124.592 45.8417 125.577 46.1107 125.764 45.4848C126.415 43.3114 128.301 41.6362 130.524 41.1967C130.793 41.1434 130.948 40.8211 130.879 40.5708L130.881 40.5681Z" fill="black"/>
<path d="M98.6667 43.9699C98.6507 44.2602 98.8748 44.4707 99.1497 44.5053C101.746 44.8302 104.425 43.613 105.921 41.4823C106.3 40.9443 105.452 40.3796 105.073 40.9176C103.768 42.7741 101.45 43.7702 99.2004 43.4905C98.9282 43.4559 98.6801 43.7116 98.6641 43.9726L98.6667 43.9699Z" fill="black"/>
<path d="M108.15 26.4925C108.12 25.7414 108.662 24.9584 109.47 24.9291C112.275 24.8359 115.044 25.3286 117.64 26.3913C118.342 26.679 118.694 27.6351 118.347 28.309C117.581 29.7952 115.989 28.7937 114.86 28.4635C113.379 28.0293 111.834 27.8083 110.289 27.8109C109.38 27.8109 108.198 27.6511 108.152 26.4925H108.15Z" fill="black"/>
<path d="M96.067 25.3714C96.0963 24.6203 95.5547 23.8373 94.7462 23.808C91.942 23.7148 89.1725 24.2075 86.5764 25.2702C85.8747 25.5579 85.5225 26.514 85.8694 27.1879C86.6351 28.6741 88.228 27.6726 89.3566 27.3424C90.8374 26.9082 92.3823 26.6872 93.9271 26.6898C94.837 26.6898 96.0189 26.53 96.0643 25.3714H96.067Z" fill="black"/>
<path d="M98.2422 35.5451C99.8057 34.248 101.001 32.6287 101.788 30.7589C101.895 30.5033 101.673 30.2023 101.433 30.133C101.14 30.0478 100.913 30.2369 100.806 30.4873C100.339 31.5979 99.6803 32.6393 98.8772 33.5369C98.4904 33.971 98.0688 34.3705 97.6232 34.7408C97.1883 35.103 96.7347 35.4652 96.4412 35.9606C95.0244 38.3497 98.5997 39.9424 100.489 39.2206C101.094 38.9889 100.833 38.0061 100.219 38.2405C99.3868 38.5574 98.2049 38.2991 97.5085 37.7424C96.5826 36.9967 97.6232 36.0592 98.2422 35.5478V35.5451Z" fill="black"/>
<path d="M140.341 25.0243C142.214 21.695 143.068 17.6813 142.094 13.9871C141.832 12.9936 141.408 11.9869 140.6 11.3503C138.449 9.66171 135.074 11.4702 132.625 10.2503C130.89 9.38737 130.207 7.32855 129.201 5.67457C127.379 2.67289 123.577 0.635377 120.258 1.79929C118.718 2.3373 117.459 3.47192 115.981 4.15642C114.433 4.87288 112.648 5.0753 110.978 4.7184C108.449 4.18305 106.349 2.46781 103.961 1.47702C101.978 0.654021 99.7852 0.342401 97.6507 0.576782C95.6816 0.792519 93.7205 1.50099 92.2717 2.84868C89.1313 5.76779 88.3709 12.0108 89.3581 14.6769C95.863 19.6549 101.09 14.5944 105.084 14.2108C109.078 13.8273 109.388 22.0333 116.685 21.0372C123.983 20.0411 124.983 16.7411 126.597 19.6575C128.212 22.5713 125.591 31.7947 121.288 36.0109C116.984 40.2298 119.623 43.5777 122.467 42.3499C125.311 41.122 129.86 36.5969 129.86 36.5969C133.764 33.771 138.996 27.4161 140.341 25.027V25.0243Z" fill="black"/>
<path d="M119.55 84.0004C124.401 83.8779 129.222 83.252 134.044 82.7646C134.697 82.698 135.351 82.6314 136.005 82.5649C134.529 78.5111 130.167 68.2943 122.595 64.8158C122.416 64.7333 119.5 77.5523 118.648 84.0084C118.95 84.0031 119.249 84.0084 119.55 84.0031V84.0004Z" fill="#C5C55F"/>
<path d="M149.03 152.722C150.751 150.069 152.56 147.472 154.457 144.942C152.568 143.658 150.785 142.143 149.569 140.215C147.488 136.92 147.261 132.813 147.36 128.919C147.456 125.025 147.802 121.038 146.668 117.312C146.303 116.108 145.777 114.939 144.996 113.953C142.712 111.072 139.014 110.286 135.713 109.236C132.799 108.31 128.784 107.002 125.929 108.757C122.943 110.603 123.213 113.612 123.664 115.285C123.867 116.036 124.099 116.516 124.088 116.526C123.733 116.622 116.911 118.734 119.309 125.683C119.445 126.083 119.611 126.493 119.806 126.94C119.52 127.105 114.096 130.504 116.492 136.696C116.647 137.106 116.844 137.533 117.082 137.983C117.025 138.047 116.975 138.113 116.924 138.182C115.537 140.036 114.856 142.641 116.06 144.671C118.17 148.226 123.538 150.362 123.538 150.362C123.538 150.362 123.213 153.87 125.486 156.267C126.863 157.719 128.664 158.747 130.614 159.197C131.703 159.45 132.885 159.578 133.749 160.284C134.166 160.624 134.478 161.075 134.782 161.517C136.506 164.026 138.229 166.535 139.953 169.044C142.608 163.408 145.644 157.953 149.032 152.725L149.03 152.722Z" fill="#F6CBBC"/>
<path d="M124.099 116.516L124.088 116.526C126.879 117.477 129.587 118.649 132.199 120.015C132.794 120.324 133.4 119.461 132.805 119.152C129.851 117.613 126.804 116.327 123.664 115.285C123.867 116.036 124.099 116.516 124.099 116.516Z" fill="black"/>
<path d="M119.812 126.93L119.801 126.941C122.717 127.91 125.559 129.127 128.291 130.555C128.886 130.864 129.492 130.012 128.897 129.703C125.812 128.089 122.613 126.749 119.305 125.684C119.441 126.083 119.606 126.496 119.812 126.93Z" fill="black"/>
<path d="M116.484 136.696C116.639 137.106 116.837 137.533 117.074 137.972V137.983C119.865 138.934 122.594 140.108 125.204 141.472C125.799 141.781 126.405 140.928 125.799 140.617C122.795 139.053 119.686 137.74 116.484 136.696Z" fill="black"/>
<path d="M212.387 176.533C212.174 180.022 211.766 183.367 211.144 186.502C208.249 201.129 197.254 209.237 187.382 209.857C155.487 211.86 133.016 176.522 133.016 176.522C133.984 173.643 136.796 168.1 140.068 162.097C146.089 151.081 153.702 138.547 154.425 138.305L160.335 140.228C155.158 112.773 171.453 88.1445 171.453 88.1445C198.916 97.3413 214.436 143.634 212.387 176.533Z" fill="#C5855F"/>
<path d="M85.2707 92.0428C85.6525 90.4294 84.6518 88.8125 83.0355 88.4314C81.4193 88.0503 79.7996 89.0493 79.4178 90.6627C79.036 92.2761 80.0368 93.8929 81.653 94.274C83.2693 94.6551 84.889 93.6561 85.2707 92.0428Z" fill="black"/>
<path d="M76.0952 139.463C77.6295 138.829 78.3581 137.073 77.7225 135.541C77.087 134.01 75.328 133.282 73.7937 133.917C72.2594 134.551 71.5308 136.307 72.1663 137.839C72.8019 139.37 74.5609 140.098 76.0952 139.463Z" fill="black"/>
<path d="M74.8723 163.005C75.2541 161.391 74.2533 159.774 72.6371 159.393C71.0208 159.012 69.4011 160.011 69.0194 161.625C68.6376 163.238 69.6384 164.855 71.2546 165.236C72.8708 165.617 74.4905 164.618 74.8723 163.005Z" fill="black"/>
<path d="M73.1132 193.53C74.2875 192.357 74.2875 190.457 73.1132 189.285C71.9389 188.113 70.0349 188.112 68.8606 189.285C67.6863 190.457 67.6863 192.358 68.8606 193.53C70.0349 194.702 71.9389 194.702 73.1132 193.53Z" fill="black"/>
<path d="M196.817 154.736C196.727 154.736 196.633 154.712 196.551 154.661C189.822 150.549 160.499 140.966 160.203 140.87C159.936 140.782 159.789 140.497 159.877 140.228C159.965 139.962 160.253 139.816 160.52 139.903C161.732 140.298 190.257 149.62 197.084 153.793C197.324 153.94 197.399 154.251 197.252 154.494C197.156 154.651 196.988 154.736 196.817 154.736Z" fill="black"/>
<path d="M170.251 144.223C170.091 144.223 169.931 144.146 169.832 144.002C169.672 143.77 169.731 143.453 169.963 143.294C170.363 143.019 179.803 136.544 185.55 134.803C185.825 134.72 186.105 134.874 186.185 135.141C186.268 135.41 186.116 135.695 185.847 135.775C180.251 137.469 170.638 144.063 170.542 144.13C170.454 144.191 170.353 144.22 170.254 144.22L170.251 144.223Z" fill="black"/>
<path d="M103.904 104.31C103.904 104.31 105.217 93.6478 101.805 87.5326C98.3921 81.4174 105.972 73.0916 111.525 82.6213C117.008 92.0311 104.956 103.609 103.907 104.31H103.904Z" fill="white"/>
</g>
<defs>
<clipPath id="clip0_1516_56150">
<rect width="213" height="210" fill="white" transform="translate(0 0.5)"/>
</clipPath>
</defs>
</svg>
