<svg width="217" height="210" viewBox="0 0 217 210" fill="none" xmlns="http://www.w3.org/2000/svg">
<g clip-path="url(#clip0_1516_58441)">
<path d="M2.30197 176.382C5.85632 189.441 14.3409 200.108 28.1171 205.587C58.1297 217.523 81.7864 199.315 82.9005 198.437C82.9105 198.437 82.9305 198.418 82.9404 198.408C82.9404 198.679 103.491 198.679 124.174 198.61C145.129 198.54 166.223 198.398 166.223 198.398C166.408 198.465 166.585 198.525 166.769 198.582C175.605 201.619 184.354 200.614 191.607 197.343C202.542 192.401 211.897 184.107 215.157 172.22C215.83 169.769 216.261 167.248 216.465 164.699C217.53 151.875 213.135 138.21 207.248 127.201C200.608 114.815 190.767 104.13 178.866 96.6368C169.367 90.6596 158.713 86.5377 147.729 84.2312C147.203 84.1239 137.594 82.6003 137.594 82.6776H69.5331C62.7858 84.4057 48.2693 89.8467 39.9118 94.4374C28.4387 100.736 16.9381 110.369 9.52782 125.059C0.739151 142.454 -1.86555 161.061 2.30197 176.377V176.382Z" fill="#C5C55F"/>
<path d="M58.5658 141.187C58.5982 141.187 58.6306 141.185 58.6655 141.177C58.9297 141.122 59.0992 140.863 59.0444 140.601C57.7707 134.422 50.5224 121.613 50.2158 121.069C50.0837 120.835 49.7871 120.752 49.5503 120.887C49.316 121.019 49.2338 121.318 49.3684 121.553C49.4431 121.685 56.846 134.771 58.0897 140.798C58.1371 141.03 58.3415 141.187 58.5683 141.187H58.5658Z" fill="black"/>
<path d="M61.7684 142.185C61.9753 142.185 62.1672 142.053 62.2345 141.843C62.3167 141.586 62.1747 141.312 61.9154 141.23C61.7385 141.172 44.1462 135.624 37.9123 134.342C37.6481 134.29 37.3889 134.46 37.3366 134.722C37.2817 134.986 37.4537 135.243 37.7154 135.298C43.8994 136.569 61.4444 142.103 61.6213 142.157C61.6712 142.175 61.7185 142.18 61.7684 142.18V142.185Z" fill="black"/>
<path d="M152.873 135.764C152.968 135.764 153.063 135.737 153.147 135.679L174.763 121.044C174.984 120.892 175.044 120.588 174.892 120.366C174.743 120.142 174.439 120.084 174.214 120.236L152.599 134.871C152.377 135.023 152.317 135.328 152.469 135.549C152.564 135.689 152.719 135.764 152.873 135.764Z" fill="black"/>
<path d="M144.231 142.439C144.405 142.439 144.575 142.345 144.662 142.18L156.958 119.149C157.085 118.912 156.995 118.616 156.758 118.488C156.522 118.361 156.225 118.451 156.098 118.688L143.802 141.719C143.675 141.956 143.765 142.252 144.002 142.38C144.074 142.419 144.154 142.437 144.231 142.437V142.439Z" fill="black"/>
<path d="M71.1087 123.852C71.7069 121.236 73.686 119.099 76.1062 118.024C78.8605 116.8 82.6466 116.393 85.2065 118.299C86.0514 118.927 86.4801 119.989 85.9069 120.972C85.4208 121.805 84.0873 122.306 83.2348 121.672C81.8091 120.61 79.9622 120.775 78.3246 121.321C76.9387 121.785 75.5454 122.844 75.0593 124.233C74.4761 125.901 74.7652 127.674 75.8445 129.171C76.2408 129.719 76.9263 130.338 77.5569 130.732C78.3968 131.258 79 131.5 79.9646 131.726C82.1157 132.233 84.6008 131.729 86.6596 130.689C87.6018 130.213 88.7758 130.44 89.3316 131.39C89.8401 132.258 89.5759 133.584 88.6312 134.063C85.8371 135.474 82.8061 136.12 79.693 135.641C77.1655 135.25 74.6556 133.893 73.0429 131.894C71.2233 129.637 70.4556 126.699 71.1062 123.849L71.1087 123.852Z" fill="#F6C966"/>
<path d="M83.7514 130.515C86.1542 140.674 91.9718 150.93 105.611 150.93C122.54 150.93 127.413 135.156 128.702 123.366V123.356C129.462 116.324 128.448 111.761 128.448 111.761H82.7744C82.7744 111.761 81.3785 120.573 83.7514 130.515Z" fill="#F6C966"/>
<path d="M82.7721 111.757C84.998 114.034 94.3798 115.742 105.609 115.742C116.838 115.742 126.21 114.042 128.445 111.757C126.21 109.471 116.828 107.763 105.609 107.763C94.3898 107.763 84.998 109.471 82.7721 111.757Z" fill="#813E21"/>
<path d="M58.5666 166.418C58.7236 166.692 58.8881 166.964 59.0651 167.248C59.3567 167.737 59.6907 168.226 60.0322 168.732C62.3851 172.15 65.0895 174.799 67.921 176.771C68.1952 176.956 68.4669 177.143 68.7511 177.317C73.3996 180.307 78.3299 181.516 82.5771 181.352C82.9585 181.342 83.3299 181.312 83.7013 181.275C87.4799 180.903 90.5956 179.389 92.303 177.055C94.7731 173.697 93.5044 169.582 92.303 165.587C86.62 146.659 61.772 141.696 61.772 141.696C61.752 141.853 56.8417 145.212 55.4559 151.631C55.3786 151.972 55.3188 152.334 55.2615 152.696C54.7231 156.369 55.3786 160.949 58.5715 166.42L58.5666 166.418Z" fill="#C5855F"/>
<path d="M81.8049 181.743C82.0691 181.743 82.3309 181.738 82.5926 181.728C82.9415 181.718 83.3079 181.693 83.7391 181.648C87.6175 181.267 90.8503 179.673 92.6026 177.277C95.1599 173.798 93.9062 169.627 92.6923 165.592L92.6574 165.48C89.6838 155.578 81.456 149.536 75.0751 146.212C68.1857 142.621 61.9045 141.342 61.8422 141.329C61.74 141.309 61.6353 141.332 61.5506 141.392C61.5157 141.417 61.4858 141.447 61.4609 141.481C61.4235 141.516 61.3362 141.591 61.2515 141.664C57.9688 144.479 55.895 147.805 55.0875 151.548C55.0077 151.9 54.9479 152.271 54.8881 152.633C54.25 156.997 55.3791 161.695 58.243 166.604C58.3851 166.851 58.5396 167.111 58.7465 167.445C59.0182 167.899 59.3198 168.347 59.6388 168.821L59.7186 168.941C61.9768 172.222 64.6638 174.958 67.7047 177.077C67.9863 177.269 68.2655 177.459 68.5521 177.636C72.6897 180.297 77.3657 181.74 81.8024 181.74L81.8049 181.743ZM61.8921 142.105C62.9938 142.349 68.6269 143.691 74.7511 146.885C80.9949 150.142 89.0482 156.049 91.9446 165.697L91.9795 165.809C93.1385 169.667 94.3399 173.656 92.0019 176.836C90.3743 179.06 87.3359 180.544 83.6644 180.905C83.2506 180.947 82.9041 180.972 82.5676 180.982C78.0462 181.162 73.2157 179.748 68.9534 177.008C68.6743 176.836 68.4026 176.651 68.1409 176.472C65.1673 174.399 62.5451 171.726 60.3392 168.524L60.2595 168.407C59.9454 167.941 59.6488 167.5 59.3846 167.058C59.1802 166.727 59.0281 166.475 58.8911 166.235C58.8911 166.235 58.8911 166.235 58.8911 166.233C56.1144 161.475 55.0152 156.939 55.6283 152.752C55.6832 152.408 55.743 152.049 55.8178 151.718C56.593 148.134 58.5845 144.948 61.74 142.24C61.7974 142.19 61.8472 142.147 61.8896 142.11L61.8921 142.105Z" fill="#C5855F"/>
<path d="M67.7966 165.529C67.991 165.774 77.4128 175.796 92.9961 171.312C106.361 167.465 112.493 157.139 108.021 152.129C107.807 151.895 107.563 151.67 107.308 151.426C107.366 151.094 107.934 147.91 103.881 145.703C103.617 145.546 103.325 145.411 103.011 145.244C103.051 144.97 103.323 142.13 99.0081 140.115C98.7738 140.008 98.5196 139.9 98.2554 139.793C98.2554 139.793 98.2454 139.696 98.198 139.559C98.0036 138.778 96.558 136.414 93.5221 136.19C91.1292 136.005 88.9433 139.053 86.0719 141.299C83.6416 143.194 78.7987 144.132 78.7987 144.132C78.7987 144.132 80.6332 142.99 84.2648 138.319C86.4034 135.574 86.5878 132.654 86.1791 130.33C85.8176 128.26 83.2603 127.457 81.7573 128.934C78.9457 131.699 75.9821 134.312 73.011 136.903C68.7438 140.626 64.2024 143.721 63.148 149.683C62.151 155.318 64.2871 161.153 67.7941 165.534L67.7966 165.529Z" fill="#F6CBBC"/>
<path d="M85.0896 172.843C87.5397 172.843 90.2142 172.504 93.1031 171.671C103.22 168.758 108.255 162.711 109.494 158.417C110.224 155.881 109.803 153.56 108.305 151.879C108.123 151.682 107.934 151.5 107.732 151.306L107.712 151.286C107.821 150.336 107.814 147.413 104.065 145.371C103.898 145.271 103.711 145.177 103.514 145.077C103.479 145.059 103.445 145.042 103.407 145.022C103.427 144.157 103.126 141.616 99.1724 139.773C99.0004 139.693 98.806 139.611 98.5841 139.519C98.5767 139.496 98.5692 139.471 98.5617 139.449C98.2875 138.394 96.6624 136.045 93.5542 135.813C91.7072 135.668 90.0871 137.177 88.2127 138.923C87.46 139.623 86.6823 140.346 85.8473 141C84.3567 142.162 81.8792 142.965 80.2765 143.391C81.2037 142.526 82.6344 141.03 84.5661 138.544C86.4056 136.182 87.0936 133.317 86.5527 130.26C86.3608 129.158 85.6055 128.29 84.5337 127.946C83.4644 127.602 82.3004 127.876 81.5003 128.661C78.6912 131.424 75.77 134 72.7714 136.616C72.2231 137.095 71.6697 137.564 71.1189 138.027C67.3178 141.244 63.7285 144.284 62.7864 149.61C61.8417 154.946 63.564 160.834 67.5097 165.759C67.5795 165.846 73.9978 172.838 85.0921 172.838L85.0896 172.843ZM93.3174 136.554C93.3772 136.554 93.4371 136.554 93.4969 136.561C96.2736 136.766 97.6519 138.895 97.8389 139.648C97.8414 139.661 97.8463 139.671 97.8488 139.683C97.8787 139.77 97.8887 139.833 97.8887 139.833C97.9062 139.967 97.9934 140.087 98.118 140.137C98.4072 140.254 98.6489 140.359 98.8558 140.454C102.993 142.384 102.662 145.074 102.644 145.189C102.622 145.344 102.699 145.498 102.839 145.573C102.954 145.633 103.063 145.69 103.173 145.745C103.36 145.84 103.534 145.93 103.694 146.024C107.243 147.959 107.079 150.598 106.944 151.361C106.922 151.483 106.964 151.61 107.054 151.697L107.213 151.849C107.405 152.034 107.587 152.206 107.749 152.383C109.085 153.882 109.442 155.899 108.776 158.213C107.497 162.649 102.091 168.307 92.8962 170.955C77.5048 175.384 68.2176 165.444 68.0905 165.297C64.3367 160.609 62.6293 154.797 63.5217 149.747C64.4165 144.685 67.906 141.733 71.6024 138.603C72.1558 138.135 72.7116 137.666 73.2625 137.185C76.2685 134.561 79.2022 131.975 82.0237 129.2C82.6344 128.602 83.4869 128.4 84.3044 128.664C85.107 128.923 85.6728 129.569 85.8174 130.395C86.3259 133.28 85.7077 135.87 83.9779 138.09C80.4509 142.623 78.6239 143.803 78.6065 143.815C78.4544 143.912 78.3921 144.102 78.4569 144.269C78.5242 144.436 78.6987 144.533 78.8757 144.498C79.0776 144.458 83.8358 143.521 86.3084 141.593C87.1708 140.917 87.9585 140.184 88.7237 139.474C90.4011 137.913 91.8593 136.556 93.3199 136.556L93.3174 136.554Z" fill="black"/>
<path d="M133.68 171.058C135.29 174.906 138.885 177.554 143.052 177.738C144.448 177.806 145.834 177.709 147.202 177.474C147.524 177.417 147.838 177.357 148.159 177.28C151.988 176.419 155.55 174.38 158.304 171.322C158.538 171.048 158.772 170.776 158.997 170.492C161.096 167.884 162.628 164.622 163.301 160.782C163.379 160.381 163.438 159.982 163.486 159.57C163.486 159.57 163.486 159.567 163.486 159.56C163.867 156.64 163.76 153.416 163.057 149.91C162.803 148.621 162.501 147.419 162.17 146.297C162.023 145.848 161.886 145.409 161.731 144.978C156.322 129.243 143.453 130.59 143.289 130.433C143.289 130.433 126.045 152.82 133.683 171.056L133.68 171.058Z" fill="#C5855F"/>
<path d="M143.922 178.135C145.016 178.135 146.138 178.038 147.264 177.846C147.593 177.786 147.912 177.726 148.246 177.646C152.234 176.751 155.811 174.651 158.58 171.574C158.82 171.295 159.059 171.016 159.288 170.726C161.534 167.936 163.01 164.612 163.67 160.849C163.74 160.493 163.8 160.101 163.855 159.657C163.865 159.62 163.87 159.583 163.867 159.545C164.256 156.505 164.106 153.239 163.426 149.838C163.187 148.621 162.885 147.394 162.529 146.192L162.429 145.883C162.319 145.544 162.207 145.192 162.082 144.853C157.728 132.185 148.655 130.161 143.633 130.081C143.518 130.081 143.436 130.081 143.386 130.076C143.344 130.063 143.301 130.058 143.256 130.063C143.152 130.071 143.054 130.123 142.99 130.208C142.947 130.265 138.61 135.933 135.275 143.763C132.185 151.015 129.341 161.665 133.334 171.205C135.039 175.277 138.755 177.925 143.035 178.115C143.329 178.13 143.625 178.137 143.922 178.137V178.135ZM163.112 159.548C163.06 159.979 163.002 160.361 162.932 160.712C162.292 164.355 160.871 167.565 158.703 170.258C158.481 170.537 158.244 170.814 158.017 171.078C155.358 174.03 151.918 176.053 148.074 176.915C147.753 176.993 147.446 177.05 147.132 177.107C145.756 177.344 144.388 177.429 143.067 177.367C139.079 177.19 135.612 174.716 134.022 170.916C130.131 161.622 132.925 151.189 135.953 144.072C138.939 137.06 142.733 131.801 143.458 130.826C143.506 130.826 143.558 130.826 143.618 130.829C148.443 130.904 157.165 132.861 161.375 145.102C161.497 145.436 161.601 145.766 161.714 146.112L161.811 146.414C162.157 147.583 162.451 148.788 162.688 149.985C163.359 153.331 163.503 156.535 163.114 159.515C163.114 159.525 163.112 159.538 163.112 159.548Z" fill="#C5855F"/>
<path d="M97.7538 4.64583C97.7538 4.64583 105.62 -5.80729 120.528 4.64583C135.438 15.099 132.248 34.3544 137.203 42.9523C140.787 49.1713 144.905 52.7247 148.562 56.1235C153.307 60.5346 151.892 68.4567 145.86 70.8207C139.2 73.4315 128.514 75.0498 113.262 74.1745C84.6057 72.5313 59.7177 74.8802 59.8348 63.7214C59.952 52.5651 76.6221 47.9844 73.1001 29.4271C69.5782 10.8698 85.6625 -4.98441 97.7538 4.64583Z" fill="black"/>
<path d="M69.5308 82.6905C69.5308 82.6905 73.0452 84.4784 79.7427 86.0893C80.0642 86.1566 80.3957 86.2364 80.7297 86.3137C83.8728 87.0269 87.6615 87.6802 92.0558 88.1016C92.3773 88.1315 92.7014 88.159 93.0329 88.1889C95.9417 88.4432 99.1047 88.5904 102.522 88.5804C102.843 88.5804 103.168 88.5804 103.499 88.5704C106.702 88.5405 110.109 88.3659 113.721 88.0143C114.042 87.9944 114.366 87.957 114.698 87.9171C118.594 87.5256 122.714 86.9197 127.068 86.0619C127.253 86.022 127.44 85.9846 127.624 85.9447C127.936 85.8873 128.26 85.8175 128.581 85.7402C131.5 85.0769 134.526 84.1193 137.594 82.693C137.594 82.693 139.097 71.5691 117.696 70.8834C115.705 70.826 113.713 70.7462 111.742 70.659C111.39 70.649 111.049 70.639 110.697 70.6191C91.824 69.8685 74.4261 69.3698 69.5358 82.693L69.5308 82.6905Z" fill="#C5855F"/>
<path d="M78.4412 36.0228C80.5598 43.3889 90.4302 41.3666 90.4302 41.3666C96.4049 58.9589 91.8859 68.5018 88.6132 72.6611C87.2074 74.459 86.0259 75.2495 86.0259 75.2495C86.0259 75.2495 95.505 76.7057 105.622 76.7057C119.349 76.7057 125.002 75.2495 125.002 75.2495C123.753 74.6061 122.679 73.7932 121.769 72.8756C118.429 69.4968 117.21 64.5919 116.779 60.9113C116.437 57.9714 116.602 55.802 116.602 55.802C126.961 53.5852 127.734 44.2966 126.756 35.4842C125.869 27.5421 123.681 19.8843 123.681 19.8843C119.376 18.2435 98.6556 7.46875 98.6556 7.46875C98.5883 21.3007 88.6581 29.1231 88.6581 29.1231C84.7248 27.0035 76.3175 28.6643 78.4362 36.0178L78.4412 36.0228Z" fill="#F6CBBC"/>
<path d="M105.619 77.0794C119.238 77.0794 124.859 75.673 125.093 75.6132C125.243 75.5758 125.355 75.4461 125.373 75.2915C125.39 75.1369 125.31 74.9873 125.173 74.9174C124.009 74.3165 122.955 73.541 122.035 72.6134C118.742 69.2819 117.561 64.387 117.152 60.8686C116.888 58.5944 116.933 56.7741 116.963 56.1083C127.843 53.6048 127.982 43.1342 127.13 35.4464C126.247 27.5642 124.064 19.864 124.042 19.7867C124.009 19.6745 123.924 19.5822 123.815 19.5398C119.577 17.924 99.0364 7.25144 98.8296 7.14422C98.7149 7.08437 98.5753 7.08936 98.4632 7.15669C98.351 7.22401 98.2837 7.34371 98.2837 7.47587C98.2214 19.9413 89.9486 27.5393 88.6102 28.6863C86.2148 27.5268 82.2368 27.5168 79.7243 29.5441C78.4132 30.6014 77.0622 32.6038 78.0792 36.1322C80.0433 42.9621 88.4108 42.0644 90.1755 41.7926C95.9457 59.0408 91.499 68.3892 88.3185 72.4338C86.9726 74.1544 85.8285 74.9349 85.816 74.9424C85.6889 75.0297 85.6266 75.1843 85.659 75.3339C85.6914 75.4835 85.8135 75.5982 85.9656 75.6206C86.0603 75.6356 95.5893 77.0794 105.617 77.0794H105.619ZM123.949 75.087C121.818 75.4835 116.028 76.3313 105.619 76.3313C97.3864 76.3313 89.4875 75.3513 86.9352 75.0022C87.4262 74.5708 88.1341 73.8801 88.9068 72.8927C92.1994 68.7059 96.8206 59.0233 90.7837 41.2465C90.7238 41.067 90.5394 40.9623 90.3549 40.9997C90.2602 41.0196 80.7961 42.8649 78.7995 35.9202C78.0867 33.4416 78.5678 31.4368 80.1954 30.1226C82.476 28.2824 86.3245 28.2923 88.4855 29.4568C88.6176 29.5267 88.7772 29.5142 88.8943 29.4219C88.994 29.3446 98.6725 21.5597 99.0265 8.0843C102.327 9.7974 119.124 18.4826 123.376 20.1682C123.708 21.3627 125.589 28.3746 126.39 35.5287C127.287 43.6229 126.975 53.2008 116.529 55.4375C116.367 55.4725 116.247 55.6096 116.235 55.7742C116.227 55.8639 116.07 58.0134 116.412 60.9534C116.836 64.589 118.064 69.6535 121.507 73.1395C122.244 73.8851 123.064 74.5384 123.954 75.087H123.949Z" fill="#F6CBBC"/>
<path d="M101.105 32.3618C100.288 32.3618 99.6248 31.6986 99.6248 30.8806C99.6248 30.0626 100.288 29.3994 101.105 29.3994C101.923 29.3994 102.586 30.0626 102.586 30.8806C102.586 31.6986 101.923 32.3618 101.105 32.3618Z" fill="black"/>
<path d="M119.769 32.3618C118.952 32.3618 118.289 31.6986 118.289 30.8806C118.289 30.0626 118.952 29.3994 119.769 29.3994C120.587 29.3994 121.25 30.0626 121.25 30.8806C121.25 31.6986 120.587 32.3618 119.769 32.3618Z" fill="black"/>
<path d="M109.816 28.7939C109.512 28.2428 110.354 27.7516 110.658 28.3002C112.054 30.8237 113.846 33.2699 116.551 34.4842C116.81 34.599 116.823 34.9331 116.725 35.1525C115.771 37.302 113.36 38.0401 111.184 38.0576C110.556 38.0625 110.556 37.0851 111.184 37.0801C112.884 37.0651 114.701 36.5839 115.631 35.1027C113.026 33.7661 111.209 31.3099 109.816 28.7939Z" fill="black"/>
<path d="M105.054 39.5284C106.149 41.1941 108.432 42.3736 110.428 41.8001C111.034 41.6255 111.291 42.5681 110.687 42.7427C108.257 43.4409 105.545 42.0494 104.212 40.0222C103.865 39.496 104.71 39.0048 105.054 39.5284Z" fill="black"/>
<path d="M95.223 25.9434C95.6841 24.4822 96.7933 23.2778 98.1941 22.6618C99.8716 21.9237 101.761 21.9636 103.486 22.5322C103.987 22.6968 104.313 23.2079 104.169 23.7341C104.034 24.2253 103.471 24.5819 102.967 24.4173C101.272 23.8588 99.2235 23.8663 97.885 25.2053C97.5161 25.5744 97.2519 25.9983 97.1049 26.4646C96.9453 26.9683 96.4244 27.2899 95.9035 27.1478C95.4074 27.0107 95.061 26.4521 95.2205 25.9459L95.223 25.9434Z" fill="black"/>
<path d="M123.426 24.7394C122.758 23.3605 121.484 22.3306 120.008 21.9242C118.241 21.4379 116.377 21.7521 114.754 22.565C114.283 22.8019 114.034 23.353 114.253 23.8517C114.457 24.318 115.066 24.5898 115.539 24.3529C117.134 23.555 119.163 23.2632 120.681 24.3953C121.1 24.707 121.424 25.0885 121.636 25.5274C121.865 26.0012 122.429 26.2456 122.922 26.0286C123.393 25.8217 123.652 25.2182 123.423 24.7394H123.426Z" fill="black"/>
<path d="M82.877 32.1455C82.9518 31.8762 83.2185 31.754 83.4777 31.8039C85.9354 32.2926 88.0042 34.2102 88.7195 36.604C88.899 37.2075 87.9593 37.4643 87.7773 36.8634C87.1517 34.7762 85.3446 33.1679 83.216 32.744C82.9568 32.6916 82.8097 32.3849 82.8745 32.143L82.877 32.1455Z" fill="black"/>
<path d="M110.956 144.492C110.537 145.175 109.463 147.501 111.582 150.539C114.129 154.172 124.361 155.99 124.361 155.99C124.361 155.99 132.993 170.994 142.512 169.859C150.792 168.872 153.564 157.902 152.724 149.464C152.684 149.152 151.365 133.934 137.247 125.954C125.141 119.107 113.484 121.97 113.045 128.67C113.025 128.992 113.035 129.323 113.065 129.665C113.065 129.665 113.055 129.665 113.045 129.675C112.761 129.859 110.096 131.697 111.355 136.131C111.432 136.432 111.539 136.737 111.657 137.058C111.657 137.058 111.647 137.058 111.637 137.068C111.422 137.235 109.196 139.031 110.787 143.524C110.874 143.769 110.971 144.023 111.078 144.285C111.078 144.285 111.021 144.355 110.951 144.489L110.956 144.492Z" fill="#F6CBBC"/>
<path d="M141.467 170.293C141.828 170.293 142.192 170.273 142.558 170.228C150.654 169.263 154.031 158.79 153.099 149.424L153.094 149.382C152.925 147.758 151.033 133.308 137.436 125.623C128.276 120.441 120.435 121.084 116.506 123.209C114.183 124.463 112.825 126.393 112.678 128.64C112.663 128.902 112.663 129.176 112.683 129.475C112 129.996 109.816 132.049 111.003 136.23C111.063 136.462 111.14 136.697 111.225 136.936C110.559 137.56 108.994 139.557 110.445 143.649C110.514 143.841 110.589 144.04 110.671 144.245C110.661 144.265 110.649 144.285 110.636 144.31C110.205 145.02 109.026 147.519 111.282 150.753C113.737 154.252 122.73 156.062 124.134 156.326C125.081 157.93 132.68 170.295 141.474 170.295L141.467 170.293ZM123.6 122.411C127.479 122.411 132.187 123.516 137.067 126.276C150.338 133.777 152.185 147.878 152.352 149.461L152.357 149.509C153.251 158.511 150.093 168.577 142.471 169.485C142.142 169.525 141.813 169.542 141.487 169.542C132.705 169.542 124.772 155.942 124.689 155.8C124.635 155.705 124.54 155.638 124.43 155.618C124.33 155.601 114.32 153.788 111.89 150.322C109.881 147.442 110.913 145.28 111.277 144.686C111.282 144.676 111.287 144.666 111.292 144.659C111.337 144.572 111.372 144.527 111.372 144.524C111.457 144.419 111.481 144.27 111.429 144.145C111.324 143.886 111.227 143.634 111.142 143.397C109.707 139.345 111.524 137.642 111.845 137.382C111.893 137.355 111.935 137.318 111.967 137.27C112.037 137.171 112.055 137.043 112.012 136.929C111.9 136.622 111.795 136.323 111.721 136.036C110.584 132.036 112.743 130.328 113.236 129.996C113.276 129.977 113.313 129.949 113.343 129.914C113.413 129.837 113.448 129.735 113.441 129.63C113.411 129.281 113.403 128.972 113.421 128.687C113.553 126.68 114.742 125.012 116.86 123.867C118.54 122.96 120.863 122.411 123.6 122.411Z" fill="#F6CBBC"/>
<path d="M113.066 129.661C113.066 129.661 113.056 129.661 113.046 129.671C115.077 129.253 117.156 129.075 119.245 129.153C120.982 129.22 122.702 129.455 124.38 129.866C125.98 130.257 127.787 130.716 129.075 131.791C129.554 132.192 130.247 131.507 129.768 131.098C128.41 129.966 126.645 129.437 124.955 129.008C123.238 128.559 121.461 128.295 119.684 128.198C117.458 128.081 115.222 128.238 113.043 128.667C113.024 128.988 113.034 129.32 113.063 129.661H113.066Z" fill="black"/>
<path d="M111.659 137.058C111.659 137.058 111.649 137.058 111.639 137.068C113.503 136.726 115.407 136.589 117.312 136.656C119.039 136.724 120.759 136.958 122.446 137.369C124.047 137.761 125.844 138.22 127.142 139.294C127.621 139.696 128.314 139.01 127.825 138.601C126.467 137.469 124.702 136.941 123.022 136.512C121.295 136.063 119.518 135.798 117.741 135.701C115.602 135.584 113.453 135.731 111.355 136.13C111.432 136.432 111.539 136.736 111.656 137.058H111.659Z" fill="black"/>
<path d="M111.085 144.284C111.085 144.284 111.027 144.352 110.958 144.489C112.657 144.204 114.385 144.087 116.112 144.157C117.839 144.224 119.569 144.459 121.247 144.87C122.847 145.262 124.654 145.721 125.943 146.795C126.421 147.197 127.114 146.511 126.636 146.112C125.277 144.97 123.512 144.441 121.822 144.012C120.095 143.564 118.328 143.299 116.541 143.202C114.617 143.105 112.695 143.202 110.791 143.524C110.878 143.768 110.975 144.022 111.082 144.284H111.085Z" fill="black"/>
<path d="M107.295 151.449C107.295 151.449 107.303 151.441 107.303 151.429C106.179 153.172 104.848 154.78 103.327 156.216C102.061 157.408 100.69 158.471 99.2195 159.383C97.8187 160.251 96.2259 161.219 94.5559 161.386C93.9353 161.445 93.9378 162.42 94.5634 162.366C96.3231 162.191 97.9358 161.298 99.4264 160.396C100.952 159.483 102.385 158.401 103.699 157.201C105.341 155.695 106.797 153.99 108.016 152.134C107.799 151.895 107.557 151.668 107.293 151.451L107.295 151.449Z" fill="black"/>
<path d="M103.01 145.264C103.01 145.264 103.018 145.257 103.018 145.244C101.956 146.815 100.717 148.269 99.3364 149.58C98.0777 150.765 96.7043 151.827 95.2287 152.747C93.8279 153.615 92.2427 154.578 90.5652 154.75C89.9446 154.81 89.9471 155.785 90.5802 155.725C92.3399 155.55 93.9526 154.657 95.4356 153.76C96.966 152.842 98.3992 151.757 99.7153 150.558C101.298 149.114 102.699 147.478 103.883 145.7C103.611 145.543 103.322 145.409 103.008 145.267L103.01 145.264Z" fill="black"/>
<path d="M98.2625 139.788C98.2625 139.788 98.2551 139.698 98.2052 139.554C97.2157 140.965 96.0891 142.279 94.8303 143.466C93.5716 144.651 92.1932 145.72 90.7226 146.633C89.3218 147.501 87.7291 148.468 86.0591 148.635C85.4385 148.695 85.4409 149.67 86.0591 149.61C87.8263 149.443 89.439 148.551 90.9295 147.645C92.4599 146.728 93.8881 145.651 95.2092 144.444C96.6274 143.139 97.9061 141.698 99.0078 140.115C98.771 140.008 98.5218 139.898 98.2601 139.791L98.2625 139.788Z" fill="black"/>
<path d="M104.786 111.66C104.786 111.66 106.012 101.678 102.824 95.9532C99.6364 90.2254 106.718 82.4329 111.905 91.355C117.027 100.165 105.768 111.004 104.788 111.66H104.786Z" fill="white"/>
</g>
<defs>
<clipPath id="clip0_1516_58441">
<rect width="217" height="210" fill="white" transform="matrix(-1 0 0 1 217 0)"/>
</clipPath>
</defs>
</svg>
