<svg width="56" height="56" viewBox="0 0 56 56" fill="none" xmlns="http://www.w3.org/2000/svg">
<path d="M28 1C42.9117 1 55 13.0883 55 28C55 42.9117 42.9117 55 28 55C13.0883 55 1 42.9117 1 28C1 13.0883 13.0883 1 28 1Z" fill="white"/>
<path d="M28 1C42.9117 1 55 13.0883 55 28C55 42.9117 42.9117 55 28 55C13.0883 55 1 42.9117 1 28C1 13.0883 13.0883 1 28 1Z" stroke="#E2E8F0" stroke-width="2"/>
<path d="M28.5547 21.5385C29.638 21.5385 30.9959 20.8061 31.8045 19.8296C32.5369 18.9447 33.0709 17.7088 33.0709 16.473C33.0709 16.3051 33.0556 16.1373 33.0251 16C31.8198 16.0458 30.3703 16.8086 29.5006 17.8309C28.8141 18.609 28.1885 19.8296 28.1885 21.0807C28.1885 21.2638 28.219 21.4469 28.2343 21.5079C28.3106 21.5232 28.4326 21.5385 28.5547 21.5385ZM24.7403 40C26.2203 40 26.8764 39.0083 28.7225 39.0083C30.5992 39.0083 31.0111 39.9695 32.6589 39.9695C34.2762 39.9695 35.3595 38.4743 36.3818 37.0095C37.5261 35.3312 37.999 33.6834 38.0296 33.6071C37.9228 33.5766 34.8255 32.3102 34.8255 28.7552C34.8255 25.6732 37.2667 24.2848 37.404 24.178C35.7867 21.8589 33.3303 21.7978 32.6589 21.7978C30.8433 21.7978 29.3633 22.8964 28.4326 22.8964C27.4256 22.8964 26.0982 21.8589 24.5267 21.8589C21.5362 21.8589 18.5 24.3306 18.5 28.9994C18.5 31.8983 19.6291 34.965 21.0175 36.9485C22.2076 38.6268 23.2451 40 24.7403 40Z" fill="black"/>
</svg>
