<svg width="48" height="49" viewBox="0 0 48 49" fill="none" xmlns="http://www.w3.org/2000/svg">
<path d="M42.408 21.3772C43.3831 20.5176 44 19.2606 44 17.8616C44 15.2769 41.8972 13.1741 39.3125 13.1741C36.7278 13.1741 34.625 15.2769 34.625 17.8616C34.625 19.2598 35.2411 20.5161 36.2152 21.3756C36.1409 21.4412 36.0677 21.5084 35.9971 21.5791L32.6834 24.8928H31.0312V22.3928C31.0312 19.7481 29.5633 17.4402 27.3997 16.2399C28.1969 15.3992 28.6875 14.2651 28.6875 13.0178C28.6875 10.4331 26.5847 8.33032 24 8.33032C21.4153 8.33032 19.3125 10.4331 19.3125 13.0178C19.3125 14.2651 19.8031 15.3992 20.6003 16.2399C18.4367 17.4402 16.9688 19.7481 16.9688 22.3928V24.8928H15.3166L12.0031 21.5793C11.9324 21.5085 11.8591 21.4413 11.7848 21.3756C12.7589 20.5161 13.375 19.2598 13.375 17.8616C13.375 15.2769 11.2722 13.1741 8.6875 13.1741C6.10281 13.1741 4 15.2769 4 17.8616C4 19.2606 4.61688 20.5176 5.59195 21.3772C4.61688 22.2368 4 23.4938 4 24.8928V41.2991H44V24.8928C44 23.4938 43.3831 22.2368 42.408 21.3772ZM36.9688 17.8616C36.9688 16.5692 38.0202 15.5178 39.3125 15.5178C40.6048 15.5178 41.6562 16.5692 41.6562 17.8616C41.6562 19.1539 40.6048 20.2053 39.3125 20.2053C38.0202 20.2053 36.9688 19.1539 36.9688 17.8616ZM33.6541 27.2366L37.6546 23.2361C38.0974 22.7931 38.6862 22.5491 39.3125 22.5491C40.6048 22.5491 41.6562 23.6005 41.6562 24.8928V34.2678H36.2823V31.2376L39.2537 28.2663L37.5964 26.609L34.6251 29.5803H28.6875C28.0413 29.5803 27.5156 29.0546 27.5156 28.4084C27.5156 27.7623 28.0413 27.2366 28.6875 27.2366H33.6541ZM33.9386 31.9241V38.9553H14.0614V31.9241H33.9386ZM21.6562 13.0178C21.6562 11.7255 22.7077 10.6741 24 10.6741C25.2923 10.6741 26.3438 11.7255 26.3438 13.0178C26.3438 14.3102 25.2923 15.3616 24 15.3616C22.7077 15.3616 21.6562 14.3102 21.6562 13.0178ZM19.3125 22.3928C19.3125 19.8081 21.4153 17.7053 24 17.7053C26.5847 17.7053 28.6875 19.8081 28.6875 22.3928V24.8928C26.749 24.8928 25.1719 26.4699 25.1719 28.4084C25.1719 28.8192 25.2434 29.2135 25.3734 29.5803H22.6266C22.7566 29.2135 22.8281 28.8192 22.8281 28.4084C22.8281 26.4699 21.251 24.8928 19.3125 24.8928V22.3928ZM6.34375 17.8616C6.34375 16.5692 7.39516 15.5178 8.6875 15.5178C9.97984 15.5178 11.0312 16.5692 11.0312 17.8616C11.0312 19.1539 9.97984 20.2053 8.6875 20.2053C7.39516 20.2053 6.34375 19.1539 6.34375 17.8616ZM10.3456 23.2363L14.3459 27.2366H19.3125C19.9587 27.2366 20.4844 27.7623 20.4844 28.4084C20.4844 29.0546 19.9587 29.5803 19.3125 29.5803H13.3749L10.4036 26.609L8.74633 28.2663L11.7177 31.2376V34.2678H6.34375V24.8928C6.34375 23.6005 7.39516 22.5491 8.6875 22.5491C9.31383 22.5491 9.90258 22.7931 10.3456 23.2363ZM6.34375 36.6116H11.7177V38.9553H6.34375V36.6116ZM36.2823 38.9553V36.6116H41.6562V38.9553H36.2823Z" fill="#80838B"/>
</svg>
