<svg width="16" height="15" viewBox="0 0 16 15" fill="none" xmlns="http://www.w3.org/2000/svg">
<path d="M15.4755 5.29254C15.4314 4.63 15.2635 3.98512 14.9543 3.33141C14.5126 2.39501 13.8324 1.59996 12.9402 0.972753C12.2247 0.469219 11.4296 0.151198 10.5727 0.0275232C10.4932 0.0186893 10.4137 0.00985534 10.3342 0.00985534C10.2635 0.00985534 10.1929 0.00985534 10.078 -0.0078125H8.97377L8.95611 0.00985534C8.39957 0.0186893 7.86953 0.168866 7.46317 0.301375C6.05858 0.751905 4.77766 1.53812 3.54091 2.71304C3.01088 3.21657 2.52501 3.78194 2.09215 4.40031C1.4031 5.38088 0.934905 6.36145 0.661053 7.42152C0.572714 7.77487 0.510877 8.1459 0.484375 8.57876V9.74484L0.502043 9.7625C0.528545 10.4692 0.740559 11.1671 1.13809 11.9091C1.49144 12.5629 1.95964 13.1371 2.53384 13.6229C2.96671 13.994 3.39074 14.2678 3.84127 14.471C4.55681 14.7978 5.21052 14.9745 5.86423 14.9922C6.04091 14.9922 6.22642 14.9922 6.4031 14.9922C6.91547 14.9922 7.419 14.9569 7.92254 14.8332C9.52148 14.4356 10.9879 13.6053 12.3925 12.2802C12.9225 11.7766 13.4172 11.2024 13.8678 10.5752C14.3183 9.93035 14.6982 9.2413 14.9897 8.51692C15.3872 7.51869 15.5462 6.46745 15.4755 5.31021V5.29254ZM10.2635 7.32434C9.72466 7.7307 9.11512 7.98689 8.58508 8.19007L8.28473 8.30491C7.8872 8.45508 7.50734 8.59643 7.14515 8.78194C6.41194 9.15296 5.97024 9.736 5.8024 10.5487C5.71406 10.9639 5.3872 11.2466 4.97201 11.2643H4.95434C4.54798 11.2643 4.20346 11.0081 4.09745 10.6194C4.06211 10.4869 4.06211 10.3455 4.08862 10.213C4.38014 8.83494 5.16635 7.81904 6.4296 7.20067C6.8448 6.99749 7.26883 6.82964 7.68402 6.67063L8.16105 6.48512C8.50558 6.34378 8.86777 6.1936 9.17695 5.96392C9.60982 5.65473 9.866 5.2042 9.98084 4.61233C9.99851 4.52399 10.0162 4.42682 10.025 4.33848C10.0868 3.87028 10.502 3.54342 10.9702 3.57876C11.4208 3.6141 11.7653 4.00279 11.7653 4.49749C11.624 5.74307 11.1204 6.6883 10.2635 7.33318V7.32434Z" fill="#3D3632"/>
</svg>
