<svg width="24" height="24" viewBox="0 0 24 24" fill="none" xmlns="http://www.w3.org/2000/svg">
<g clip-path="url(#clip0_489_36773)">
<path d="M20.3984 3.79688C20.3984 3.47328 20.1361 3.21094 19.8125 3.21094H4.1875C3.86391 3.21094 3.60156 3.47328 3.60156 3.79688V5.55469H20.3984V3.79688Z" fill="white"/>
<path d="M2.58593 9.46094H4.19198L5.25972 6.72656H3.16527L2.08034 8.57887C1.97421 8.76008 1.97316 8.98422 2.07761 9.16637C2.18198 9.34855 2.37593 9.46094 2.58593 9.46094Z" fill="white"/>
<path d="M7.8166 9.46094L8.35047 6.72656H6.52086L5.45312 9.46094H7.8166Z" fill="white"/>
<path d="M19.8099 9.46094H21.4159C21.6259 9.46094 21.8199 9.34855 21.9243 9.16637C22.0288 8.98422 22.0277 8.76008 21.9216 8.57887L20.8366 6.72656H18.7422L19.8099 9.46094Z" fill="white"/>
<path d="M16.1901 9.46094H18.5536L17.4859 6.72656H15.6562L16.1901 9.46094Z" fill="white"/>
<path d="M11.4144 9.46094V6.72656H9.54168L9.00781 9.46094H11.4144Z" fill="white"/>
<path d="M12.5859 9.46094H14.9925L14.4587 6.72656H12.5859V9.46094Z" fill="white"/>
<path d="M21.4141 19.6172H20.7891V10.6328H3.21094V19.6172H2.58594C2.26234 19.6172 2 19.8795 2 20.2031C2 20.5267 2.26234 20.7891 2.58594 20.7891H5.55469V14.7344C5.55469 14.4108 5.81703 14.1484 6.14062 14.1484H17.8594C18.183 14.1484 18.4453 14.4108 18.4453 14.7344V20.7891H21.4141C21.7377 20.7891 22 20.5267 22 20.2031C22 19.8795 21.7377 19.6172 21.4141 19.6172ZM13.1719 12.9766H10.8281C10.5045 12.9766 10.2422 12.7142 10.2422 12.3906C10.2422 12.067 10.5045 11.8047 10.8281 11.8047H13.1719C13.4955 11.8047 13.7578 12.067 13.7578 12.3906C13.7578 12.7142 13.4955 12.9766 13.1719 12.9766Z" fill="white"/>
<path d="M6.72656 15.3203H8.48438V20.7891H6.72656V15.3203Z" fill="white"/>
<path d="M15.5156 15.3203H17.2734V20.7891H15.5156V15.3203Z" fill="white"/>
<path d="M12.5859 15.3203H14.3438V20.7891H12.5859V15.3203Z" fill="white"/>
<path d="M9.65625 15.3203H11.4141V20.7891H9.65625V15.3203Z" fill="white"/>
</g>
<defs>
<clipPath id="clip0_489_36773">
<rect width="20" height="20" fill="white" transform="translate(2 2)"/>
</clipPath>
</defs>
</svg>
