<svg width="24" height="25" viewBox="0 0 24 25" fill="none" xmlns="http://www.w3.org/2000/svg">
<g clip-path="url(#clip0_489_37736)">
<path d="M19.6562 4.3772H18.7188V2.8147H17.1562V4.3772H6.84375V2.8147H5.28125V4.3772H4.34375C3.05141 4.3772 2 5.4286 2 6.72095V20.4709C2 21.7633 3.05141 22.8147 4.34375 22.8147H19.6562C20.9486 22.8147 22 21.7633 22 20.4709V6.72095C22 5.4286 20.9486 4.3772 19.6562 4.3772ZM20.4375 20.4709C20.4375 20.9017 20.087 21.2522 19.6562 21.2522H4.34375C3.91297 21.2522 3.5625 20.9017 3.5625 20.4709V10.1584H20.4375V20.4709ZM20.4375 8.59595H3.5625V6.72095C3.5625 6.29017 3.91297 5.9397 4.34375 5.9397H5.28125V7.5022H6.84375V5.9397H17.1562V7.5022H18.7188V5.9397H19.6562C20.087 5.9397 20.4375 6.29017 20.4375 6.72095V8.59595Z" fill="#80838B"/>
<path d="M6.53125 11.7991H4.96875V13.3616H6.53125V11.7991Z" fill="#80838B"/>
<path d="M9.65625 11.7991H8.09375V13.3616H9.65625V11.7991Z" fill="#80838B"/>
<path d="M12.7812 11.7991H11.2188V13.3616H12.7812V11.7991Z" fill="#80838B"/>
<path d="M15.9062 11.7991H14.3438V13.3616H15.9062V11.7991Z" fill="#80838B"/>
<path d="M19.0312 11.7991H17.4688V13.3616H19.0312V11.7991Z" fill="#80838B"/>
<path d="M6.53125 14.9241H4.96875V16.4866H6.53125V14.9241Z" fill="#80838B"/>
<path d="M9.65625 14.9241H8.09375V16.4866H9.65625V14.9241Z" fill="#80838B"/>
<path d="M12.7812 14.9241H11.2188V16.4866H12.7812V14.9241Z" fill="#80838B"/>
<path d="M15.9062 14.9241H14.3438V16.4866H15.9062V14.9241Z" fill="#80838B"/>
<path d="M6.53125 18.0491H4.96875V19.6116H6.53125V18.0491Z" fill="#80838B"/>
<path d="M9.65625 18.0491H8.09375V19.6116H9.65625V18.0491Z" fill="#80838B"/>
<path d="M12.7812 18.0491H11.2188V19.6116H12.7812V18.0491Z" fill="#80838B"/>
<path d="M15.9062 18.0491H14.3438V19.6116H15.9062V18.0491Z" fill="#80838B"/>
<path d="M19.0312 14.9241H17.4688V16.4866H19.0312V14.9241Z" fill="#80838B"/>
</g>
<defs>
<clipPath id="clip0_489_37736">
<rect width="20" height="20" fill="white" transform="translate(2 2.8147)"/>
</clipPath>
</defs>
</svg>
