<svg width="48" height="49" viewBox="0 0 48 49" fill="none" xmlns="http://www.w3.org/2000/svg">
<path d="M40.6237 33.1965V22.8153L40.92 22.6428C41.5487 22.2778 41.9238 21.6265 41.9238 20.9003C41.9238 20.174 41.5487 19.5215 40.92 19.1565L25.7237 10.329C24.445 9.58403 22.8538 9.58528 21.575 10.329L6.3775 19.1578C5.75 19.5228 5.375 20.174 5.375 20.9003C5.375 21.6265 5.75 22.2778 6.3775 22.644L10.985 25.3215V31.5453C10.985 32.9903 11.7625 34.334 13.0125 35.0553L19.355 38.7115C20.6788 39.474 22.1637 39.8565 23.6488 39.8565C25.1337 39.8565 26.6175 39.4753 27.9425 38.7115L34.2837 35.0553C35.535 34.3353 36.3125 32.9903 36.3125 31.5453V25.3203L38.3737 24.1228V33.1965C37.845 33.5565 37.4975 34.1628 37.4975 34.8515C37.4975 35.9565 38.3937 36.8528 39.4987 36.8528C40.6037 36.8528 41.5 35.9565 41.5 34.8515C41.5 34.164 41.1525 33.5578 40.6237 33.1965ZM34.0638 31.544H34.0625C34.0625 32.1865 33.7188 32.784 33.1613 33.104L26.82 36.7603C24.865 37.8865 22.4338 37.8865 20.48 36.7603L14.1375 33.104C13.5812 32.784 13.2362 32.1865 13.2362 31.544V26.6278L21.575 31.4728C22.215 31.844 22.9325 32.0303 23.65 32.0303C24.3675 32.0303 25.085 31.8453 25.725 31.4728L34.0638 26.6278V31.544ZM24.5938 29.5278C24.0112 29.8665 23.2875 29.8665 22.705 29.5278L7.85625 20.9003L22.7038 12.2728C23.2862 11.934 24.01 11.934 24.5925 12.2728L39.4412 20.899L24.5938 29.5278Z" fill="#80838B"/>
</svg>
