<svg width="48" height="49" viewBox="0 0 48 49" fill="none" xmlns="http://www.w3.org/2000/svg">
<g clip-path="url(#clip0_873_1381)">
<path d="M18.9945 39.365C18.5284 39.4321 18.0544 39.4665 17.5741 39.4665C10.7245 39.4665 5.17188 32.4629 5.17188 23.8236C5.17188 15.1842 10.7245 8.18066 17.5741 8.18066C21.3617 8.18066 24.7528 10.3222 27.0277 13.6978" stroke="#80838B" stroke-width="2.66667" stroke-miterlimit="10" stroke-linecap="round" stroke-linejoin="round"/>
<path d="M18.24 9.71582C18.24 16.5438 16.7316 17.1032 16.4844 22.9041" stroke="#80838B" stroke-width="2.66667" stroke-miterlimit="10" stroke-linecap="round" stroke-linejoin="round"/>
<path d="M18.24 9.71582C18.24 16.5439 16.7315 17.1032 16.4844 22.9042" stroke="#80838B" stroke-width="2.66667" stroke-miterlimit="10" stroke-linecap="round" stroke-linejoin="round"/>
<path d="M37.4831 35.8245C43.5919 29.7157 44.6179 20.8372 39.7746 15.9938C34.9313 11.1505 26.0528 12.1765 19.9439 18.2853C13.835 24.3942 12.8091 33.2727 17.6524 38.116C22.4957 42.9593 31.3742 41.9334 37.4831 35.8245Z" stroke="#80838B" stroke-width="2.66667" stroke-miterlimit="10" stroke-linecap="round" stroke-linejoin="round"/>
<path d="M39.1609 17.5535C33.9019 22.8125 32.6364 21.5469 27.3774 26.8059C22.1184 32.0649 23.384 33.3303 18.125 38.5893" stroke="#80838B" stroke-width="2.66667" stroke-miterlimit="10" stroke-linecap="round" stroke-linejoin="round"/>
<path d="M39.1609 17.5535C33.9019 22.8125 32.6364 21.5469 27.3774 26.8059C22.1184 32.0649 23.384 33.3303 18.125 38.5893" stroke="#80838B" stroke-width="2.66667" stroke-miterlimit="10" stroke-linecap="round" stroke-linejoin="round"/>
</g>
<defs>
<clipPath id="clip0_873_1381">
<rect width="40" height="40" fill="white" transform="translate(4 4.67993)"/>
</clipPath>
</defs>
</svg>
