<svg width="24" height="24" viewBox="0 0 24 24" fill="none" xmlns="http://www.w3.org/2000/svg">
<path d="M20.9747 9.35066C20.9217 8.55561 20.7203 7.78175 20.3493 6.9973C19.8193 5.87363 19.003 4.91956 17.9323 4.16691C17.0737 3.56267 16.1196 3.18105 15.0914 3.03264C14.996 3.02204 14.9005 3.01144 14.8051 3.01144C14.7203 3.01144 14.6355 3.01144 14.4977 2.99023H13.1726L13.1514 3.01144C12.4836 3.02204 11.8475 3.20225 11.3599 3.36126C9.6744 3.9019 8.13729 4.84536 6.6532 6.25525C6.01715 6.85949 5.43411 7.53794 4.91468 8.27999C4.08782 9.45667 3.52599 10.6333 3.19737 11.9054C3.09136 12.3295 3.01715 12.7747 2.98535 13.2941V14.6934L3.00655 14.7146C3.03836 15.5627 3.29277 16.4001 3.7698 17.2906C4.19383 18.075 4.75567 18.7641 5.44472 19.3471C5.96415 19.7924 6.47298 20.121 7.01362 20.3648C7.87228 20.757 8.65673 20.969 9.44118 20.9902C9.6532 20.9902 9.87581 20.9902 10.0878 20.9902C10.7027 20.9902 11.3069 20.9478 11.9111 20.7994C13.8299 20.3224 15.5896 19.3259 17.2751 17.7358C17.9111 17.1316 18.5048 16.4425 19.0454 15.6899C19.5861 14.916 20.0419 14.0892 20.3917 13.2199C20.8687 12.022 21.0596 10.7606 20.9747 9.37186V9.35066ZM14.7203 11.7888C14.0737 12.2765 13.3422 12.5839 12.7062 12.8277L12.3458 12.9655C11.8687 13.1457 11.4129 13.3153 10.9783 13.5379C10.0984 13.9832 9.56839 14.6828 9.36698 15.6581C9.26097 16.1563 8.86874 16.4955 8.37051 16.5167H8.34931C7.86168 16.5167 7.44825 16.2093 7.32104 15.7429C7.27864 15.5839 7.27864 15.4143 7.31044 15.2553C7.66026 13.6015 8.60373 12.3825 10.1196 11.6404C10.6179 11.3966 11.1267 11.1952 11.6249 11.0044L12.1974 10.7818C12.6108 10.6121 13.0454 10.4319 13.4164 10.1563C13.9359 9.78529 14.2433 9.24465 14.3811 8.5344C14.4023 8.4284 14.4235 8.31179 14.4341 8.20578C14.5083 7.64394 15.0066 7.25172 15.5684 7.29412C16.109 7.33652 16.5225 7.80296 16.5225 8.3966C16.3528 9.89129 15.7486 11.0256 14.7203 11.7994V11.7888Z" fill="#3D3632"/>
</svg>
