<svg width="24" height="24" viewBox="0 0 24 24" fill="none" xmlns="http://www.w3.org/2000/svg">
<path d="M18.7575 6.97852L17.5173 21.9993H6.48244L5.24219 6.97852" stroke="#80838B" stroke-width="1.24481" stroke-miterlimit="10" stroke-linecap="round" stroke-linejoin="round"/>
<path d="M18.1913 4.48963H5.8125L7.05731 2H16.9465L18.1913 4.48963Z" stroke="#80838B" stroke-width="1.24481" stroke-miterlimit="10" stroke-linecap="round" stroke-linejoin="round"/>
<path d="M18.4242 4.49023H5.57848C4.72827 4.49023 4.03906 5.17945 4.03906 6.02965V6.97986H19.9637V6.02965C19.9637 5.17945 19.2744 4.49023 18.4242 4.49023Z" stroke="#80838B" stroke-width="1.24481" stroke-miterlimit="10" stroke-linecap="round" stroke-linejoin="round"/>
<path d="M5.64062 11.75H8.45224C9.20328 10.5832 10.5132 9.81055 12.0041 9.81055C13.495 9.81055 14.8049 10.5832 15.556 11.75H18.3676" stroke="#80838B" stroke-width="1.24481" stroke-miterlimit="10" stroke-linecap="round" stroke-linejoin="round"/>
<path d="M6.01562 16.3145H8.45048C9.20152 17.4813 10.5115 18.2539 12.0023 18.2539C13.4932 18.2539 14.8032 17.4813 15.5542 16.3145H17.9891" stroke="#80838B" stroke-width="1.24481" stroke-miterlimit="10" stroke-linecap="round" stroke-linejoin="round"/>
</svg>
