<svg width="49" height="49" viewBox="0 0 49 49" fill="none" xmlns="http://www.w3.org/2000/svg">
<g clip-path="url(#clip0_489_37685)">
<path d="M43.4714 14.4909H41.0911V12.6998C41.0911 12.366 40.8919 12.0644 40.5849 11.9333C35.5579 9.78738 29.373 10.6969 24.3046 14.2917C19.2364 10.6969 13.0513 9.78763 8.0245 11.9333C7.71744 12.0644 7.5183 12.366 7.5183 12.6998V14.4909H5.13801C4.67785 14.4909 4.30469 14.864 4.30469 15.3242V38.3579C4.30469 38.8181 4.67785 39.1912 5.13801 39.1912H24.3047H43.4714C43.9316 39.1912 44.3047 38.818 44.3047 38.3579V15.3243C44.3047 14.8641 43.9316 14.4909 43.4714 14.4909ZM5.97133 37.5245V16.1576H7.5183V35.7334C7.5183 36.0134 7.65888 36.2745 7.89239 36.4288C8.12598 36.583 8.42127 36.6095 8.67873 36.4998C12.5821 34.8335 17.296 35.2502 21.4799 37.5245H5.97133ZM23.4714 36.7645C20.4299 34.8264 17.0466 33.82 13.7808 33.82C12.2041 33.82 10.6551 34.0546 9.18502 34.5321V15.334C9.18502 15.3307 9.18553 15.3275 9.18553 15.3243C9.18553 15.3211 9.18511 15.3179 9.18502 15.3147V13.2634C13.6298 11.5975 19.0194 12.5291 23.4714 15.7445V36.7645ZM25.1381 15.7445C29.59 12.5291 34.9799 11.5975 39.4244 13.2634V15.3146C39.4244 15.3178 39.4239 15.321 39.4239 15.3242C39.4239 15.3274 39.4244 15.3307 39.4244 15.3339V34.5319C34.9093 33.0653 29.6478 33.8907 25.1381 36.7644V15.7445ZM42.638 37.5245H27.1294C31.3134 35.2502 36.0272 34.8336 39.9306 36.4998C40.1881 36.6098 40.4837 36.5831 40.717 36.4288C40.9506 36.2745 41.0911 36.0133 41.0911 35.7334V16.1576H42.638V37.5245Z" fill="#80838B"/>
</g>
<defs>
<clipPath id="clip0_489_37685">
<rect width="40" height="40" fill="white" transform="translate(4.30469 4.98657)"/>
</clipPath>
</defs>
</svg>
