<svg width="49" height="49" viewBox="0 0 49 49" fill="none" xmlns="http://www.w3.org/2000/svg">
<g clip-path="url(#clip0_727_8370)">
<path d="M37.8666 34.2724C38.9078 33.1555 39.5469 31.6589 39.5469 30.0149C39.5469 26.5685 36.7432 23.7649 33.2969 23.7649C29.8505 23.7649 27.0469 26.5685 27.0469 30.0149C27.0469 31.6339 27.6658 33.1106 28.679 34.222C24.9964 35.9387 22.4375 39.6755 22.4375 43.9993H25.5625C25.5625 39.7775 28.9973 36.343 33.2188 36.343C37.4402 36.343 40.875 39.7775 40.875 43.9993H44C44 39.7177 41.4911 36.0116 37.8666 34.2724ZM33.2969 26.8899C35.0199 26.8899 36.4219 28.2919 36.4219 30.0149C36.4219 31.7379 35.0199 33.1399 33.2969 33.1399C31.5739 33.1399 30.1719 31.7379 30.1719 30.0149C30.1719 28.2919 31.5739 26.8899 33.2969 26.8899ZM22.4375 9.93677H25.5625V25.5618H13.6875V22.4368H22.4375V9.93677ZM19.8008 40.3454C19.5292 41.3409 19.3662 42.3809 19.3244 43.4515C15.7694 42.604 12.5074 40.791 9.85785 38.1414C6.08038 34.364 4 29.3414 4 23.9993C4 18.6572 6.08038 13.6346 9.85785 9.85712C13.6353 6.07965 18.6579 3.99927 24 3.99927C29.3421 3.99927 34.3647 6.07965 38.1422 9.85712C41.9196 13.6346 44 18.6572 44 23.9993C44 26.6067 43.5032 29.1375 42.5565 31.4849C42.6322 31.0061 42.6719 30.5151 42.6719 30.0149C42.6719 27.9516 42.0011 26.0421 40.8674 24.4918C40.8719 24.3282 40.875 24.1641 40.875 23.9993C40.875 14.6945 33.3048 7.12427 24 7.12427C14.6952 7.12427 7.125 14.6945 7.125 23.9993C7.125 31.8551 12.5208 38.4741 19.8008 40.3454Z" fill="#80838B"/>
</g>
<defs>
<clipPath id="clip0_727_8370">
<rect width="40" height="40" fill="white" transform="translate(4 4)"/>
</clipPath>
</defs>
</svg>
