<svg width="25" height="24" viewBox="0 0 25 24" fill="none" xmlns="http://www.w3.org/2000/svg">
<g clip-path="url(#clip0_489_37010)">
<mask id="mask0_489_37010" style="mask-type:luminance" maskUnits="userSpaceOnUse" x="2" y="2" width="21" height="20">
<path d="M2.51562 2H22.5156V22H2.51562V2Z" fill="white"/>
</mask>
<g mask="url(#mask0_489_37010)">
<path d="M18.7913 12.9779C18.9843 12.9315 19.1767 12.8737 19.3677 12.8042C20.451 12.4099 21.326 11.697 21.9262 10.8101C21.8937 10.8229 21.861 10.8353 21.8279 10.8473C19.6118 11.6539 17.1613 10.5113 16.3547 8.29509C15.5481 6.07892 16.6907 3.62849 18.9069 2.82185C18.9399 2.80986 18.973 2.79834 19.0061 2.78716C17.9762 2.49353 16.8476 2.50994 15.7644 2.90419C13.0711 3.88447 11.6631 6.83283 12.5733 9.53404" stroke="#80838B" stroke-width="1.25" stroke-miterlimit="10" stroke-linecap="round" stroke-linejoin="round"/>
<path d="M17.6319 12.8203C17.1355 12.8203 16.6589 12.9047 16.2154 13.0595C15.6071 10.9362 13.6511 9.38215 11.332 9.38215C9.0652 9.38215 7.14551 10.8669 6.49199 12.9166C4.55422 13.333 3.10156 15.0554 3.10156 17.1172C3.10156 19.4903 5.02578 21.4141 7.39938 21.4141H17.6319C20.0055 21.4141 21.9297 19.4903 21.9297 17.1172C21.9297 14.7441 20.0055 12.8203 17.6319 12.8203Z" stroke="#80838B" stroke-width="1.25" stroke-miterlimit="10" stroke-linecap="round" stroke-linejoin="round"/>
<path d="M17.5421 12.8293C16.5283 12.8293 15.7928 13.1882 15.0625 13.7871" stroke="#80838B" stroke-width="1.25" stroke-miterlimit="10" stroke-linecap="round" stroke-linejoin="round"/>
</g>
</g>
<defs>
<clipPath id="clip0_489_37010">
<rect width="20" height="20" fill="white" transform="translate(2.5 2)"/>
</clipPath>
</defs>
</svg>
