<svg width="56" height="56" viewBox="0 0 56 56" fill="none" xmlns="http://www.w3.org/2000/svg">
<path d="M28 1C42.9117 1 55 13.0883 55 28C55 42.9117 42.9117 55 28 55C13.0883 55 1 42.9117 1 28C1 13.0883 13.0883 1 28 1Z" fill="white"/>
<path d="M28 1C42.9117 1 55 13.0883 55 28C55 42.9117 42.9117 55 28 55C13.0883 55 1 42.9117 1 28C1 13.0883 13.0883 1 28 1Z" stroke="#E2E8F0" stroke-width="2"/>
<path d="M39.5 28.0746C39.5 21.4093 34.1241 16 27.5 16C20.8759 16 15.5 21.4093 15.5 28.0746C15.5 34.1057 19.8872 39.1047 25.6339 40V31.5565H22.569V28.0746H25.6339V25.4135C25.6339 22.3917 27.4135 20.713 30.1571 20.713C31.467 20.713 32.8265 20.9617 32.8265 20.9617V23.9088H31.3187C29.8234 23.9088 29.3538 24.8539 29.3538 25.799V28.0622H32.6905L32.1591 31.544H29.3538V39.9876C35.1128 39.1047 39.5 34.1057 39.5 28.0746Z" fill="#1877F2"/>
<path d="M32.1721 31.4646L32.7035 28.006H29.3668V25.7579C29.3668 24.8068 29.8488 23.8804 31.3318 23.8804H32.8395V20.9406C32.8395 20.9406 31.4801 20.6936 30.1701 20.6936C27.4265 20.6936 25.6469 22.3611 25.6469 25.3627V28.006H22.582V31.4646H25.6469V39.8516C26.2525 39.9504 26.8827 39.9998 27.513 39.9998C28.1433 39.9998 28.7736 39.9504 29.3791 39.8516V31.4646H32.1721Z" fill="white"/>
</svg>
