<svg width="24" height="25" viewBox="0 0 24 25" fill="none" xmlns="http://www.w3.org/2000/svg">
<g clip-path="url(#clip0_698_8327)">
<path d="M16.6978 13.8349C19.2882 11.2453 19.2882 7.03178 16.6978 4.44221C14.1074 1.8526 9.8926 1.8526 7.30217 4.44221C4.71178 7.03178 4.71178 11.2453 7.30217 13.8349C8.39865 14.931 9.78619 15.563 11.2183 15.7312V17.9548H9.65514C9.22346 17.9548 8.87354 18.3046 8.87354 18.7362C8.87354 19.1677 9.22346 19.5175 9.65514 19.5175H11.2183V21.7186C11.2184 22.1501 11.5683 22.5 12 22.5C12.4317 22.5 12.7816 22.1501 12.7816 21.7186V19.5175H14.3449C14.7765 19.5175 15.1265 19.1677 15.1265 18.7362C15.1265 18.3046 14.7765 17.9548 14.3449 17.9548H12.7816V15.7313C14.2138 15.563 15.6013 14.931 16.6978 13.8349ZM8.40756 12.7299C6.42666 10.7496 6.42666 7.52748 8.40756 5.54721C10.3884 3.56701 13.6115 3.56689 15.5925 5.54721C17.5734 7.52748 17.5734 10.7496 15.5925 12.7299C13.6116 14.7101 10.3885 14.7101 8.40756 12.7299Z" fill="#80838B"/>
</g>
<defs>
<clipPath id="clip0_698_8327">
<rect width="20" height="20" fill="white" transform="translate(2 2.5)"/>
</clipPath>
</defs>
</svg>
