<svg width="24" height="24" viewBox="0 0 24 24" fill="none" xmlns="http://www.w3.org/2000/svg">
<path fill-rule="evenodd" clip-rule="evenodd" d="M18.6098 5.94967C18.6092 5.94967 18.611 5.94967 18.6098 5.94967H5.39568C5.24221 5.94967 5.09953 5.87006 5.01903 5.73939C4.93848 5.60879 4.93122 5.44552 5.00026 5.30827C5.34601 4.61987 5.74652 3.98108 6.19054 3.4096C6.27431 3.30153 6.40342 3.23853 6.54006 3.23853L17.4624 3.23858C17.5992 3.23858 17.7281 3.3017 17.8119 3.40966C18.2462 3.96878 18.6392 4.59257 18.9803 5.26454C19.0259 5.33419 19.0526 5.41762 19.0526 5.50725C19.0526 5.75152 18.8543 5.94967 18.6098 5.94967Z" fill="#C17D61"/>
<path fill-rule="evenodd" clip-rule="evenodd" d="M20.0327 11.2723C20.0319 11.2723 20.0339 11.2723 20.0327 11.2723H3.97382C3.85075 11.2723 3.73332 11.2211 3.64955 11.131C3.56579 11.0408 3.52338 10.9199 3.53246 10.7972C3.61002 9.74365 3.79001 8.71115 4.06761 7.72877C4.12137 7.53809 4.29538 7.40649 4.49347 7.40649L19.5099 7.40655C19.7079 7.40655 19.882 7.53815 19.9358 7.72882C20.2087 8.69538 20.3873 9.70944 20.4671 10.7442C20.4725 10.7718 20.4754 10.8004 20.4754 10.8298C20.4755 11.0742 20.2772 11.2723 20.0327 11.2723Z" fill="#C17D61"/>
<path fill-rule="evenodd" clip-rule="evenodd" d="M19.5097 16.5947H4.49331C4.29527 16.5947 4.1212 16.4631 4.06744 16.2725C3.7899 15.2896 3.60986 14.2574 3.53246 13.2038C3.52338 13.0811 3.56579 12.9602 3.64955 12.8702C3.73332 12.7799 3.85069 12.7288 3.97388 12.7288L20.0294 12.7287C20.1525 12.7287 20.2699 12.7799 20.3536 12.8701C20.4372 12.9601 20.4797 13.0811 20.4707 13.2037C20.3933 14.2573 20.2132 15.2896 19.9358 16.2724C19.8817 16.463 19.7078 16.5947 19.5097 16.5947Z" fill="#C17D61"/>
<path fill-rule="evenodd" clip-rule="evenodd" d="M17.4621 20.7622H6.53979C6.40298 20.7622 6.27404 20.6991 6.19028 20.5911C5.74647 20.0195 5.34608 19.3808 5.00016 18.6924C4.93134 18.5552 4.93838 18.3921 5.01904 18.2613C5.09971 18.1305 5.24222 18.051 5.39574 18.051L18.6065 18.0511C18.76 18.0511 18.9027 18.1307 18.9832 18.2614C19.0637 18.392 19.071 18.5552 19.0019 18.6925C18.6562 19.3809 18.2558 20.0197 17.8118 20.5911C17.728 20.699 17.5989 20.7622 17.4621 20.7622Z" fill="#C17D61"/>
<path fill-rule="evenodd" clip-rule="evenodd" d="M15.6076 5.94942H8.38025C8.24223 5.94942 8.11185 5.88503 8.02808 5.77518C7.94437 5.66545 7.91669 5.52267 7.95339 5.38957C8.08859 4.89799 8.23907 3.94445 8.40273 3.23828H9.28524C9.17457 3.60706 9.06982 4.75106 8.97143 5.06436H15.0132C14.9149 4.75127 14.8101 3.60717 14.6996 3.23834H15.5802C15.739 3.93211 15.8854 4.86445 16.0174 5.33941C16.0386 5.39101 16.0503 5.44759 16.0503 5.50672C16.0504 5.75127 15.8521 5.94942 15.6076 5.94942Z" fill="#AD6850"/>
<path fill-rule="evenodd" clip-rule="evenodd" d="M16.3895 11.272H7.60657C7.48609 11.272 7.37082 11.223 7.28739 11.136C7.20396 11.0489 7.15955 10.9319 7.16443 10.8115C7.20623 9.77247 7.30339 8.75287 7.45337 7.78129C7.48604 7.56897 7.66636 7.41134 7.88018 7.40625L16.1138 7.40631C16.3272 7.41179 16.5072 7.56919 16.5399 7.78118C16.6872 8.73588 16.7836 9.73748 16.8267 10.7586C16.8304 10.7816 16.8324 10.8053 16.8324 10.8293C16.8322 11.0739 16.634 11.272 16.3895 11.272ZM8.07102 10.3868H15.9218C15.881 9.67259 15.8134 8.97068 15.7197 8.29141H8.27333C8.17937 8.97101 8.11177 9.67275 8.07102 10.3868Z" fill="#AD6850"/>
<path fill-rule="evenodd" clip-rule="evenodd" d="M16.1023 16.5943H7.89065C7.67223 16.5943 7.4866 16.4351 7.45321 16.2193C7.3034 15.2499 7.20623 14.2304 7.16443 13.1889C7.15951 13.0685 7.20391 12.9513 7.2874 12.8644C7.37089 12.7776 7.4861 12.7284 7.60657 12.7284L16.3865 12.7284C16.5069 12.7284 16.6223 12.7775 16.7056 12.8645C16.7891 12.9515 16.8335 13.0686 16.8287 13.1889C16.7868 14.2305 16.6895 15.2502 16.5398 16.2193C16.5064 16.4349 16.3207 16.5943 16.1023 16.5943ZM8.27316 15.709H15.7198C15.8134 15.0308 15.8812 14.3289 15.9218 13.6135H8.07102C8.11176 14.3288 8.17938 15.0307 8.27316 15.709Z" fill="#AD6850"/>
<path fill-rule="evenodd" clip-rule="evenodd" d="M15.5819 20.7619H14.6994C14.8102 20.3931 14.9149 19.2489 15.0131 18.936L8.97146 18.9359C9.06968 19.2489 9.17443 20.3931 9.2851 20.7619H8.40265C8.23894 20.0555 8.0884 19.1018 7.95331 18.6106C7.91671 18.4775 7.94445 18.3348 8.02822 18.225C8.11054 18.117 8.23761 18.053 8.37314 18.0508L15.6165 18.0508C15.75 18.0545 15.8752 18.1183 15.9563 18.2249C16.0401 18.3348 16.0679 18.4774 16.0312 18.6105C15.8961 19.1019 15.7456 20.0555 15.5819 20.7619Z" fill="#AD6850"/>
<path fill-rule="evenodd" clip-rule="evenodd" d="M20.9332 13.6139H3.06127C2.82149 13.6139 2.62539 13.423 2.6188 13.1832L2.55485 10.8414C2.55159 10.722 2.59665 10.6063 2.68009 10.5207C2.76336 10.4349 2.87785 10.3867 2.99727 10.3867L20.9973 10.3867C21.1168 10.3867 21.2311 10.435 21.3145 10.5208C21.3978 10.6063 21.443 10.7221 21.4396 10.8415L21.3757 13.1833C21.3691 13.423 21.1729 13.6139 20.9332 13.6139Z" fill="#6D6D6D"/>
<path fill-rule="evenodd" clip-rule="evenodd" d="M20.1588 8.29158C20.1581 8.29158 20.16 8.29158 20.1588 8.29158H3.841C3.70065 8.29158 3.56878 8.22498 3.4854 8.11237C3.40191 7.99954 3.37672 7.85387 3.41774 7.71972L4.13239 5.37782C4.1893 5.19168 4.3611 5.06445 4.5557 5.06445H19.4409C19.6356 5.06445 19.8075 5.19168 19.8643 5.37782L20.564 7.67084C20.588 7.72527 20.6014 7.7855 20.6014 7.84884C20.6014 8.09349 20.4033 8.29158 20.1588 8.29158Z" fill="#6D6D6D"/>
<path fill-rule="evenodd" clip-rule="evenodd" d="M19.76 18.936H4.2241C4.01216 18.936 3.8299 18.7856 3.78954 18.5776L3.33616 16.2358C3.31114 16.1059 3.34519 15.9718 3.42929 15.8699C3.51333 15.768 3.63862 15.709 3.77077 15.709L20.2133 15.709C20.3453 15.709 20.4707 15.7681 20.5548 15.87C20.6389 15.9719 20.6731 16.106 20.6478 16.2357L20.1946 18.5775C20.1543 18.7856 19.972 18.936 19.76 18.936Z" fill="#6D6D6D"/>
</svg>
