<svg width="24" height="24" viewBox="0 0 24 24" fill="none" xmlns="http://www.w3.org/2000/svg">
<path opacity="0.88" d="M13.3919 3.66998C13.8037 3.36022 14.2841 3.09381 14.8111 3.07897C15.2322 3.06295 15.6431 3.27662 15.8931 3.61178C16.3216 4.19264 16.3802 4.95787 16.3169 5.65436L16.3158 5.66569C15.4853 6.18561 14.7798 6.88522 14.1599 7.63951C13.7068 8.21764 13.4197 8.90592 13.1955 9.60006C13.1794 9.51647 13.1634 9.43209 13.1685 9.34655C13.2029 8.70358 13.1872 8.04928 13.0181 7.42428C12.9103 7.02076 12.708 6.65201 12.5173 6.28326C12.3314 5.94889 12.1415 5.61412 11.9134 5.30709C11.7728 5.45045 11.6853 5.63326 11.5783 5.80123C11.3591 6.1524 11.1744 6.5235 10.997 6.89694C10.6408 7.70358 10.6255 8.60553 10.6603 9.47155C10.4068 8.836 10.1224 8.20201 9.69741 7.66061C9.24077 7.09303 8.72827 6.5692 8.15834 6.1149C7.95248 5.95592 7.74936 5.78951 7.51967 5.6653L7.51811 5.65006C7.46537 5.0278 7.51537 4.36373 7.8353 3.81295C8.05639 3.42623 8.46459 3.13951 8.91655 3.1192C9.45366 3.09303 9.956 3.35045 10.3794 3.65748C10.9818 4.10397 11.4822 4.67623 11.9048 5.29225C12.3244 4.68873 12.806 4.11881 13.3919 3.66998Z" fill="#95397B" stroke="#95397B" stroke-width="0.00367187"/>
<path opacity="0.88" d="M4.8182 5.05405C5.20452 4.87084 5.65374 4.88842 6.06038 4.98569C6.58304 5.11577 7.07054 5.35991 7.52132 5.65053L7.52288 5.66577C7.58265 6.37944 7.79202 7.07319 8.07445 7.72827C8.34906 8.36186 8.72406 8.9435 9.06624 9.54116C9.78226 10.7962 10.4842 12.0607 11.1088 13.3638C11.1975 13.5935 11.3682 13.799 11.3721 14.054C10.9893 13.331 10.6084 12.6052 10.1729 11.9119C9.62992 11.0474 9.03616 10.2033 8.29984 9.49155C7.69593 8.931 7.01976 8.44819 6.29281 8.06108C5.60648 7.70405 4.86116 7.41733 4.0807 7.381C3.96741 6.90678 3.93695 6.39819 4.08343 5.92788C4.19906 5.55522 4.45921 5.2185 4.8182 5.05405Z" fill="#A64086" stroke="#A64086" stroke-width="0.00367187"/>
<path opacity="0.88" d="M16.3152 5.65399C16.8656 5.30047 17.4738 5.00086 18.1309 4.9243C18.5324 4.87977 18.9652 4.95516 19.2844 5.21649C19.5898 5.45985 19.766 5.83368 19.825 6.21415C19.8867 6.61454 19.8496 7.02665 19.7504 7.41805C19.2129 7.42508 18.6887 7.57274 18.1906 7.76571C17.6895 7.96532 17.2121 8.22274 16.7602 8.51727C16.141 8.92586 15.5535 9.3911 15.059 9.94618C14.0996 11.0239 13.3598 12.2739 12.6797 13.5403C12.6895 13.4872 12.6957 13.4325 12.7168 13.3821C13.5062 11.747 14.3883 10.1579 15.3082 8.59266C15.825 7.69422 16.2156 6.70399 16.3141 5.66532L16.3152 5.65399Z" fill="#A64086" stroke="#A64086" stroke-width="0.00367187"/>
<path d="M11.579 5.80078C11.686 5.63281 11.7735 5.45 11.9142 5.30664C12.1423 5.61367 12.3321 5.94844 12.5181 6.28281C12.7087 6.65156 12.911 7.02031 13.0188 7.42383C13.188 8.04883 13.2036 8.70313 13.1692 9.34609C13.1642 9.43164 13.1802 9.51602 13.1962 9.59961C12.8188 10.7535 12.6079 11.957 12.4731 13.1613C12.4095 13.3102 12.3599 13.4648 12.3274 13.6238C12.1739 14.0473 12.0704 14.4887 11.8868 14.9016C11.8267 14.3082 11.7247 13.7199 11.6188 13.1332C11.3938 11.8906 11.1028 10.6559 10.661 9.47109C10.6263 8.60508 10.6415 7.70312 10.9978 6.89648C11.1751 6.52305 11.3599 6.15195 11.579 5.80078Z" fill="#A73F8A" stroke="#A73F8A" stroke-width="0.00367187"/>
<path d="M7.51562 5.66577C7.74531 5.78999 7.94844 5.9564 8.1543 6.11538C8.72422 6.56968 9.23672 7.09351 9.69336 7.66108C10.1184 8.20249 10.4027 8.83647 10.6562 9.47202C11.098 10.6568 11.3891 11.8916 11.6141 13.1341C11.7199 13.7208 11.8219 14.3091 11.882 14.9025C11.884 14.9615 11.9059 15.0166 11.9289 15.0705C11.9109 15.1087 11.8934 15.147 11.8758 15.1861C11.7496 14.7912 11.5445 14.4267 11.3648 14.0541C11.3609 13.799 11.1902 13.5935 11.1016 13.3638C10.477 12.0607 9.775 10.7962 9.05898 9.54116C8.7168 8.94351 8.3418 8.36187 8.06719 7.72827C7.78477 7.07319 7.57539 6.37944 7.51562 5.66577Z" fill="#B94695" stroke="#B94695" stroke-width="0.00367187"/>
<path d="M14.1651 7.6396C14.785 6.8853 15.4905 6.18569 16.3209 5.66577C16.2225 6.70444 15.8319 7.69468 15.3151 8.59312C14.3952 10.1583 13.5131 11.7474 12.7237 13.3826C12.7026 13.433 12.6963 13.4876 12.6866 13.5408C12.6084 13.7287 12.5038 13.9033 12.4104 14.0833C12.3889 13.7744 12.4569 13.4689 12.4776 13.1619C12.6124 11.9576 12.8233 10.7541 13.2006 9.60015C13.4249 8.90601 13.712 8.21772 14.1651 7.6396Z" fill="#B94695" stroke="#B94695" stroke-width="0.00367187"/>
<path opacity="0.88" d="M2.93389 7.66883C3.26514 7.4368 3.68155 7.36844 4.07843 7.38016C4.28038 8.25751 4.74327 9.0536 5.29757 9.75477C5.60889 10.1552 5.98077 10.502 6.34132 10.8571C7.89093 12.3481 9.53936 13.7528 11.364 14.8981C11.3714 14.9927 11.3749 15.0876 11.3737 15.1829V15.1888C9.88311 15.1841 8.43077 14.7204 7.09679 14.0821C6.32569 13.7118 5.58975 13.2708 4.88585 12.7856C4.00264 12.1708 3.21632 11.3829 2.71749 10.4216C2.45264 9.90047 2.26827 9.31336 2.3335 8.72313C2.37686 8.30946 2.58741 7.90672 2.93389 7.66883Z" fill="#BB65A0" stroke="#BB65A0" stroke-width="0.00367187"/>
<path d="M4.07812 7.37891C4.85859 7.41523 5.60391 7.70195 6.29023 8.05898C7.01719 8.44609 7.69336 8.92891 8.29727 9.48945C9.03359 10.2012 9.62734 11.0453 10.1703 11.9098C10.6059 12.6031 10.9867 13.3289 11.3695 14.052C11.5492 14.4246 11.7543 14.7891 11.8805 15.184C11.7148 15.1414 11.5426 15.1961 11.3734 15.1816C11.3746 15.0863 11.3711 14.9914 11.3637 14.8969C9.53906 13.7516 7.89062 12.3469 6.34102 10.8559C5.98047 10.5008 5.60859 10.1539 5.29727 9.75352C4.74297 9.05234 4.28008 8.25625 4.07812 7.37891Z" fill="#CF6CB1" stroke="#CF6CB1" stroke-width="0.00367187"/>
<path d="M18.193 7.76562C18.691 7.57266 19.2152 7.425 19.7527 7.41797C19.4945 8.47969 18.8777 9.42148 18.1434 10.216C16.7758 11.6 15.341 12.9203 13.816 14.1293C13.3887 14.4605 12.9555 14.7852 12.5027 15.0813C12.4398 15.1238 12.3828 15.1742 12.3254 15.2234H12.3047C12.3363 14.8891 12.3598 14.5531 12.3457 14.2172L12.3516 14.2051C12.3715 14.1648 12.3895 14.1242 12.4059 14.0828C12.4992 13.9027 12.6039 13.7281 12.682 13.5402C13.3621 12.2738 14.102 11.0238 15.0613 9.94609C15.5559 9.39102 16.1434 8.92578 16.7625 8.51719C17.2145 8.22266 17.6918 7.96523 18.193 7.76562Z" fill="#CF6CB1" stroke="#CF6CB1" stroke-width="0.00367187"/>
<path opacity="0.88" d="M19.7555 7.41809C20.1641 7.41418 20.5941 7.50598 20.9156 7.77199C21.2195 8.01848 21.3961 8.39738 21.434 8.78293C21.4887 9.32746 21.3312 9.87004 21.0984 10.3579C20.7816 11.0161 20.3148 11.5923 19.7871 12.0927C19.216 12.6333 18.5512 13.0599 17.8816 13.4665C16.9527 14.0208 15.968 14.4884 14.9336 14.8103C14.0984 15.065 13.2289 15.24 12.3527 15.2243L12.3281 15.2236C12.3855 15.1743 12.4426 15.1239 12.5055 15.0814C12.9582 14.7853 13.3914 14.4607 13.8188 14.1294C15.3438 12.9204 16.7785 11.6001 18.1461 10.2161C18.8805 9.4216 19.4973 8.47981 19.7555 7.41809Z" fill="#BB65A0" stroke="#BB65A0" stroke-width="0.00367187"/>
<path opacity="0.89" d="M12.3281 13.6227C12.3605 13.4637 12.4102 13.309 12.4738 13.1602C12.4531 13.4672 12.3852 13.7727 12.4066 14.0816C12.3902 14.123 12.3723 14.1637 12.3523 14.2039C12.3453 14.0102 12.3613 13.8148 12.3281 13.6227Z" fill="#993B7E" stroke="#993B7E" stroke-width="0.00367187"/>
<path d="M12.3312 13.6248C12.3645 13.8169 12.3484 14.0123 12.3555 14.206L12.3496 14.2181C12.1875 14.4892 12.0828 14.79 11.9375 15.0705C11.9145 15.0166 11.8926 14.9615 11.8906 14.9025C12.0742 14.4896 12.1777 14.0482 12.3312 13.6248Z" fill="#A5528C" stroke="#A5528C" stroke-width="0.00367187"/>
<path d="M11.9359 15.0691C12.0813 14.7887 12.1859 14.4879 12.348 14.2168C12.3621 14.5527 12.3387 14.8887 12.307 15.223C12.1652 15.2172 12.0207 15.2223 11.8828 15.1848C11.9004 15.1457 11.918 15.1074 11.9359 15.0691Z" fill="#CB7EB1" stroke="#CB7EB1" stroke-width="0.00367187"/>
<path d="M11.3754 15.1841C11.5445 15.1986 11.7168 15.1439 11.8824 15.1865C12.0203 15.224 12.1648 15.2189 12.3066 15.2248H12.3273L12.352 15.2255C12.3516 16.2029 12.3508 17.1802 12.3523 18.1576C12.5066 17.7533 12.8578 17.4603 13.2309 17.2619C13.5832 17.0818 13.9789 16.9423 14.3805 16.9962C14.9445 17.0666 15.4594 17.347 15.9059 17.6865C15.6477 18.3087 15.2523 18.9357 14.6258 19.2365C14.1445 19.4252 13.5969 19.4666 13.0961 19.3302C12.7902 19.2408 12.475 19.0572 12.3574 18.7447C12.3438 19.6216 12.3555 20.499 12.3516 21.3759C12.0262 21.3759 11.7004 21.3759 11.375 21.3759C11.3746 20.499 11.3754 19.622 11.3746 18.7451C11.225 19.1048 10.8422 19.2962 10.4785 19.3673C10.0199 19.4529 9.53359 19.4087 9.1 19.2361C8.47344 18.9353 8.08047 18.3084 7.82031 17.6873C8.34453 17.2904 8.97617 16.9552 9.65195 16.99C10.0934 17.0404 10.5148 17.233 10.8664 17.5021C11.0848 17.6755 11.277 17.8943 11.3746 18.1591C11.3758 17.1693 11.3742 16.1798 11.3754 15.19V15.1841Z" fill="#7DCF89" stroke="#7DCF89" stroke-width="0.00367187"/>
</svg>
