<svg width="20" height="20" viewBox="0 0 20 20" fill="none" xmlns="http://www.w3.org/2000/svg">
<g clip-path="url(#clip0_566_11179)">
<path d="M19.9992 11.1465C19.9992 13.8629 18.2433 16.0858 16.0974 16.0858H13.8081C13.2134 16.0858 12.6484 15.9151 12.1429 15.6102C10.6832 14.7314 9.90625 12.908 9.90625 11.1465C9.90625 9.85626 10.3855 8.70102 11.1302 7.95227C11.5585 7.52121 11.8952 6.97556 12.1243 6.3649C12.2894 5.92529 12.3988 5.45258 12.4473 4.96353C12.4664 4.77295 12.476 4.57947 12.476 4.38477C12.476 2.66052 13.5908 1.25 14.9528 1.25C15.6339 1.25 16.2531 1.60248 16.7021 2.17087C17.151 2.73911 17.4294 3.52264 17.4294 4.38477C17.4294 5.77026 17.9188 7.09015 18.7756 7.95227C19.1476 8.32672 19.4535 8.80264 19.6665 9.34632C19.8794 9.89029 19.9992 10.5014 19.9992 11.1465Z" fill="#35E298"/>
<path d="M14.7422 9.582C14.7119 10.5161 14.4428 11.4312 13.9834 12.2654L12.143 15.6115C10.6832 14.7328 9.90625 12.9093 9.90625 11.1479C9.90625 9.85758 10.3855 8.70233 11.1303 7.95358C11.5585 7.52252 11.8952 6.97687 12.1244 6.36621C12.2895 5.92661 12.3988 5.45389 12.4473 4.96484C13.1767 5.35638 13.955 6.08484 14.4206 7.43707C14.6606 8.13501 14.7662 8.8598 14.7422 9.582Z" fill="#1AB975"/>
<path d="M17.9737 11.317C17.9737 12.9407 16.6575 14.2571 15.0338 14.2571C13.4101 14.2571 12.0938 12.9407 12.0938 11.317C12.0938 9.69333 13.4101 8.37695 15.0338 8.37695C16.6575 8.37695 17.9737 9.69333 17.9737 11.317Z" fill="#AE583E"/>
<path d="M14.6659 8.40039C12.0708 8.72327 11.1684 12.0382 13.2289 13.6395L13.9847 12.2653C14.444 11.4311 14.7132 10.516 14.7435 9.58188C14.7565 9.18713 14.731 8.79178 14.6659 8.40039Z" fill="#7C3F2C"/>
<path d="M6.33989 3.40532C6.18624 2.70571 5.39385 0.172291 2.04592 0.748615C1.94841 0.7654 1.89394 0.870991 1.93651 0.960407C2.28334 1.68871 3.75429 4.38799 6.20287 3.6371C6.3019 3.60674 6.36202 3.50649 6.33989 3.40532Z" fill="#1ED688"/>
<path d="M6.20252 3.63886C3.75425 4.39005 2.2833 1.69077 1.93647 0.962311C1.89405 0.872742 1.94822 0.767151 2.04572 0.750519C2.33228 0.701233 2.60068 0.67453 2.85123 0.667969C3.36485 1.57419 4.51475 3.15607 6.23747 3.03415C6.28629 3.18399 6.3191 3.31262 6.33985 3.40738C6.36213 3.50855 6.30171 3.60849 6.20252 3.63886Z" fill="#1AB975"/>
<path d="M6.50662 5.63358C6.33893 5.63358 6.20312 5.49777 6.20312 5.33008V0.994904C6.20312 0.827209 6.33893 0.691406 6.50662 0.691406C6.67432 0.691406 6.81012 0.827209 6.81012 0.994904V5.33008C6.81012 5.49777 6.67432 5.63358 6.50662 5.63358Z" fill="#C0694E"/>
<path d="M12.2546 12.2652L10.1184 16.1493C9.56589 17.0545 8.30887 17.3833 7.31705 16.866C6.80878 16.601 6.20896 16.601 5.70008 16.866C4.73114 17.3714 3.4665 17.0775 2.89917 16.1493L0.762485 12.2652C-0.112606 10.6748 -0.200497 8.96838 0.325474 7.43701C0.981907 5.52889 2.26258 4.86315 3.14728 4.6332C3.55332 4.52761 3.87635 4.51388 4.01764 4.51388C4.06769 4.51388 4.09485 4.51541 4.09485 4.51541C4.49479 4.51541 4.87809 4.5827 5.23148 4.70523C5.58442 4.82791 5.90821 5.00643 6.18943 5.2286C6.28129 5.30718 6.39512 5.34686 6.50879 5.34686C6.62262 5.34686 6.7363 5.30718 6.82816 5.2286C7.10953 5.00643 7.43287 4.82791 7.78626 4.70523C8.1395 4.5827 8.5225 4.51541 8.92274 4.51541C8.92274 4.51541 11.6277 4.34298 12.6918 7.43701C13.2219 8.9783 13.125 10.685 12.2546 12.2652Z" fill="#C42D2D"/>
<path d="M12.2536 12.2652L10.1173 16.1493C9.56481 17.0545 8.3078 17.3833 7.31597 16.866C6.8077 16.601 6.20788 16.601 5.699 16.866C5.42633 17.0084 5.13458 17.0851 4.84954 17.1053C4.83322 17.0728 3.1369 13.3422 2.70431 12.3911C1.41082 9.54745 1.91238 6.37866 3.1462 4.6332C3.55224 4.52761 3.87527 4.51388 4.01657 4.51388C4.06661 4.51388 4.09377 4.51541 4.09377 4.51541C4.49371 4.51541 4.87701 4.5827 5.2304 4.70523C5.58334 4.82791 5.90713 5.00643 6.18835 5.2286C6.28021 5.30718 6.39404 5.34686 6.50772 5.34686C6.62155 5.34686 6.73522 5.30718 6.82708 5.2286C7.10845 5.00643 7.43179 4.82791 7.78518 4.70523C8.13842 4.5827 8.52142 4.51541 8.92166 4.51541C8.92166 4.51541 11.6266 4.34298 12.6907 7.43701C13.2208 8.9783 13.1239 10.685 12.2536 12.2652Z" fill="#F44545"/>
<path d="M2.65216 13.2312C2.31143 13.411 2.18097 13.8329 2.36072 14.1738C2.57175 14.5734 2.83832 14.9205 3.13327 15.221L0.806153 14.9617C0.42331 14.9192 0.0783084 15.1949 0.0355838 15.5779C-0.00698826 15.9607 0.268891 16.3057 0.651734 16.3484L2.9787 16.6077C2.62485 16.836 2.28839 17.116 1.99466 17.4593C1.74426 17.7521 1.7786 18.1925 2.07141 18.4429C2.36423 18.6933 2.8046 18.6589 3.05499 18.3661C3.85211 17.4341 5.29727 17.0343 6.52011 16.9943C7.0055 16.9786 7.32791 16.482 7.14221 16.0323C7.05829 15.8281 6.87747 15.6681 6.64951 15.6171C6.62738 15.6121 4.41638 15.0795 3.5947 13.5225C3.4148 13.1818 2.99289 13.0513 2.65216 13.2312Z" fill="#1AB975"/>
<path d="M19.9226 17.7965C19.8229 18.6902 19.0681 19.367 18.1687 19.3687C13.0122 19.3787 16.6162 19.3719 8.31659 19.3877C6.59235 19.3909 5.24896 17.8925 5.44 16.1793C5.48212 15.8028 5.59427 15.4526 5.76105 15.1394C6.25558 14.2116 7.23398 13.6094 8.30698 13.6094C8.51984 13.6094 8.73682 13.6329 8.9541 13.6828C16.2667 15.3535 16.834 15.483 17.3091 15.5915L17.9057 15.7279L18.5589 15.8773C19.2716 16.0396 19.7926 16.6163 19.9087 17.3064C19.9359 17.4647 19.9412 17.6295 19.9226 17.7965Z" fill="#FFA90B"/>
<path d="M19.9133 17.3064C19.5895 17.7299 19.0795 17.9998 18.5121 18.0006C13.356 18.0108 16.9598 18.0039 8.66037 18.0196C7.04706 18.0225 5.76761 16.7115 5.76562 15.1394C6.26016 14.2116 7.2384 13.6094 8.3114 13.6094C8.42676 13.6094 8.54303 13.6162 8.65991 13.6309C8.7591 13.6426 8.85904 13.66 8.95868 13.6828L9.25699 13.7507C16.981 15.5158 10.0952 13.9422 17.3136 15.5915L17.9101 15.7279L18.5635 15.8773C19.2762 16.0396 19.7972 16.6163 19.9133 17.3064Z" fill="#FFB52D"/>
<path d="M17.9059 15.7303L17.6756 18.0766C17.6582 18.2317 17.5271 18.3466 17.3746 18.3466C17.3631 18.3466 17.3518 18.3458 17.3405 18.3446C17.1738 18.326 17.054 18.1763 17.0721 18.0095L17.3094 15.5939L17.9059 15.7303Z" fill="#F29500"/>
<path d="M9.61169 17.4645L9.40768 19.3879L8.79688 19.3891L9.00821 17.3974C9.02683 17.2306 9.17651 17.1104 9.34329 17.129C9.51007 17.1476 9.63031 17.2977 9.61169 17.4645Z" fill="#F29500"/>
<path d="M15.1674 18.0831L15.0327 19.3767L14.4219 19.3779L14.5639 18.0159C14.5826 17.8492 14.7327 17.7294 14.8995 17.748C15.0658 17.7666 15.186 17.9163 15.1674 18.0831Z" fill="#F29500"/>
<path d="M12.7666 14.5544L12.6757 15.5738C12.6583 15.7289 12.5271 15.8439 12.3745 15.8439C12.3632 15.8439 12.3519 15.843 12.3405 15.8418C12.1737 15.8232 12.0536 15.6735 12.0722 15.5067L12.1697 14.418L12.7666 14.5544Z" fill="#F29500"/>
<path d="M11.582 18.1497L11.4544 19.3838L10.8438 19.385L10.9785 18.0826C10.9971 17.9158 11.1477 17.7955 11.314 17.8142C11.4803 17.8328 11.6006 17.9829 11.582 18.1497Z" fill="#F29500"/>
<path d="M9.253 13.7526L9.04289 15.6372C9.02549 15.7922 8.89396 15.9071 8.74138 15.9071C8.73008 15.9071 8.71879 15.9064 8.70735 15.9052C8.54072 15.8865 8.42079 15.7362 8.4394 15.5699L8.65318 13.651C8.65394 13.645 8.65486 13.6389 8.65608 13.6328C8.75511 13.6446 8.85521 13.662 8.95469 13.6847L9.253 13.7526Z" fill="#F29500"/>
</g>
<defs>
<clipPath id="clip0_566_11179">
<rect width="20" height="20" fill="white"/>
</clipPath>
</defs>
</svg>
