<svg width="56" height="56" viewBox="0 0 56 56" fill="none" xmlns="http://www.w3.org/2000/svg">
<path d="M28 1C42.9117 1 55 13.0883 55 28C55 42.9117 42.9117 55 28 55C13.0883 55 1 42.9117 1 28C1 13.0883 13.0883 1 28 1Z" fill="white"/>
<path d="M28 1C42.9117 1 55 13.0883 55 28C55 42.9117 42.9117 55 28 55C13.0883 55 1 42.9117 1 28C1 13.0883 13.0883 1 28 1Z" stroke="#E2E8F0" stroke-width="2"/>
<path fill-rule="evenodd" clip-rule="evenodd" d="M39.52 28.2727C39.52 27.4218 39.4436 26.6036 39.3018 25.8182H28V30.46H34.4582C34.18 31.96 33.3345 33.2309 32.0636 34.0818V37.0927H35.9418C38.2109 35.0036 39.52 31.9273 39.52 28.2727Z" fill="#4285F4"/>
<path fill-rule="evenodd" clip-rule="evenodd" d="M28.001 40C31.241 40 33.9573 38.9254 35.9428 37.0927L32.0646 34.0818C30.9901 34.8018 29.6155 35.2272 28.001 35.2272C24.8755 35.2272 22.2301 33.1163 21.2864 30.28H17.2773V33.3891C19.2519 37.3109 23.3101 40 28.001 40Z" fill="#34A853"/>
<path fill-rule="evenodd" clip-rule="evenodd" d="M21.2855 30.28C21.0455 29.56 20.9091 28.7909 20.9091 28C20.9091 27.2091 21.0455 26.44 21.2855 25.72V22.6109H17.2764C16.4636 24.2309 16 26.0636 16 28C16 29.9364 16.4636 31.7691 17.2764 33.3891L21.2855 30.28Z" fill="#FBBC05"/>
<path fill-rule="evenodd" clip-rule="evenodd" d="M28.001 20.7727C29.7628 20.7727 31.3446 21.3782 32.5883 22.5673L36.0301 19.1255C33.9519 17.1891 31.2355 16 28.001 16C23.3101 16 19.2519 18.6891 17.2773 22.6109L21.2864 25.72C22.2301 22.8836 24.8755 20.7727 28.001 20.7727Z" fill="#EA4335"/>
</svg>
