<svg width="24" height="24" viewBox="0 0 24 24" fill="none" xmlns="http://www.w3.org/2000/svg">
<g clip-path="url(#clip0_566_11422)">
<path d="M6.60938 3.63098H12.3975V10.9626H6.60938V3.63098Z" fill="#25D4F2"/>
<path d="M2.89062 3.63098H10.9458V10.9626H2.89062V3.63098Z" fill="#6EE2F6"/>
<path d="M9.50172 0.0137939L8.05469 3.63137H10.9487V0.375551C10.9487 0.175765 10.7868 0.0137939 10.587 0.0137939H9.50172Z" fill="#FF7A3C"/>
<path d="M4.34375 0.375551V3.63137H9.50482V0.0137939H4.70551C4.50572 0.0137939 4.34375 0.175765 4.34375 0.375551Z" fill="#FF9A42"/>
<path d="M8.05469 3.63098H10.9487V7.48973H8.05469V3.63098Z" fill="#FF5A35"/>
<path d="M4.34375 3.63098H9.50482V7.48973H4.34375V3.63098Z" fill="#FF7A3C"/>
<path d="M12.3923 6.52539H10.9453L12.3923 23.9862H13.8394C14.6386 23.9862 15.2864 23.3384 15.2864 22.5392V9.41945C15.2864 7.82111 13.9907 6.52539 12.3923 6.52539Z" fill="#6EE2F6"/>
<path d="M10.9492 6.52539H2.89406C1.29572 6.52539 0 7.82111 0 9.41945V22.5392C0 23.3384 0.647835 23.9862 1.44703 23.9862H12.3962C13.1954 23.9862 13.8433 23.3384 13.8433 22.5392L12.3962 15.9793L13.8433 9.41945C13.8433 7.82111 12.5475 6.52539 10.9492 6.52539Z" fill="#B6F1FB"/>
<path d="M12.3941 9.83901L9.5 15.9799L12.3941 22.5398H13.8411V9.42004C13.1344 9.42004 12.7501 9.6207 12.3941 9.83901Z" fill="#7CC466"/>
<path d="M10.7424 10.3847C9.19281 10.3847 9.19281 9.42004 7.64323 9.42004C6.09375 9.42004 6.09375 10.3847 4.54422 10.3847C2.99474 10.3847 2.99474 9.42004 1.44531 9.42004V22.5398H12.3945V9.83901C11.9698 10.0993 11.5853 10.3847 10.7424 10.3847Z" fill="#ADCB74"/>
<path d="M13.1189 2.90833H11.6719V4.35536H13.1189C13.5185 4.35536 13.8424 4.03141 13.8424 3.63184C13.8424 3.23227 13.5185 2.90833 13.1189 2.90833Z" fill="#6EE2F6"/>
<path d="M12.3945 3.63184C12.3945 3.23227 12.0706 2.90833 11.671 2.90833H2.16883C1.76925 2.90833 1.44531 3.23227 1.44531 3.63184C1.44531 4.03141 1.76925 4.35536 2.16883 4.35536H11.671C12.0706 4.35536 12.3945 4.03141 12.3945 3.63184Z" fill="#B6F1FB"/>
<path d="M23.6185 15.2778C18.984 15.481 15.2891 19.3026 15.2891 23.9872L23.8923 15.3839C23.8229 15.3146 23.7255 15.2731 23.6185 15.2778Z" fill="#1FB55B"/>
<path d="M23.7262 15.3842C20.3473 16.843 16.6165 20.6287 15.2891 23.9859C19.9736 23.9859 23.7952 20.2909 23.9984 15.6564C24.0031 15.5494 23.9617 15.452 23.8923 15.3827C23.8622 15.3526 23.8042 15.3505 23.7262 15.3842Z" fill="#18966A"/>
<path d="M6.96123 15.2778C11.5957 15.481 15.2907 19.3026 15.2907 23.9872L6.6875 15.384C6.75686 15.3146 6.8542 15.2731 6.96123 15.2778Z" fill="#1FB55B"/>
<path d="M6.85077 15.3842C10.2296 16.843 13.9605 20.6287 15.2879 23.9859C10.6033 23.9859 6.78169 20.2909 6.57848 15.6564C6.5738 15.5494 6.61524 15.452 6.68465 15.3827C6.71474 15.3526 6.77272 15.3505 6.85077 15.3842Z" fill="#18966A"/>
</g>
<defs>
<clipPath id="clip0_566_11422">
<rect width="24" height="24" fill="white"/>
</clipPath>
</defs>
</svg>
