<svg width="24" height="25" viewBox="0 0 24 25" fill="none" xmlns="http://www.w3.org/2000/svg">
<path d="M2.07441 11.7023L11.7288 2.96289L15.4244 4.85102C15.9869 5.58227 17.26 5.91977 18.0344 6.06227C18.0975 6.07453 18.1564 6.10281 18.2054 6.14438C18.2544 6.18595 18.2919 6.23942 18.3143 6.29966C18.3367 6.3599 18.3433 6.42489 18.3333 6.48839C18.3234 6.55188 18.2973 6.61176 18.2575 6.66227L9.46003 17.7248C7.73503 19.3485 3.91003 18.2873 2.75878 17.1304C1.08066 15.4579 0.803157 13.1235 2.07441 11.7023Z" fill="url(#paint0_linear_1699_73245)"/>
<path d="M2.09094 11.6816L11.3853 2.57093C12.5234 1.42155 14.6666 1.43468 15.3734 2.35905C15.9059 3.0603 16.2903 4.50968 15.9359 5.15843L7.67094 15.3397C9.75969 11.9984 4.96344 8.78655 2.07031 11.7022L2.09094 11.6816Z" fill="url(#paint1_linear_1699_73245)"/>
<path d="M20.3122 6.51612C16.9929 8.28382 15.6249 12.3703 17.2615 15.7973L20.5496 6.49811C20.4745 6.47161 20.3889 6.47531 20.3122 6.51612Z" fill="#1FB55B"/>
<path d="M20.4229 6.55685C18.4608 8.80444 17.0541 12.8772 17.2558 15.7969C20.6828 14.1603 22.1876 10.1222 20.7172 6.66088C20.6832 6.58094 20.6189 6.52421 20.5439 6.49772C20.5114 6.48622 20.4682 6.50492 20.4229 6.55685Z" fill="#18966A"/>
<path d="M8.12224 12.3343C11.5835 10.8639 15.6216 12.3687 17.2582 15.7956L7.95909 12.5076C7.98558 12.4326 8.04231 12.3683 8.12224 12.3343Z" fill="#1FB55B"/>
<path d="M8.08307 12.4521C11.0645 12.3389 15.1163 13.8049 17.2602 15.797C13.8332 17.4336 9.74673 16.0657 7.97899 12.7464C7.93817 12.6697 7.93448 12.584 7.96102 12.509C7.97253 12.4765 8.0142 12.4547 8.08307 12.4521Z" fill="#18966A"/>
<path d="M7.01243 11.377C8.83493 12.9576 8.35493 15.3145 6.9468 15.9145C5.8518 16.3813 4.70805 15.472 4.34805 14.8101C4.3125 14.744 4.29828 14.6685 4.30735 14.5939C4.31641 14.5194 4.34831 14.4495 4.39867 14.3938L7.01243 11.377Z" fill="url(#paint2_linear_1699_73245)"/>
<path d="M9.33952 19.9134C9.3675 19.9939 9.41745 20.0651 9.48371 20.1187C9.54997 20.1724 9.62991 20.2065 9.71452 20.2171C10.637 20.4046 12.9358 17.6446 13.5133 16.8984C13.5568 16.8418 13.6117 16.795 13.6744 16.7609C13.7371 16.7269 13.8063 16.7064 13.8775 16.7008C13.9486 16.6952 14.0202 16.7046 14.0875 16.7283C14.1548 16.7521 14.2164 16.7898 14.2682 16.8388C14.32 16.8879 14.361 16.9473 14.3884 17.0132C14.4159 17.0791 14.4292 17.15 14.4275 17.2214C14.4258 17.2927 14.4091 17.3629 14.3786 17.4275C14.348 17.492 14.3043 17.5494 14.2501 17.5959C11.747 19.769 10.8939 20.8471 9.68639 20.8978C9.28048 20.8991 8.8853 20.7674 8.56139 20.5228C8.49197 20.4764 8.43462 20.4141 8.3941 20.3411C8.35358 20.2681 8.33105 20.1865 8.32839 20.103C8.32573 20.0196 8.34301 19.9367 8.3788 19.8612C8.41459 19.7858 8.46786 19.72 8.53418 19.6693C8.6005 19.6186 8.67796 19.5844 8.76013 19.5696C8.84231 19.5548 8.92682 19.5598 9.00667 19.5842C9.08651 19.6087 9.15938 19.6518 9.21922 19.71C9.27907 19.7682 9.32416 19.8399 9.35077 19.919L9.33952 19.9134Z" fill="url(#paint3_linear_1699_73245)"/>
<path d="M14.5989 15.7325C14.406 15.3671 14.2917 14.9654 14.2633 14.5531C14.1826 13.2406 15.0133 10.8388 15.6714 10.8031C16.3295 10.7675 18.2289 13.1075 18.3301 14.4219C18.3751 14.9975 17.2501 16.4975 16.8751 16.4975C16.5001 16.4975 14.6251 15.7475 14.6251 15.7475L14.5989 15.7325Z" fill="url(#paint4_linear_1699_73245)"/>
<path d="M16.4428 20.2707C18.4622 22.4063 20.8585 22.2244 21.106 21.9582C21.3928 21.6544 21.4378 19.8788 20.0222 18.3151C19.7442 17.9858 19.4031 17.7155 19.0191 17.5201C18.0028 17.0607 16.3153 17.2482 16.1278 17.9982C15.9403 18.7482 16.4428 20.2707 16.4428 20.2707Z" fill="url(#paint5_linear_1699_73245)"/>
<path d="M18 15.0927C18.1875 14.6221 18.4837 14.2471 18.8812 14.1102C20.1225 13.6677 22.2863 13.5759 22.4813 14.2059C22.62 14.6596 22.0144 17.1121 19.8844 18.1134C18.9375 18.5596 17.4375 17.9971 17.4375 17.4346C17.4375 16.8721 18 15.0927 18 15.0927Z" fill="url(#paint6_linear_1699_73245)"/>
<path d="M16.7342 18.7913C16.7762 19.0969 16.7566 19.4079 16.6764 19.7058C16.5962 20.0037 16.4571 20.2825 16.2673 20.5257C14.8498 22.3313 13.4773 22.9463 13.1661 22.8376C12.7705 22.6988 11.9792 20.6063 13.3536 18.1763C13.8767 17.2388 14.5161 16.7194 15.4161 17.1713C16.3161 17.6232 16.6873 18.7482 16.6873 18.7482L16.7342 18.7913Z" fill="url(#paint7_linear_1699_73245)"/>
<path d="M14.2528 14.4223C12.9872 14.0473 10.2272 15.343 10.1109 15.9917C10.0284 16.4605 10.469 17.2217 12.3215 17.6792C12.9577 17.8492 13.6101 17.9517 14.2678 17.9848C15.1903 17.998 16.1278 16.873 15.9403 16.498C15.7528 16.123 16.1278 14.9698 14.2528 14.4223Z" fill="url(#paint8_linear_1699_73245)"/>
<path d="M16.4065 15.6458C16.8865 15.5502 17.2484 14.9877 17.8596 15.1114C18.4709 15.2352 18.8252 16.1427 18.9021 16.6921C18.979 17.2414 19.0446 17.9352 18.4859 18.4939C17.9627 19.0171 17.4977 18.6571 16.6952 18.7321C15.8927 18.8071 15.5384 19.1933 15.0077 18.7846C14.4771 18.3758 14.1284 17.5527 14.3177 16.9602C14.4452 16.5608 14.3702 16.0227 14.7734 15.6964C15.334 15.2371 16.0315 15.7208 16.4065 15.6458Z" fill="url(#paint9_linear_1699_73245)"/>
<path d="M16.7097 17.0969C16.7046 17.1245 16.6923 17.1502 16.6739 17.1714C16.6556 17.1926 16.6319 17.2085 16.6053 17.2175C16.5787 17.2265 16.5502 17.2282 16.5228 17.2225C16.4953 17.2168 16.4699 17.2039 16.4491 17.185C16.061 16.8231 15.9372 16.0394 16.2729 15.5988C16.2966 15.5679 16.3316 15.5476 16.3702 15.5424C16.4088 15.5371 16.4479 15.5473 16.4791 15.5706C16.5579 15.6381 16.8054 16.5494 16.7097 17.0969Z" fill="#FFF8E9"/>
<defs>
<linearGradient id="paint0_linear_1699_73245" x1="6.31003" y1="7.46664" x2="13.0188" y2="14.1735" gradientUnits="userSpaceOnUse">
<stop stop-color="#996666"/>
<stop offset="0.2" stop-color="#9E6C6A"/>
<stop offset="0.48" stop-color="#AA7D76"/>
<stop offset="0.79" stop-color="#C09989"/>
<stop offset="1" stop-color="#D1B099"/>
</linearGradient>
<linearGradient id="paint1_linear_1699_73245" x1="7.73469" y1="6.03781" x2="12.3528" y2="10.6559" gradientUnits="userSpaceOnUse">
<stop stop-color="#DEBBA2"/>
<stop offset="0.25" stop-color="#DAB59E"/>
<stop offset="0.59" stop-color="#D0A492"/>
<stop offset="0.98" stop-color="#BE887F"/>
<stop offset="1" stop-color="#BD867E"/>
</linearGradient>
<linearGradient id="paint2_linear_1699_73245" x1="5.46368" y1="12.9257" x2="7.79243" y2="15.2563" gradientUnits="userSpaceOnUse">
<stop stop-color="#8C4E4B"/>
<stop offset="0.31" stop-color="#915450"/>
<stop offset="0.72" stop-color="#9E655E"/>
<stop offset="1" stop-color="#AB756C"/>
</linearGradient>
<linearGradient id="paint3_linear_1699_73245" x1="8.65702" y1="20.6746" x2="14.4939" y2="17.3034" gradientUnits="userSpaceOnUse">
<stop stop-color="#AC7771"/>
<stop offset="0.74" stop-color="#B99981"/>
</linearGradient>
<linearGradient id="paint4_linear_1699_73245" x1="14.507" y1="11.4294" x2="17.3083" y2="16.2819" gradientUnits="userSpaceOnUse">
<stop stop-color="#FFF8E1"/>
<stop offset="0.61" stop-color="#FFEAB0"/>
<stop offset="1" stop-color="#FFD7AF"/>
</linearGradient>
<linearGradient id="paint5_linear_1699_73245" x1="16.4728" y1="17.5332" x2="21.0047" y2="22.0632" gradientUnits="userSpaceOnUse">
<stop stop-color="#FFEAAF"/>
<stop offset="0.58" stop-color="#FFF7DC"/>
<stop offset="1" stop-color="#FFE2BB"/>
</linearGradient>
<linearGradient id="paint6_linear_1699_73245" x1="22.5375" y1="14.2884" x2="17.31" y2="17.3071" gradientUnits="userSpaceOnUse">
<stop stop-color="#FFF8E1"/>
<stop offset="0.74" stop-color="#FFE7B8"/>
</linearGradient>
<linearGradient id="paint7_linear_1699_73245" x1="14.6661" y1="17.0063" x2="14.6661" y2="22.8488" gradientUnits="userSpaceOnUse">
<stop stop-color="#FFEAAF"/>
<stop offset="0.58" stop-color="#FFF7DC"/>
<stop offset="1" stop-color="#FFE2BB"/>
</linearGradient>
<linearGradient id="paint8_linear_1699_73245" x1="11.4984" y1="14.4917" x2="14.9559" y2="17.9492" gradientUnits="userSpaceOnUse">
<stop stop-color="#FFF8E1"/>
<stop offset="0.74" stop-color="#FFE1B1"/>
</linearGradient>
<linearGradient id="paint9_linear_1699_73245" x1="16.6052" y1="18.9683" x2="16.6052" y2="15.0946" gradientUnits="userSpaceOnUse">
<stop stop-color="#FFCA98"/>
<stop offset="0.06" stop-color="#FFCF92"/>
<stop offset="0.23" stop-color="#FFD985"/>
<stop offset="0.38" stop-color="#FFDD80"/>
<stop offset="0.58" stop-color="#FFE798"/>
<stop offset="1" stop-color="#FFFFD4"/>
</linearGradient>
</defs>
</svg>
