<svg width="25" height="24" viewBox="0 0 25 24" fill="none" xmlns="http://www.w3.org/2000/svg">
<g clip-path="url(#clip0_489_36807)">
<path d="M11.9219 16.1211H13.0898V20.8086H11.9219V16.1211Z" fill="white"/>
<path d="M7.23438 16.1211H8.40625V17.293H7.23438V16.1211Z" fill="white"/>
<path d="M2.6875 12.684H9.88957L12.0787 10.4568C12.3082 10.2234 12.6848 10.2233 12.9143 10.4567L15.1047 12.684H22.3057L20.2763 6.56213H4.71684L2.6875 12.684Z" fill="white"/>
<path d="M17.7812 5.38984V3.77734C17.7812 3.45375 17.5189 3.19141 17.1953 3.19141H14.8516C14.528 3.19141 14.2656 3.45375 14.2656 3.77734V5.38984H17.7812Z" fill="white"/>
<path d="M21.9141 19.6375H21.2695V13.8562H14.8625C14.7055 13.8562 14.5549 13.7931 14.4448 13.6812L12.5001 11.7037L10.5565 13.681C10.4464 13.7931 10.2958 13.8562 10.1387 13.8562H3.73047V19.6375H3.08594C2.76234 19.6375 2.5 19.8998 2.5 20.2234C2.5 20.547 2.76234 20.8094 3.08594 20.8094H10.7441V15.5359C10.7441 15.2123 11.0065 14.95 11.3301 14.95H13.6699C13.9935 14.95 14.2559 15.2123 14.2559 15.5359V20.8094H21.9141C22.2377 20.8094 22.5 20.547 22.5 20.2234C22.5 19.8998 22.2377 19.6375 21.9141 19.6375ZM9.57227 17.8797C9.57227 18.2033 9.30992 18.4656 8.98633 18.4656H6.64258C6.31898 18.4656 6.05664 18.2033 6.05664 17.8797V15.5359C6.05664 15.2123 6.31898 14.95 6.64258 14.95H8.98633C9.30992 14.95 9.57227 15.2123 9.57227 15.5359V17.8797ZM18.9473 17.8797C18.9473 18.2033 18.6849 18.4656 18.3613 18.4656H16.0176C15.694 18.4656 15.4316 18.2033 15.4316 17.8797V15.5359C15.4316 15.2123 15.694 14.95 16.0176 14.95H18.3613C18.6849 14.95 18.9473 15.2123 18.9473 15.5359V17.8797Z" fill="white"/>
<path d="M16.6094 16.1211H17.7812V17.293H16.6094V16.1211Z" fill="white"/>
</g>
<defs>
<clipPath id="clip0_489_36807">
<rect width="20" height="20" fill="white" transform="translate(2.5 2)"/>
</clipPath>
</defs>
</svg>
