<svg width="25" height="25" viewBox="0 0 25 25" fill="none" xmlns="http://www.w3.org/2000/svg">
<path d="M18.6562 10.1563H18.3339C18.1969 8.81215 17.6003 7.55648 16.645 6.60113C15.6896 5.64578 14.4339 5.04924 13.0898 4.91218V4.8718L17.2632 4.2913C17.4171 4.2699 17.5563 4.18823 17.65 4.06427C17.7437 3.9403 17.7843 3.78418 17.7629 3.63026C17.7415 3.47634 17.6598 3.33722 17.5359 3.24352C17.4119 3.14981 17.2558 3.10919 17.1019 3.13058L12.4232 3.78132C12.2832 3.80081 12.1549 3.87029 12.062 3.97695C11.9691 4.08361 11.918 4.22026 11.918 4.36168V4.91218C10.5739 5.04924 9.3182 5.64578 8.36284 6.60113C7.40749 7.55648 6.81095 8.81215 6.67389 10.1563H6.35156C6.19616 10.1563 6.04713 10.218 5.93724 10.3279C5.82736 10.4378 5.76562 10.5868 5.76562 10.7422C5.76562 10.8976 5.82736 11.0466 5.93724 11.1565C6.04713 11.2664 6.19616 11.3281 6.35156 11.3281H6.68484L7.39927 21.3308C7.40987 21.4786 7.47605 21.6169 7.5845 21.7179C7.69295 21.8188 7.83561 21.875 7.98378 21.875H17.0239C17.1721 21.875 17.3147 21.8188 17.4232 21.7179C17.5316 21.6169 17.5978 21.4786 17.6084 21.3308L18.323 11.3281H18.6562C18.8117 11.3281 18.9607 11.2664 19.0706 11.1565C19.1805 11.0466 19.2422 10.8976 19.2422 10.7422C19.2422 10.5868 19.1805 10.4378 19.0706 10.3279C18.9607 10.218 18.8117 10.1563 18.6562 10.1563ZM12.5039 6.05469C13.6453 6.05614 14.747 6.47334 15.603 7.22824C16.459 7.98315 17.0108 9.02405 17.1549 10.1563H7.85288C7.99706 9.02405 8.54876 7.98315 9.4048 7.22824C10.2608 6.47334 11.3626 6.05614 12.5039 6.05469ZM16.4783 20.7031H8.52938L7.85975 11.3281H17.148L16.4783 20.7031Z" fill="#80838B"/>
<path d="M8.67166 14.7522L10.576 16.6565C10.6304 16.7109 10.6949 16.7541 10.766 16.7835C10.8371 16.813 10.9133 16.8281 10.9902 16.8281C11.0672 16.8281 11.1434 16.813 11.2145 16.7835C11.2855 16.7541 11.3501 16.7109 11.4045 16.6565L13.3088 14.7522C13.3632 14.6978 13.4064 14.6332 13.4359 14.5621C13.4653 14.491 13.4805 14.4148 13.4805 14.3379C13.4805 14.2609 13.4653 14.1848 13.4359 14.1137C13.4064 14.0426 13.3632 13.978 13.3088 13.9236L11.4045 12.0193C11.3501 11.9649 11.2855 11.9217 11.2145 11.8923C11.1434 11.8628 11.0672 11.8477 10.9902 11.8477C10.9133 11.8477 10.8371 11.8628 10.766 11.8923C10.6949 11.9217 10.6304 11.9649 10.576 12.0193L8.67166 13.9236C8.61724 13.978 8.57407 14.0426 8.54462 14.1137C8.51516 14.1848 8.5 14.2609 8.5 14.3379C8.5 14.4148 8.51516 14.491 8.54462 14.5621C8.57407 14.6332 8.61724 14.6978 8.67166 14.7522ZM10.9902 13.2623L12.0658 14.3379L10.9902 15.4135L9.91464 14.3379L10.9902 13.2623Z" fill="#80838B"/>
<path d="M12.1092 17.8947L13.7205 19.5061C13.7749 19.5605 13.8395 19.6037 13.9105 19.6331C13.9816 19.6626 14.0578 19.6777 14.1348 19.6777C14.2117 19.6777 14.2879 19.6626 14.359 19.6331C14.4301 19.6037 14.4946 19.5605 14.549 19.5061L16.1604 17.8947C16.2148 17.8404 16.258 17.7758 16.2874 17.7047C16.3169 17.6336 16.332 17.5574 16.332 17.4805C16.332 17.4035 16.3169 17.3273 16.2874 17.2563C16.258 17.1852 16.2148 17.1206 16.1604 17.0662L14.549 15.4549C14.4946 15.4004 14.4301 15.3573 14.359 15.3278C14.2879 15.2984 14.2117 15.2832 14.1348 15.2832C14.0578 15.2832 13.9816 15.2984 13.9105 15.3278C13.8395 15.3573 13.7749 15.4004 13.7205 15.4549L12.1092 17.0662C12.0547 17.1206 12.0116 17.1852 11.9821 17.2563C11.9527 17.3273 11.9375 17.4035 11.9375 17.4805C11.9375 17.5574 11.9527 17.6336 11.9821 17.7047C12.0116 17.7758 12.0547 17.8404 12.1092 17.8947ZM14.1348 16.6978L14.9174 17.4805L14.1348 18.2631L13.3521 17.4805L14.1348 16.6978Z" fill="#80838B"/>
</svg>
