<svg width="24" height="25" viewBox="0 0 24 25" fill="none" xmlns="http://www.w3.org/2000/svg">
<g clip-path="url(#clip0_911_8912)">
<path d="M21.3844 19.387H2.63969C2.29935 19.387 2.02344 19.6629 2.02344 20.0032C2.02344 20.3435 2.29935 20.6195 2.63969 20.6195H21.3844C21.7248 20.6195 22.0007 20.3435 22.0007 20.0032C22.0007 19.6629 21.7248 19.387 21.3844 19.387Z" fill="#80838B"/>
<path d="M5.53681 13.5538C5.68964 13.7393 5.93647 13.8191 6.16884 13.758L10.2484 12.6879L9.89961 15.3515C9.87233 15.5594 9.95277 15.7671 10.1132 15.9024C10.2258 15.9976 10.3671 16.0478 10.5107 16.0478C10.5714 16.0478 10.6325 16.0388 10.692 16.0205L12.8476 15.3566C12.9825 15.315 13.099 15.2285 13.1777 15.1114L15.8831 11.086L18.1477 10.1481C19.406 9.62685 20.3608 9.08496 20.9854 8.53748C22.0866 7.57244 22.0402 6.69966 21.8073 6.13756C21.5946 5.62402 21.0759 5.01196 19.8127 5.01196C18.9429 5.01196 17.7892 5.30719 16.3837 5.88942L7.36017 9.62693L4.76338 7.78747C4.59 7.66463 4.36569 7.63981 4.16956 7.72173L2.37874 8.46986C2.19879 8.54504 2.06511 8.70091 2.01811 8.89014C1.97119 9.07945 2.01663 9.27969 2.14062 9.43022L5.53681 13.5538ZM4.32962 8.99063L6.92542 10.8294C7.09839 10.9518 7.32196 10.9768 7.51752 10.8958L16.8553 7.028C18.0929 6.51536 19.1155 6.24438 19.8126 6.24438C20.5175 6.24438 20.6273 6.50937 20.6686 6.60912C20.7112 6.71199 20.841 7.02521 20.1731 7.61056C19.6572 8.06264 18.7937 8.54644 17.6759 9.00937L15.2396 10.0185C15.1275 10.065 15.0316 10.1434 14.9639 10.2442L12.2764 14.2429L11.2462 14.5601L11.5894 11.9393C11.616 11.7359 11.5397 11.5325 11.3857 11.397C11.2718 11.2966 11.1265 11.2431 10.9782 11.2431C10.926 11.2431 10.8735 11.2497 10.8219 11.2633L6.23744 12.4659L3.61953 9.28725L4.32962 8.99063Z" fill="#80838B"/>
</g>
<defs>
<clipPath id="clip0_911_8912">
<rect width="20" height="20" fill="white" transform="translate(2 2.8147)"/>
</clipPath>
</defs>
</svg>
