<svg width="24" height="24" viewBox="0 0 24 24" fill="none" xmlns="http://www.w3.org/2000/svg">
<g clip-path="url(#clip0_593_10274)">
<path d="M12 14.4609C13.3591 14.4609 14.4609 13.3591 14.4609 12C14.4609 10.6409 13.3591 9.53906 12 9.53906C10.6409 9.53906 9.53906 10.6409 9.53906 12C9.53906 13.3591 10.6409 14.4609 12 14.4609Z" fill="#7D6151"/>
<path d="M12 0.28125C5.52792 0.28125 0.28125 5.52792 0.28125 12C0.28125 18.4721 5.52792 23.7188 12 23.7188C18.4721 23.7188 23.7188 18.4721 23.7188 12C23.7188 5.52792 18.4721 0.28125 12 0.28125ZM19.2402 14.9784C19.184 16.0926 18.8709 17.1912 18.059 17.9945C17.2392 18.8055 16.1353 19.1076 15.0105 19.1633H8.98959C7.86459 19.1076 6.76087 18.8056 5.94108 17.9945C5.12911 17.1912 4.81608 16.0926 4.75983 14.9784V9.02156C4.81608 7.90744 5.12916 6.80878 5.94108 6.00544C6.76087 5.1945 7.86473 4.89234 8.98959 4.8367H15.0104C16.1354 4.89234 17.2391 5.19436 18.0589 6.00544C18.8709 6.80878 19.1839 7.90744 19.2402 9.02156L19.2402 14.9784Z" fill="#7D6151"/>
<path d="M14.9342 6.19398C13.4677 6.15376 10.5324 6.15376 9.06587 6.19398C8.3027 6.21494 7.43753 6.40492 6.89378 6.9857C6.32875 7.5894 6.11523 8.31878 6.09358 9.13473C6.05551 10.5669 6.09358 14.8653 6.09358 14.8653C6.11837 15.6812 6.32875 16.4106 6.89378 17.0143C7.43753 17.5953 8.3027 17.7851 9.06587 17.806C10.5324 17.8463 13.4677 17.8463 14.9342 17.806C15.6974 17.7851 16.5626 17.5951 17.1063 17.0143C17.6714 16.4106 17.8849 15.6812 17.9065 14.8653V9.13473C17.8849 8.31878 17.6714 7.5894 17.1063 6.9857C16.5624 6.40473 15.6972 6.21494 14.9342 6.19398ZM11.9999 15.8145C11.2454 15.8145 10.508 15.5908 9.88068 15.1716C9.25339 14.7525 8.76449 14.1567 8.47578 13.4597C8.18707 12.7627 8.11153 11.9958 8.25871 11.2559C8.4059 10.5159 8.76919 9.83625 9.30265 9.30279C9.83611 8.76933 10.5158 8.40604 11.2557 8.25885C11.9956 8.11167 12.7626 8.18721 13.4596 8.47592C14.1566 8.76463 14.7523 9.25353 15.1715 9.88082C15.5906 10.5081 15.8143 11.2456 15.8143 12C15.8143 13.0117 15.4124 13.9819 14.6971 14.6972C13.9818 15.4126 13.0115 15.8145 11.9999 15.8145ZM15.8305 8.97292C15.6797 8.97288 15.5322 8.92811 15.4068 8.84426C15.2813 8.76041 15.1836 8.64125 15.1259 8.50185C15.0681 8.36244 15.0531 8.20906 15.0825 8.06108C15.112 7.91311 15.1847 7.77719 15.2914 7.67052C15.3981 7.56384 15.534 7.4912 15.682 7.46178C15.83 7.43236 15.9833 7.44748 16.1227 7.50523C16.2621 7.56297 16.3812 7.66076 16.4651 7.78621C16.5489 7.91166 16.5936 8.05915 16.5936 8.21003C16.5936 8.31023 16.5739 8.40945 16.5355 8.50202C16.4972 8.59459 16.441 8.6787 16.3701 8.74954C16.2993 8.82038 16.2151 8.87657 16.1225 8.9149C16.03 8.95323 15.9307 8.97294 15.8305 8.97292Z" fill="#7D6151"/>
</g>
<defs>
<clipPath id="clip0_593_10274">
<rect width="24" height="24" fill="white"/>
</clipPath>
</defs>
</svg>
