<svg width="28" height="28" viewBox="0 0 28 28" fill="none" xmlns="http://www.w3.org/2000/svg">
<mask id="mask0_2016_101794" style="mask-type:alpha" maskUnits="userSpaceOnUse" x="0" y="0" width="28" height="28">
<rect x="0.015625" y="17.2617" width="20" height="20" transform="rotate(-57.9765 0.015625 17.2617)" fill="#D9D9D9"/>
</mask>
<g mask="url(#mask0_2016_101794)">
<path d="M15.825 20.2705C15.0885 21.4481 14.0503 22.1912 12.7105 22.5C11.3707 22.8087 10.112 22.5948 8.93447 21.8584C7.75692 21.1219 7.01378 20.0837 6.70504 18.7439C6.3963 17.4041 6.61016 16.1454 7.34665 14.9679C7.83272 14.1907 8.47259 13.5998 9.26624 13.1952C10.0599 12.7906 10.8925 12.5987 11.764 12.6196L16.5364 4.98913L20.7756 7.64047L19.8918 9.05352L22.0114 10.3792L19.3601 14.6183L17.2405 13.2927L16.0032 15.2709C16.4034 16.0455 16.5953 16.8781 16.5788 17.7687C16.5623 18.6594 16.311 19.4934 15.825 20.2705ZM14.4119 19.3868C14.898 18.6096 15.0499 17.8364 14.8676 17.0671C14.6852 16.2978 14.3939 15.7224 13.9936 15.341L16.7112 10.9958L18.8308 12.3215L19.7146 10.9085L17.595 9.58279L18.4788 8.16974L17.0657 7.28596L12.5805 14.4572C12.0624 14.2642 11.4176 14.254 10.6461 14.4268C9.87456 14.5995 9.24578 15.0745 8.7597 15.8517C8.27362 16.6288 8.13423 17.4672 8.34153 18.3668C8.54883 19.2664 9.04107 19.9592 9.81824 20.4453C10.5954 20.9314 11.4338 21.0708 12.3334 20.8635C13.233 20.6562 13.9258 20.1639 14.4119 19.3868ZM12.9989 18.503C13.2419 18.1144 13.3116 17.6952 13.2079 17.2454C13.1043 16.7956 12.8582 16.4492 12.4696 16.2062C12.081 15.9631 11.6618 15.8934 11.212 15.9971C10.7622 16.1007 10.4158 16.3468 10.1727 16.7354C9.92971 17.124 9.86002 17.5432 9.96366 17.993C10.0673 18.4428 10.3134 18.7892 10.702 19.0323C11.0906 19.2753 11.5098 19.345 11.9596 19.2413C12.4094 19.1377 12.7558 18.8916 12.9989 18.503Z" fill="#1C1B1F"/>
</g>
</svg>
