<svg width="24" height="25" viewBox="0 0 24 25" fill="none" xmlns="http://www.w3.org/2000/svg">
<path d="M18.7575 7.47852L17.5173 22.4993H6.48244L5.24219 7.47852" stroke="#80838B" stroke-width="1.24481" stroke-miterlimit="10" stroke-linecap="round" stroke-linejoin="round"/>
<path d="M18.1913 4.98963H5.8125L7.05731 2.5H16.9465L18.1913 4.98963Z" stroke="#80838B" stroke-width="1.24481" stroke-miterlimit="10" stroke-linecap="round" stroke-linejoin="round"/>
<path d="M18.4242 4.99023H5.57848C4.72827 4.99023 4.03906 5.67945 4.03906 6.52965V7.47986H19.9637V6.52965C19.9637 5.67945 19.2744 4.99023 18.4242 4.99023Z" stroke="#80838B" stroke-width="1.24481" stroke-miterlimit="10" stroke-linecap="round" stroke-linejoin="round"/>
<path d="M5.64062 12.25H8.45224C9.20328 11.0832 10.5132 10.3105 12.0041 10.3105C13.495 10.3105 14.8049 11.0832 15.556 12.25H18.3676" stroke="#80838B" stroke-width="1.24481" stroke-miterlimit="10" stroke-linecap="round" stroke-linejoin="round"/>
<path d="M6.01562 16.8145H8.45048C9.20152 17.9813 10.5115 18.7539 12.0023 18.7539C13.4932 18.7539 14.8032 17.9813 15.5542 16.8145H17.9891" stroke="#80838B" stroke-width="1.24481" stroke-miterlimit="10" stroke-linecap="round" stroke-linejoin="round"/>
</svg>
