<svg width="24" height="24" viewBox="0 0 24 24" fill="none" xmlns="http://www.w3.org/2000/svg">
<g clip-path="url(#clip0_566_11353)">
<path d="M17.5212 9.02081L14.9755 6.76554C14.944 6.73762 14.926 6.69754 14.926 6.65543V6.47873L14.4549 5.46094L11.4567 5.53753L11.1611 6.47868V6.65538C11.1611 6.69749 11.1431 6.73758 11.1116 6.76549L8.56594 9.02076C8.44039 9.13231 8.37085 9.29312 8.37519 9.4607L8.57415 16.7552V22.8006C8.57415 23.4409 9.08716 23.9632 9.72736 23.9746L11.1935 24.0008H16.1617C16.804 24.0008 17.3294 23.4894 17.3473 22.8472L17.7119 9.4607C17.7163 9.29317 17.6467 9.13236 17.5212 9.02081Z" fill="#FED402"/>
<path d="M17.6945 10.0723L17.3748 21.797H12.0323H8.57317V16.7563L8.39062 10.0723H8.39111H17.5873H17.6945Z" fill="#AA9EA9"/>
<path d="M10.4466 10.0717L10.0809 9.53906H8.87378L8.39062 10.0717L8.57085 16.6794L8.57293 16.7558V21.7965H10.6289V16.7558L10.4466 10.0717Z" fill="#9B8E99"/>
<path d="M10.5582 13.8665L10.025 12.735C9.96219 12.6017 10.0219 12.4423 10.157 12.3834C12.1679 11.5062 14.1466 11.5076 16.046 12.3876C16.18 12.4496 16.2356 12.6111 16.1691 12.7429L15.6056 13.8598C15.5423 13.9852 15.3914 14.0375 15.2636 13.9793C13.8488 13.3358 12.416 13.3409 10.898 13.9947C10.7686 14.0504 10.6182 13.994 10.5582 13.8665Z" fill="#F9F7F8"/>
<path d="M10.025 12.7338L10.5517 13.8516L10.5077 12.2383C10.3909 12.2834 10.274 12.3311 10.157 12.3822C10.0219 12.4411 9.96219 12.6004 10.025 12.7338Z" fill="#EFEDEF"/>
<path d="M12.9887 18.9032C14.0698 18.9032 14.9462 18.0268 14.9462 16.9457C14.9462 15.8647 14.0698 14.9883 12.9887 14.9883C11.9076 14.9883 11.0312 15.8647 11.0312 16.9457C11.0312 18.0268 11.9076 18.9032 12.9887 18.9032Z" fill="#9B8E99"/>
<path d="M11.9157 16.7539H6.56015C6.40127 16.7539 6.27475 16.8857 6.28151 17.0446L6.41074 20.0392L6.73704 21.2225H11.1383L12.0649 20.0392L12.1939 17.0446C12.2006 16.8857 12.0741 16.7539 11.9157 16.7539Z" fill="#D4F2F6"/>
<path d="M8.34767 23.3008L8.07772 17.0446C8.07096 16.8857 8.19748 16.7539 8.35636 16.7539H6.56015C6.40127 16.7539 6.27475 16.8857 6.28151 17.0446L6.55146 23.3008C6.56836 23.6915 6.88998 23.9996 7.28115 23.9996H9.07736C8.68619 23.9996 8.36457 23.6915 8.34767 23.3008Z" fill="#A6E7F0"/>
<path d="M12.0602 20.041L11.9197 23.3026C11.9028 23.6933 11.5812 24.0014 11.19 24.0014H7.27647C6.8853 24.0014 6.56368 23.6933 6.54678 23.3026L6.40625 20.041H6.55837H11.8714H12.0602Z" fill="#FEE45A"/>
<path d="M7.27647 23.9995H9.07267C8.68151 23.9995 8.35989 23.6914 8.34299 23.3007L8.20227 20.0391H6.55837H6.40625L6.54499 23.2591L6.54678 23.3007C6.54963 23.3667 6.56185 23.4301 6.58097 23.4903C6.59014 23.5192 6.60038 23.5475 6.61289 23.5747C6.63221 23.6166 6.65539 23.6564 6.6819 23.6934C6.69518 23.712 6.70928 23.7299 6.7242 23.7471C6.8584 23.902 7.05645 23.9995 7.27647 23.9995Z" fill="#FEDF30"/>
<path d="M10.4479 10.0698L10.4312 9.45935C10.4269 9.29178 10.4964 9.13097 10.622 9.01942L12.8207 7.07152C12.9997 6.91288 13.1241 6.70508 13.1813 6.47734L12.9218 6.08594H11.5052L11.1611 6.47734V6.65404C11.1611 6.69615 11.1431 6.73623 11.1116 6.76415L8.56594 9.01942C8.44039 9.13097 8.37085 9.29178 8.37519 9.45935L8.39185 10.0698H10.4479Z" fill="#FAC600"/>
<path d="M14.9211 2.8418V6.47913H14.8728H11.2045H11.1562V2.8418H14.9211Z" fill="#EFEDEF"/>
<path d="M13.1842 6.47717C13.2076 6.38421 13.2201 6.28801 13.2201 6.19037V2.83984H11.1641V6.47717H11.2124H13.1842Z" fill="#E5E1E5"/>
<path d="M14.1169 0H11.9698C11.2962 0 10.75 0.546179 10.75 1.21985V3.20995C10.75 3.32585 10.8437 3.42002 10.9596 3.42002H15.1272C15.2431 3.42002 15.3367 3.32585 15.3367 3.20995V1.21985C15.3367 0.546179 14.7906 0 14.1169 0Z" fill="#FCCD7F"/>
<path d="M14.4356 2.44264C13.4079 2.44264 12.5747 1.60951 12.5747 0.58177V0.242473C12.5747 0.159459 12.5831 0.0783774 12.5989 0H11.9698C11.2961 0 10.75 0.546131 10.75 1.21985V3.20995C10.75 3.32594 10.8441 3.42002 10.9601 3.42002H15.1272C15.2429 3.42002 15.3367 3.32619 15.3367 3.21043V2.44259L14.4356 2.44264Z" fill="#FBC56D"/>
<path d="M14.1169 0C14.7906 0 15.3367 0.546179 15.3367 1.21985H10.75C10.75 0.546179 11.2962 0 11.9698 0H14.1169Z" fill="#FBC56D"/>
<path d="M12.5747 0.58177V0.242473C12.5747 0.159459 12.5831 0.0783774 12.5989 0H11.9698C11.2962 0 10.75 0.546179 10.75 1.21985H12.6871C12.6144 1.02084 12.5747 0.80594 12.5747 0.58177Z" fill="#E9B665"/>
</g>
<defs>
<clipPath id="clip0_566_11353">
<rect width="24" height="24" fill="white"/>
</clipPath>
</defs>
</svg>
