<svg width="40" height="40" viewBox="0 0 40 40" fill="none" xmlns="http://www.w3.org/2000/svg">
<path d="M34.3454 9.11109C33.0981 6.45523 31.1718 4.20695 28.7748 2.6093C26.2137 0.902265 23.1797 0 20.0008 0C16.8219 0 13.7879 0.902265 11.2268 2.60922C8.82973 4.20687 6.90348 6.45523 5.65621 9.11102C4.40895 11.7669 3.90902 14.685 4.21035 17.5498C4.53231 20.6107 5.77551 23.5216 7.80567 25.9679L19.099 39.5764C19.3217 39.8447 19.6522 39.9999 20.0008 39.9999C20.3494 39.9999 20.68 39.8447 20.9026 39.5764L32.196 25.968C34.2261 23.5217 35.4693 20.6108 35.7913 17.5499C36.0926 14.685 35.5926 11.767 34.3454 9.11109ZM30.3924 24.4712L20.0008 36.9931L9.60926 24.4712C6.23067 20.4 5.52887 14.8961 7.77777 10.1073C10.0266 5.31859 14.7102 2.34375 20.0008 2.34375C25.2914 2.34375 29.975 5.31859 32.2239 10.1073C34.4728 14.8961 33.771 20.4 30.3924 24.4712Z" fill="#80838B"/>
<path d="M25.4688 11.3281H24.6875V10.9375C24.6875 10.2903 24.1628 9.76562 23.5156 9.76562H14.1406C13.4934 9.76562 12.9688 10.2903 12.9688 10.9375V17.1875C12.9688 19.5568 14.8963 21.4844 17.2656 21.4844H20.3906C22.6282 21.4844 24.4709 19.7649 24.6689 17.5781H25.4688C27.1919 17.5781 28.5938 16.1762 28.5938 14.4531C28.5938 12.73 27.1919 11.3281 25.4688 11.3281ZM22.3438 17.1875C22.3438 18.2645 21.4676 19.1406 20.3906 19.1406H17.2656C16.1887 19.1406 15.3125 18.2645 15.3125 17.1875V12.1094H22.3438V17.1875ZM25.4688 15.2344H24.6875V13.6719H25.4688C25.8995 13.6719 26.25 14.0223 26.25 14.4531C26.25 14.8839 25.8995 15.2344 25.4688 15.2344Z" fill="#80838B"/>
</svg>
