<svg width="24" height="25" viewBox="0 0 24 25" fill="none" xmlns="http://www.w3.org/2000/svg">
<g clip-path="url(#clip0_911_8737)">
<path fill-rule="evenodd" clip-rule="evenodd" d="M21.4152 21.6452H13.7589V19.4682C14.2334 19.7557 14.8416 20.0078 15.5168 20.0078C17.0553 20.0078 18.2471 18.6992 18.297 18.6435C18.4963 18.4214 18.4963 18.0853 18.297 17.8632C18.2471 17.8075 17.0553 16.4989 15.5168 16.4989C14.8416 16.4989 14.2334 16.7509 13.7589 17.0385V16.2383C14.2449 16.0482 14.626 15.6483 14.7898 15.1507C15.0491 15.1311 15.303 15.0539 15.5348 14.9203C15.9414 14.686 16.2323 14.3076 16.3539 13.855C16.6047 12.9206 16.0471 11.9567 15.1109 11.7064C14.8286 11.6308 14.5438 11.6292 14.2766 11.6886C14.4203 11.4055 14.5918 11.1367 14.7885 10.8875C15.2828 11.2863 16.1167 11.8097 17.0901 11.8097C18.6287 11.8097 19.8205 10.5011 19.8704 10.4455C20.0697 10.2234 20.0697 9.88729 19.8704 9.66522C19.823 9.61237 18.7469 8.43178 17.3221 8.31159L18.3427 7.29303C18.9143 7.27053 20.1334 7.12088 20.9596 6.29624C22.0476 5.21042 21.9631 3.44409 21.959 3.36944C21.9425 3.07182 21.7044 2.83417 21.4062 2.81776C21.3317 2.81358 19.5617 2.7294 18.4737 3.81518C17.6064 4.68081 17.4842 5.97893 17.4724 6.50764L17.3222 6.65756C17.2018 5.23561 16.0189 4.16163 15.9659 4.11428C15.7435 3.91542 15.4067 3.91542 15.1842 4.11428C15.1284 4.16417 13.8173 5.35354 13.8173 6.88913C13.8173 7.87776 14.3605 8.72229 14.7625 9.21221L14.3321 9.64178C13.8679 10.1051 13.4825 10.6457 13.1938 11.234C13.0844 11.1783 12.9685 11.1333 12.847 11.1009C11.9107 10.8505 10.9451 11.407 10.6941 12.3414C10.4962 13.0787 10.8019 13.834 11.3995 14.243C11.3749 14.3598 11.3618 14.4806 11.3618 14.6045C11.3618 15.3866 11.8774 16.0506 12.5871 16.2764V21.6451L4.5 21.645C4.17641 21.645 4 21.9069 4 22.2299C4 22.553 4.17641 22.8148 4.5 22.8148H21.4152C21.7388 22.8148 22.0011 22.553 22.0011 22.23C22.0011 21.907 21.7388 21.6452 21.4152 21.6452ZM16.9836 18.2528C16.6272 17.9815 16.0914 17.6686 15.5168 17.6686C14.944 17.6686 14.4072 17.9824 14.0499 18.2539C14.4063 18.5252 14.9421 18.8382 15.5168 18.8382C16.0895 18.8382 16.6264 18.5244 16.9836 18.2528ZM20.7535 4.02018C20.3092 4.07991 19.7087 4.2367 19.3023 4.64229C18.8973 5.04647 18.7401 5.64725 18.6798 6.09143C19.124 6.0317 19.7246 5.87491 20.1309 5.46932C20.536 5.0651 20.6932 4.46436 20.7535 4.02018ZM17.0901 10.6402C17.6628 10.6402 18.1997 10.3264 18.557 10.0549C18.2005 9.78358 17.6648 9.47061 17.0901 9.47061C16.5174 9.47061 15.9805 9.78444 15.6232 10.056C15.9796 10.3273 16.5154 10.6402 17.0901 10.6402ZM16.1609 6.8892C16.1609 6.31542 15.8471 5.78049 15.575 5.42452C15.303 5.78022 14.9891 6.31526 14.9891 6.8892C14.9891 7.46299 15.3029 7.99792 15.575 8.35389C15.847 7.99815 16.1609 7.46315 16.1609 6.8892ZM15.2219 13.5524C15.3055 13.2409 15.1196 12.9196 14.8076 12.8361C14.5254 12.7606 14.2359 12.9054 14.121 13.164C14.408 13.3633 14.6328 13.6456 14.7603 13.976C14.8258 13.9642 14.8895 13.9417 14.9489 13.9074C15.0844 13.8294 15.1814 13.7033 15.2219 13.5524ZM12.5437 12.2307C12.2317 12.1473 11.9097 12.3328 11.826 12.6442C11.7655 12.8698 11.8467 13.0999 12.0143 13.2417C12.2811 13.0258 12.6123 12.8864 12.9742 12.8567C12.9873 12.7345 12.9622 12.6117 12.8995 12.5032C12.8212 12.3679 12.6949 12.2712 12.5437 12.2307ZM12.5337 14.6046C12.5337 14.9271 12.7965 15.1894 13.1196 15.1894C13.4427 15.1894 13.7055 14.9271 13.7055 14.6046C13.7055 14.2821 13.4427 14.0198 13.1196 14.0198C12.7965 14.0198 12.5337 14.2821 12.5337 14.6046Z" fill="#80838B"/>
</g>
<defs>
<clipPath id="clip0_911_8737">
<rect width="20" height="20" fill="white" transform="translate(2 2.8147)"/>
</clipPath>
</defs>
</svg>
