<svg width="24" height="25" viewBox="0 0 24 25" fill="none" xmlns="http://www.w3.org/2000/svg">
<path d="M20.3162 3.18164H14.7963C14.2362 3.18164 13.7963 3.62164 13.7963 4.18164C13.7963 4.74164 14.2362 5.18164 14.7963 5.18164H17.8763L14.1962 8.86164C11.3563 6.74164 7.31625 6.94164 4.75625 9.50164C1.95625 12.3016 1.95625 16.9016 4.75625 19.7016C7.55625 22.5016 12.1563 22.5016 14.9563 19.7016C17.5163 17.1416 17.7562 13.0616 15.5962 10.2616L19.2763 6.58164V9.70164C19.2763 10.2616 19.7162 10.7016 20.2763 10.7016C20.8363 10.7016 21.2763 10.2616 21.2763 9.70164V4.18164C21.3162 3.62164 20.8762 3.18164 20.3162 3.18164ZM13.5963 18.3016C11.5563 20.3416 8.23625 20.3416 6.19625 18.3016C4.15625 16.2616 4.15625 12.9416 6.19625 10.9016C8.23625 8.86164 11.5563 8.86164 13.5963 10.9016C15.6363 12.9416 15.6363 16.2616 13.5963 18.3016Z" fill="#80838B"/>
</svg>
