<svg width="16" height="17" viewBox="0 0 16 17" fill="none" xmlns="http://www.w3.org/2000/svg">
<g clip-path="url(#clip0_489_37840)">
<path d="M8.0007 1.64478C5.33807 1.64478 3.17188 3.81097 3.17188 6.47358C3.17188 9.77795 7.4932 14.629 7.67719 14.8339C7.85 15.0263 8.15172 15.026 8.32422 14.8339C8.5082 14.629 12.8295 9.77795 12.8295 6.47358C12.8295 3.81097 10.6633 1.64478 8.0007 1.64478ZM8.0007 13.8773C6.54635 12.1497 4.04146 8.74144 4.04146 6.47363C4.04146 4.29045 5.81755 2.51436 8.0007 2.51436C10.1839 2.51436 11.9599 4.29045 11.9599 6.4736C11.9599 8.74152 9.45542 12.1492 8.0007 13.8773Z" fill="#80838B"/>
<path d="M8.0076 4.04907C6.66797 4.04907 5.57812 5.13894 5.57812 6.47858C5.57812 7.81821 6.66799 8.90808 8.0076 8.90808C9.34721 8.90808 10.4371 7.81821 10.4371 6.47858C10.4371 5.13894 9.34721 4.04907 8.0076 4.04907ZM8.0076 8.0385C7.14745 8.0385 6.44771 7.33873 6.44771 6.47858C6.44771 5.61842 7.14747 4.91866 8.0076 4.91866C8.86773 4.91866 9.5675 5.61842 9.5675 6.47858C9.5675 7.33873 8.86773 8.0385 8.0076 8.0385Z" fill="#80838B"/>
</g>
<defs>
<clipPath id="clip0_489_37840">
<rect width="13.3333" height="13.3333" fill="white" transform="translate(1.32812 1.64868)"/>
</clipPath>
</defs>
</svg>
