<svg width="24" height="24" viewBox="0 0 24 24" fill="none" xmlns="http://www.w3.org/2000/svg">
<g clip-path="url(#clip0_593_10247)">
<path fill-rule="evenodd" clip-rule="evenodd" d="M12 0C18.6277 0 24 5.37234 24 12C24 18.6277 18.6277 24 12 24C5.37234 24 0 18.6277 0 12C0 5.37234 5.37234 0 12 0Z" fill="#7D6151"/>
<path fill-rule="evenodd" clip-rule="evenodd" d="M8.47488 7.47095C10.9761 7.47095 13.0039 9.49876 13.0039 12C13.0039 14.5013 10.9761 16.5291 8.47488 16.5291C5.9741 16.5291 3.94629 14.5013 3.94629 12C3.94629 9.49876 5.9741 7.47095 8.47488 7.47095ZM19.2552 8.18626C19.6963 8.18626 20.0535 9.89392 20.0535 12C20.0535 14.1061 19.6963 15.8138 19.2552 15.8138C18.8146 15.8138 18.4569 14.1061 18.4569 12C18.4569 9.89392 18.8146 8.18626 19.2552 8.18626ZM15.7218 7.8286C16.9874 7.8286 18.013 9.6961 18.013 12C18.013 14.3039 16.9874 16.1714 15.7218 16.1714C14.4561 16.1714 13.43 14.3039 13.43 12C13.43 9.6961 14.4561 7.8286 15.7218 7.8286Z" fill="white"/>
</g>
<defs>
<clipPath id="clip0_593_10247">
<rect width="24" height="24" fill="white"/>
</clipPath>
</defs>
</svg>
