<svg width="25" height="24" viewBox="0 0 25 24" fill="none" xmlns="http://www.w3.org/2000/svg">
<g clip-path="url(#clip0_489_36918)">
<path d="M18.6889 12.362L18.6889 12.362C18.3688 12.5468 18.2591 12.9561 18.4439 13.2762C18.5679 13.491 18.793 13.6109 19.0241 13.6109C19.1377 13.6109 19.2529 13.582 19.3582 13.5211L20.9887 12.5797L20.9887 12.5797C21.3088 12.3949 21.4185 11.9856 21.2337 11.6655C21.0489 11.3454 20.6395 11.2356 20.3194 11.4205C20.3194 11.4205 20.3194 11.4205 20.3194 11.4205L18.6889 12.362Z" fill="#80838B" stroke="#80838B" stroke-width="0.166667"/>
<path d="M17.7945 8.88945L17.7945 8.88945L16.8531 10.52C16.7291 10.7348 16.504 10.8548 16.2729 10.8548C16.1593 10.8548 16.0442 10.8258 15.9389 10.765C15.9389 10.765 15.9389 10.765 15.9389 10.765L15.9806 10.6928L17.7945 8.88945ZM17.7945 8.88945C17.9793 8.56934 17.8696 8.16002 17.5495 7.97524L17.7945 8.88945ZM15.6939 9.85077L15.6939 9.85078L17.5495 7.97522C17.2293 7.79029 16.82 7.90012 16.6353 8.22019C16.6353 8.22019 16.6353 8.22019 16.6353 8.22019L15.6939 9.85077Z" fill="#80838B" stroke="#80838B" stroke-width="0.166667"/>
<path d="M12.5 6.6237C12.1304 6.6237 11.8307 6.92335 11.8307 7.29297V9.17578C11.8307 9.5454 12.1304 9.84505 12.5 9.84505C12.8696 9.84505 13.1693 9.5454 13.1693 9.17578V7.29297C13.1693 6.92335 12.8696 6.6237 12.5 6.6237Z" fill="#80838B" stroke="#80838B" stroke-width="0.166667"/>
<path d="M9.31795 9.85074L9.31796 9.85074C9.50275 10.1709 9.3931 10.5801 9.07303 10.7649C9.07302 10.765 9.07301 10.765 9.073 10.765L9.03133 10.6928C8.93907 10.7461 8.83828 10.7714 8.73891 10.7714C8.53641 10.7714 8.33946 10.6664 8.23094 10.4783L7.28953 8.8478C7.12774 8.56756 7.22375 8.2092 7.50399 8.04741L9.31795 9.85074ZM9.31795 9.85074L8.37655 8.2202C8.37655 8.2202 8.37655 8.22019 8.37655 8.22019C8.19175 7.90009 7.78244 7.7903 7.46232 7.97524L9.31795 9.85074ZM7.4623 7.97525C7.14222 8.16007 7.03256 8.56938 7.21737 8.88947L8.15877 10.52L7.4623 7.97525Z" fill="#80838B" stroke="#80838B" stroke-width="0.166667"/>
<path d="M4.6785 11.4205L6.30904 12.362C6.62913 12.5468 6.7388 12.9561 6.554 13.2762C6.554 13.2762 6.554 13.2762 6.55399 13.2762L6.48183 13.2345C6.37331 13.4225 6.17636 13.5276 5.97386 13.5276C5.87444 13.5276 5.7737 13.5023 5.68143 13.449L4.6785 11.4205ZM4.6785 11.4205C4.6785 11.4205 4.6785 11.4205 4.67849 11.4205M4.6785 11.4205L4.67849 11.4205M4.67849 11.4205C4.35833 11.2356 3.94904 11.3454 3.76427 11.6655L4.67849 11.4205ZM4.00923 12.5797L5.63976 13.5212L3.76426 11.6655C3.57942 11.9856 3.6891 12.3949 4.00922 12.5797C4.00922 12.5797 4.00922 12.5797 4.00923 12.5797Z" fill="#80838B" stroke="#80838B" stroke-width="0.166667"/>
<path d="M21.9141 16.0407H16.8842C16.5605 13.9117 14.7181 12.2751 12.5 12.2751C10.2819 12.2751 8.43948 13.9117 8.11579 16.0407H3.08594C2.71632 16.0407 2.41667 16.3403 2.41667 16.7099C2.41667 17.0795 2.71632 17.3792 3.08594 17.3792H21.9141C22.2837 17.3792 22.5833 17.0795 22.5833 16.7099C22.5833 16.3403 22.2837 16.0407 21.9141 16.0407ZM15.5226 16.0407H9.47737C9.78418 14.6541 11.0227 13.6136 12.5 13.6136C13.9773 13.6136 15.2158 14.654 15.5226 16.0407Z" fill="#80838B" stroke="#80838B" stroke-width="0.166667"/>
</g>
<defs>
<clipPath id="clip0_489_36918">
<rect width="20" height="20" fill="white" transform="translate(2.5 2)"/>
</clipPath>
</defs>
</svg>
