<svg width="25" height="24" viewBox="0 0 25 24" fill="none" xmlns="http://www.w3.org/2000/svg">
<path d="M18.5649 12.3C18.5649 15.4264 16.0302 17.9609 12.9036 17.9609C9.77688 17.9609 7.24219 15.4264 7.24219 12.3C7.24219 9.17352 9.77688 6.63901 12.9036 6.63901C16.0302 6.63901 18.5649 9.17352 18.5649 12.3Z" stroke="#80838B" stroke-width="1.6" stroke-miterlimit="10" stroke-linecap="round" stroke-linejoin="round"/>
<path d="M16.8122 3.09552L16.125 4.71094" stroke="#80838B" stroke-width="1.6" stroke-miterlimit="10" stroke-linecap="round" stroke-linejoin="round"/>
<path d="M9.68715 19.8826L9 21.498" stroke="#80838B" stroke-width="1.6" stroke-miterlimit="10" stroke-linecap="round" stroke-linejoin="round"/>
<path d="M3.70312 8.38516L5.31866 9.07227" stroke="#80838B" stroke-width="1.6" stroke-miterlimit="10" stroke-linecap="round" stroke-linejoin="round"/>
<path d="M20.4922 15.5277L22.1077 16.2148" stroke="#80838B" stroke-width="1.6" stroke-miterlimit="10" stroke-linecap="round" stroke-linejoin="round"/>
<path d="M9.17188 3.02224L9.82837 4.65039" stroke="#80838B" stroke-width="1.6" stroke-miterlimit="10" stroke-linecap="round" stroke-linejoin="round"/>
<path d="M15.9844 19.9441L16.6409 21.5723" stroke="#80838B" stroke-width="1.6" stroke-miterlimit="10" stroke-linecap="round" stroke-linejoin="round"/>
<path d="M3.63281 16.0371L5.26108 15.3807" stroke="#80838B" stroke-width="1.6" stroke-miterlimit="10" stroke-linecap="round" stroke-linejoin="round"/>
<path d="M20.5469 9.2168L22.1751 8.56035" stroke="#80838B" stroke-width="1.6" stroke-miterlimit="10" stroke-linecap="round" stroke-linejoin="round"/>
<path d="M12.9062 2.29726V4.05273" stroke="#80838B" stroke-width="1.6" stroke-miterlimit="10" stroke-linecap="round" stroke-linejoin="round"/>
<path d="M12.9062 20.5434V22.2988" stroke="#80838B" stroke-width="1.6" stroke-miterlimit="10" stroke-linecap="round" stroke-linejoin="round"/>
<path d="M2.90625 12.2988H4.66185" stroke="#80838B" stroke-width="1.6" stroke-miterlimit="10" stroke-linecap="round" stroke-linejoin="round"/>
<path d="M21.1484 12.2988H22.904" stroke="#80838B" stroke-width="1.6" stroke-miterlimit="10" stroke-linecap="round" stroke-linejoin="round"/>
<path d="M5.83594 5.22938L7.07735 6.4707" stroke="#80838B" stroke-width="1.6" stroke-miterlimit="10" stroke-linecap="round" stroke-linejoin="round"/>
<path d="M18.7344 18.1317L19.9758 19.373" stroke="#80838B" stroke-width="1.6" stroke-miterlimit="10" stroke-linecap="round" stroke-linejoin="round"/>
<path d="M5.83594 19.373L7.07735 18.1317" stroke="#80838B" stroke-width="1.6" stroke-miterlimit="10" stroke-linecap="round" stroke-linejoin="round"/>
<path d="M18.7344 6.4707L19.9758 5.22938" stroke="#80838B" stroke-width="1.6" stroke-miterlimit="10" stroke-linecap="round" stroke-linejoin="round"/>
</svg>
