<svg width="24" height="24" viewBox="0 0 24 24" fill="none" xmlns="http://www.w3.org/2000/svg">
<path d="M14.25 9V20.5988C14.25 20.6514 14.2396 20.7036 14.2195 20.7523C14.1993 20.801 14.1697 20.8452 14.1325 20.8825C14.0952 20.9197 14.051 20.9493 14.0023 20.9695C13.9536 20.9896 13.9014 21 13.8488 21H2.625C2.52554 21 2.43016 20.9605 2.35984 20.8902C2.28951 20.8198 2.25 20.7245 2.25 20.625V13.6875L14.25 9Z" fill="url(#paint0_linear_566_11333)"/>
<path d="M13.5 9.5625V1.875C13.5 1.77554 13.4605 1.68016 13.3902 1.60984C13.3198 1.53951 13.2245 1.5 13.125 1.5H3.375C3.27554 1.5 3.18016 1.53951 3.10984 1.60984C3.03951 1.68016 3 1.77554 3 1.875V13.875L13.5 9.5625Z" fill="url(#paint1_linear_566_11333)"/>
<path d="M8.0625 1.5H8.4375V11.4375H8.0625V1.5Z" fill="#825555"/>
<path d="M3 7.6875H13.5V8.0625H3V7.6875Z" fill="#825555"/>
<path d="M14.25 9L7.6575 15.9919C7.63082 16.0205 7.59587 16.04 7.55754 16.0477C7.51921 16.0554 7.47943 16.051 7.44375 16.035L2.25 13.6875L14.25 9Z" fill="url(#paint2_linear_566_11333)"/>
<path d="M19.8563 11.8277C21.8794 13.8509 22.6181 16.6427 21.2981 20.224C21.2194 20.4359 21.315 20.8784 21.1519 21.0415C20.9888 21.2046 20.5088 21.1371 20.2744 21.229C16.605 22.6577 13.9444 21.7559 11.9381 19.7496C9.7519 17.5615 10.6256 14.8971 12.8175 12.7109C15.0094 10.5246 17.67 9.6415 19.8563 11.8277Z" fill="url(#paint3_linear_566_11333)"/>
<path d="M19.3909 17.5154C19.3975 17.5504 19.3899 17.5867 19.3699 17.6162C19.3499 17.6457 19.319 17.6661 19.284 17.6729C19.2526 17.6744 19.2215 17.6668 19.1943 17.6512C19.167 17.6356 19.1448 17.6126 19.1302 17.5848C18.6859 16.6154 18.0596 15.7248 17.6134 15.406C17.5706 15.3763 17.5343 15.3383 17.5064 15.2944C17.4785 15.2504 17.4596 15.2014 17.4509 15.1501C17.4421 15.0987 17.4437 15.0462 17.4555 14.9955C17.4673 14.9448 17.4891 14.897 17.5196 14.8548C17.5537 14.8075 17.5977 14.7682 17.6486 14.7398C17.6995 14.7114 17.756 14.6946 17.8142 14.6904C17.8723 14.6863 17.9307 14.6951 17.9851 14.716C18.0395 14.7369 18.0886 14.7696 18.129 14.8116C18.2134 14.9016 19.0627 15.7641 19.3909 17.5154Z" fill="#B27467"/>
<path d="M18.4294 11.0625L18.4687 10.875C16.5937 10.0613 14.5519 10.9725 12.8081 12.7182C11.0644 14.4638 10.1212 16.5525 10.995 18.4388H11.0531C12.6656 18.225 13.725 16.2244 14.6025 15.345C16.0762 13.875 17.5931 13.17 18.4294 11.0625Z" fill="url(#paint4_linear_566_11333)"/>
<defs>
<linearGradient id="paint0_linear_566_11333" x1="4.65375" y1="11.2913" x2="14.1881" y2="20.8256" gradientUnits="userSpaceOnUse">
<stop stop-color="#E3DFE1"/>
<stop offset="0.17" stop-color="#DDD9DC"/>
<stop offset="0.4" stop-color="#CCC9CF"/>
<stop offset="0.66" stop-color="#B0AEB9"/>
<stop offset="0.94" stop-color="#89899B"/>
<stop offset="1" stop-color="#808094"/>
</linearGradient>
<linearGradient id="paint1_linear_566_11333" x1="8.25" y1="1.5" x2="8.25" y2="13.875" gradientUnits="userSpaceOnUse">
<stop stop-color="#A5786B"/>
<stop offset="0.3" stop-color="#9F746B"/>
<stop offset="0.7" stop-color="#8E676A"/>
<stop offset="1" stop-color="#7D5B69"/>
</linearGradient>
<linearGradient id="paint2_linear_566_11333" x1="7.44" y1="9.165" x2="9.36" y2="14.34" gradientUnits="userSpaceOnUse">
<stop offset="0.38" stop-color="#D1D1D1"/>
<stop offset="0.6" stop-color="#D7D7D7"/>
<stop offset="0.89" stop-color="#E8E8E8"/>
<stop offset="1" stop-color="#F0F0F0"/>
</linearGradient>
<linearGradient id="paint3_linear_566_11333" x1="16.3163" y1="10.564" x2="16.3163" y2="21.9246" gradientUnits="userSpaceOnUse">
<stop stop-color="#E3B19D"/>
<stop offset="0.56" stop-color="#CE8D72"/>
<stop offset="0.6" stop-color="#CC8A6E"/>
<stop offset="0.74" stop-color="#C9856D"/>
<stop offset="0.89" stop-color="#BF786A"/>
<stop offset="1" stop-color="#B56A67"/>
</linearGradient>
<linearGradient id="paint4_linear_566_11333" x1="10.665" y1="14.5013" x2="18.4687" y2="14.5013" gradientUnits="userSpaceOnUse">
<stop stop-color="#D6A18B"/>
<stop offset="1" stop-color="#EBC0A7"/>
</linearGradient>
</defs>
</svg>
