<svg width="24" height="24" viewBox="0 0 24 24" fill="none" xmlns="http://www.w3.org/2000/svg">
<g clip-path="url(#clip0_489_36794)">
<path d="M21.3979 20.8234H20.599V16.7064H17.3673V20.8234H16.1175V2.35506C16.1175 2.16363 15.9623 2.00842 15.7708 2.00842H8.21952C8.02809 2.00842 7.87289 2.16363 7.87289 2.35506V20.8233H6.62309V18.3487H3.39138V20.8233H2.60209C2.2868 20.8233 2.0155 21.0656 2.00067 21.3806C1.98482 21.7168 2.25276 21.9944 2.58554 21.9944H21.4145C21.7472 21.9944 22.0152 21.7168 21.9993 21.3806C21.9845 21.0656 21.7132 20.8234 21.3979 20.8234ZM9.74639 3.30077H14.244C14.5891 3.30077 14.8689 3.58054 14.8689 3.92565C14.8689 4.27076 14.5892 4.55057 14.244 4.55057H9.74639C9.40128 4.55057 9.12147 4.2708 9.12147 3.92565C9.12147 3.58054 9.40128 3.30077 9.74639 3.30077ZM9.74639 5.94386H14.244C14.5891 5.94386 14.8689 6.22362 14.8689 6.56878C14.8689 6.91389 14.5892 7.19369 14.244 7.19369H9.74639C9.40128 7.19369 9.12147 6.91393 9.12147 6.56878C9.12147 6.22362 9.40128 5.94386 9.74639 5.94386ZM9.74639 8.58699H14.244C14.5891 8.58699 14.8689 8.86675 14.8689 9.2119C14.8689 9.55702 14.5892 9.83682 14.244 9.83682H9.74639C9.40128 9.83682 9.12147 9.55706 9.12147 9.2119C9.12147 8.86679 9.40128 8.58699 9.74639 8.58699ZM9.74639 11.2301H14.244C14.5891 11.2301 14.8689 11.5099 14.8689 11.855C14.8689 12.2002 14.5892 12.48 14.244 12.48H9.74639C9.40128 12.48 9.12147 12.2002 9.12147 11.855C9.12147 11.5099 9.40128 11.2301 9.74639 11.2301ZM9.74639 13.8732H14.244C14.5891 13.8732 14.8689 14.153 14.8689 14.4982C14.8689 14.8433 14.5892 15.1231 14.244 15.1231H9.74639C9.40128 15.1231 9.12147 14.8433 9.12147 14.4982C9.12147 14.153 9.40128 13.8732 9.74639 13.8732ZM13.5447 20.8234V17.9433H10.4457V20.8234H9.19595V17.3184C9.19595 16.9733 9.47572 16.6935 9.82087 16.6935H14.1696C14.5147 16.6935 14.7945 16.9733 14.7945 17.3184V20.8234H13.5447Z" fill="white"/>
<path d="M20.2523 13.8135H17.7138C17.5224 13.8135 17.3672 13.9687 17.3672 14.1601V15.4566H20.5989V14.1601C20.5989 13.9687 20.4437 13.8135 20.2523 13.8135Z" fill="white"/>
<path d="M3.39062 14.401H6.62233V17.0996H3.39062V14.401Z" fill="white"/>
<path d="M6.27573 6.72681H3.73726C3.54583 6.72681 3.39062 6.88201 3.39062 7.07344V9.20154H6.62233V7.07344C6.62233 6.88197 6.46716 6.72681 6.27573 6.72681Z" fill="white"/>
<path d="M3.39062 10.4524H6.62233V13.151H3.39062V10.4524Z" fill="white"/>
</g>
<defs>
<clipPath id="clip0_489_36794">
<rect width="20" height="20" fill="white" transform="translate(2 2)"/>
</clipPath>
</defs>
</svg>
