<svg width="48" height="49" viewBox="0 0 48 49" fill="none" xmlns="http://www.w3.org/2000/svg">
<g clip-path="url(#clip0_911_5919)">
<path d="M33.2454 5.10845C33.2568 5.11094 33.2711 5.11481 33.2785 5.11682C33.2804 5.11732 33.2818 5.1177 33.2826 5.11792L33.2831 5.11804L33.2869 5.11903C33.3009 5.12271 33.3197 5.12765 33.3385 5.13382L33.3392 5.13405C33.3483 5.13706 33.3628 5.14256 33.3679 5.14451L33.3698 5.1452L33.3703 5.14539L33.3708 5.14558C33.3856 5.15105 33.4045 5.158 33.4238 5.16639C33.4262 5.16729 33.4306 5.16898 33.4355 5.17122L33.4353 5.17112L33.3736 5.30784L33.4364 5.17163L33.2454 5.10845ZM33.2454 5.10845C33.2283 5.10468 33.2112 5.10191 33.1986 5.09988L33.1957 5.0994L33.1951 5.09931L33.1919 5.09877C33.1807 5.09689 33.1651 5.09428 33.1493 5.09246C33.1345 5.09076 33.1196 5.08978 33.1089 5.08909L33.1056 5.08888C33.1055 5.08887 33.1054 5.08886 33.1052 5.08885L33.1049 5.08883L33.2454 5.10845ZM14.5645 5.17122C14.5642 5.17136 14.5639 5.1715 14.5636 5.17165L4.41863 9.75125C4.41863 9.75125 4.41862 9.75125 4.41862 9.75125C3.93243 9.97067 3.71626 10.5427 3.93577 11.0288L12.5137 30.0312C12.3085 30.9012 12.1993 31.8077 12.1993 32.7394C12.1993 39.2466 17.493 44.5403 24.0001 44.5403C30.5072 44.5403 35.801 39.2466 35.801 32.7394C35.801 31.8077 35.6917 30.9011 35.4866 30.031L44.0643 11.0288L14.5645 5.17122ZM14.5645 5.17122C14.5686 5.1694 14.572 5.16804 14.5743 5.16713L14.5756 5.16666L14.5645 5.17122ZM25.6479 23.0195L25.6478 23.0195C25.601 23.0116 25.5572 22.9997 25.5167 22.9867C25.0222 22.9101 24.5157 22.87 24.0001 22.87C23.4844 22.87 22.978 22.9101 22.4835 22.9867C22.4431 22.9997 22.3991 23.0117 22.352 23.0196M25.6479 23.0195L22.3272 22.8716M25.6479 23.0195C29.4452 23.6589 32.5383 26.479 33.5274 30.2038L33.5275 30.204C33.5396 30.2495 33.5549 30.2936 33.573 30.336M25.6479 23.0195L14.4271 30.336M22.352 23.0196L22.3272 22.8716M22.352 23.0196C22.352 23.0196 22.3521 23.0196 22.3521 23.0195L22.3272 22.8716M22.352 23.0196C18.5547 23.659 15.4617 26.4791 14.4726 30.2039M22.3272 22.8716C18.4718 23.5208 15.3318 26.3838 14.3276 30.1654M14.4726 30.2039C14.4726 30.2039 14.4726 30.2038 14.4727 30.2038L14.3276 30.1654M14.4726 30.2039C14.4605 30.2496 14.4452 30.2937 14.4271 30.336M14.4726 30.2039L14.3276 30.1654M14.3276 30.1654L14.4271 30.336M14.4271 30.336C14.4281 30.3321 14.4291 30.3281 14.4301 30.3242L14.2846 30.2875L14.4218 30.3483C14.4236 30.3442 14.4253 30.3401 14.4271 30.336ZM14.4271 30.336C14.2338 31.1056 14.1307 31.9106 14.1307 32.7394C14.1307 38.1812 18.5581 42.6088 24 42.6088C29.4419 42.6088 33.8695 38.1812 33.8695 32.7394C33.8695 31.9105 33.7663 31.1056 33.573 30.336M33.573 30.336C33.5748 30.3401 33.5766 30.3442 33.5784 30.3483L33.7155 30.2875L33.5701 30.3242C33.571 30.3281 33.572 30.3321 33.573 30.336ZM14.6314 5.14479C14.6313 5.14481 14.6312 5.14484 14.6312 5.14486L14.6311 5.14487L14.6314 5.14479ZM14.5791 5.16536L14.5776 5.16592L14.5791 5.16536ZM14.8992 5.08858L14.8981 5.08865L33.0545 5.08624L33.0542 5.08622C33.0524 5.08609 33.0457 5.0856 33.038 5.0856H14.9621C14.9543 5.0856 14.9475 5.08609 14.9451 5.08626L14.9448 5.08628L14.9442 5.08633C14.9276 5.08669 14.9116 5.08775 14.8992 5.08858ZM33.4221 5.16575C33.4208 5.16526 33.4214 5.16548 33.4215 5.16555L33.4221 5.16575ZM16.4575 7.01702H31.5425L28.2975 14.2054H19.7025L16.4575 7.01702ZM20.5744 16.1369H27.4257L25.229 21.003C24.825 20.9608 24.4151 20.9386 24 20.9386C23.5848 20.9386 23.1749 20.9609 22.7709 21.003L20.5744 16.1369ZM13.4608 27.435L6.09347 11.1143L14.4792 7.32883L20.8195 21.3746C17.6042 22.2756 14.9403 24.5071 13.4608 27.435ZM41.9066 11.1143L34.5392 27.4348C33.0597 24.5069 30.3958 22.2755 27.1805 21.3745L33.5209 7.32883L41.9066 11.1143Z" fill="#80838B" stroke="#80838B" stroke-width="0.3"/>
<path d="M30.8892 29.6136L30.8891 29.6136L26.7231 29.0083L24.8599 25.2333L24.8599 25.2332C24.6971 24.9036 24.3615 24.695 23.9939 24.695C23.6263 24.695 23.2906 24.9037 23.1278 25.2332L23.1278 25.2333L21.2648 29.0083L17.0987 29.6136C16.7349 29.6665 16.4328 29.9214 16.3192 30.2709L16.3192 30.2709C16.2056 30.6205 16.3003 31.0043 16.5635 31.2609L16.5635 31.2609L19.578 34.1993L18.8663 38.3485C18.8663 38.3485 18.8663 38.3485 18.8663 38.3485C18.8041 38.7108 18.9533 39.077 19.2505 39.293C19.548 39.5093 19.9423 39.5374 20.2675 39.3666L20.2675 39.3666L23.9937 37.4076L27.7199 39.3666L27.7897 39.2338L27.7199 39.3666C27.8611 39.4408 28.0154 39.4775 28.1692 39.4775C28.3694 39.4775 28.5687 39.4152 28.7369 39.293L28.6487 39.1717L28.7369 39.293C29.0343 39.077 29.1833 38.7108 29.1211 38.3485L28.4095 34.1994L31.424 31.2609C31.424 31.2609 31.424 31.2609 31.424 31.2609C31.6875 31.0043 31.7822 30.6205 31.6687 30.271L31.6687 30.2709C31.555 29.9214 31.2529 29.6666 30.8892 29.6136ZM26.6979 33.1706L26.6979 33.1706C26.4704 33.3925 26.3665 33.7121 26.4202 34.0253L26.4202 34.0254L26.8869 36.7463L24.4433 35.4617L24.4433 35.4617C24.3026 35.3878 24.1483 35.3508 23.9939 35.3508C23.8395 35.3508 23.6852 35.3878 23.5445 35.4617L23.5445 35.4617L21.1009 36.7463L21.5677 34.0254L21.5677 34.0253C21.6213 33.7121 21.5174 33.3925 21.2899 33.1706L21.2899 33.1706L19.313 31.2436L22.0451 30.8467L22.0235 30.6982L22.0451 30.8467C22.3597 30.8009 22.6315 30.6033 22.7722 30.3183C22.7722 30.3183 22.7722 30.3183 22.7722 30.3183L23.9939 27.8427L25.2157 30.3183L25.2157 30.3183C25.3564 30.6033 25.6283 30.8008 25.9428 30.8466L25.9428 30.8467L28.6749 31.2436L26.6979 33.1706Z" fill="#80838B" stroke="#80838B" stroke-width="0.3"/>
</g>
<defs>
<clipPath id="clip0_911_5919">
<rect width="40" height="40" fill="white" transform="translate(4 4.8147)"/>
</clipPath>
</defs>
</svg>
