<svg width="73" height="73" viewBox="0 0 73 73" fill="none" xmlns="http://www.w3.org/2000/svg">
<g clip-path="url(#clip0_566_13091)">
<path d="M58.8733 45.134L57.5923 43.6843C56.3575 44.7758 54.7694 45.3769 53.1202 45.3769C51.4711 45.3769 49.8829 44.7758 48.6482 43.6843L47.3672 45.134C48.9549 46.5383 50.9991 47.3124 53.1202 47.3124C55.2414 47.3124 57.2856 46.5383 58.8733 45.134Z" fill="#80838B"/>
<path d="M51.1835 30.2467C51.1835 30.4324 51.1778 30.6172 51.166 30.801L53.0977 30.9182C53.1114 30.6965 53.119 30.4721 53.119 30.2467C53.119 26.9272 51.6092 23.8567 48.9782 21.8234C48.5775 21.5134 48.0846 21.1826 47.3125 21.1826V23.1181C47.4217 23.1181 47.4888 23.1181 47.7945 23.3544C49.9487 25.0186 51.1835 27.532 51.1835 30.2467Z" fill="#80838B"/>
<path d="M54.8879 37.7623C56.2639 35.5027 56.9945 32.9401 56.9945 30.2472C56.9945 25.7189 54.9371 21.5323 51.3496 18.76C49.0125 16.9539 45.8357 16.9076 43.4461 18.4164V14.408H48.2848C52.0192 14.408 55.059 11.3691 55.059 7.63376V6.66602H48.2848C44.5504 6.66602 41.5106 9.70486 41.5106 13.4402V18.4126C39.1631 16.9213 36.0505 16.9232 33.763 18.6418C31.2042 20.5645 29.3732 23.2495 28.5136 26.2897C28.0331 26.1281 27.5284 26.0209 26.9945 26.0209C25.4063 26.0209 24.0062 26.801 23.1235 27.9861C22.4246 27.0477 21.4068 26.3606 20.2203 26.1187V20.2144H25.059C28.7934 20.2144 31.8332 17.1756 31.8332 13.4402V12.4725H25.059C21.5963 12.4725 18.7356 15.0865 18.3372 18.4434C17.103 17.1524 15.3688 16.3434 13.4461 16.3434H6.67188V17.3112C6.67188 21.0465 9.71166 24.0854 13.4461 24.0854H18.2848V26.1187C17.0983 26.3606 16.0804 27.0477 15.3816 27.9861C14.4989 26.801 13.0988 26.0209 11.5106 26.0209C8.84268 26.0209 6.67188 28.1917 6.67188 30.8596C6.67188 33.2411 8.40512 35.2144 10.6733 35.6142C10.5943 35.9605 10.5428 36.3116 10.5428 36.666C10.5428 37.7595 10.9213 38.7584 11.5356 39.5692H9.5751C7.97464 39.5692 6.67188 40.872 6.67188 42.4725V44.408C6.67188 45.6677 7.48368 46.7323 8.60736 47.133V48.2789C8.60736 58.418 16.8554 66.666 26.9945 66.666H39.5751V66.6188C39.8964 66.64 40.2168 66.666 40.5419 66.666H40.5428C43.567 66.666 46.4443 65.7323 48.8684 64.0194C50.2571 64.4829 51.6846 64.7305 53.1235 64.7305C60.5947 64.7305 66.6719 58.6533 66.6719 51.1822C66.6719 44.3111 61.5256 38.6313 54.8879 37.7623ZM48.2848 8.6015H53.0257C52.5768 10.8068 50.6219 12.4725 48.2848 12.4725H43.5439C43.9928 10.2672 45.9477 8.6015 48.2848 8.6015ZM25.059 14.408H29.7999C29.35 16.6133 27.3961 18.2789 25.059 18.2789H20.3181C20.767 16.0736 22.7218 14.408 25.059 14.408ZM13.4461 22.1499C11.1089 22.1499 9.15408 20.4842 8.70517 18.2789H13.4461C15.7832 18.2789 17.7381 19.9446 18.187 22.1499H13.4461ZM34.9249 20.1884C36.9294 18.6825 39.8161 19.0482 41.5106 20.952V23.1176H43.4461V20.9549C45.1708 19.0279 48.1123 18.7056 50.1659 20.2919C53.2757 22.6947 55.059 26.3228 55.059 30.2472C55.059 32.6623 54.3847 34.9588 53.1098 36.9651C52.4062 35.1681 51.3421 33.5161 49.9368 32.1118L48.5683 33.4802C49.8059 34.7178 50.7353 36.1784 51.3421 37.7656C49.4741 38.0123 47.7291 38.6403 46.1811 39.5702H34.0801C32.4252 38.0808 31.2071 36.2228 30.5238 34.1479C31.3299 33.2818 31.8332 32.1321 31.8332 30.8596C31.8332 29.4514 31.2189 28.1936 30.2559 27.309C30.9363 24.4733 32.5708 21.958 34.9249 20.1884ZM20.2203 36.666C20.2203 36.3116 20.1688 35.9605 20.0898 35.6142C21.3302 35.3963 22.4005 34.7055 23.1235 33.733C23.7652 34.5949 24.6824 35.2291 25.7489 35.5154C25.9166 35.8849 26.0267 36.2672 26.0267 36.666C26.0267 38.2665 24.724 39.5692 23.1235 39.5692C21.523 39.5692 20.2203 38.2665 20.2203 36.666ZM19.2776 39.5692H19.2284C19.236 39.5584 19.2459 39.5499 19.2535 39.5395C19.2601 39.5499 19.2691 39.5584 19.2776 39.5692ZM27.9622 36.666C27.9622 36.3116 27.9107 35.9605 27.8318 35.6142C28.1956 35.5504 28.5496 35.4563 28.8808 35.3151C29.463 36.8654 30.3097 38.2996 31.3862 39.5692H26.9704C27.5837 38.7584 27.9622 37.7595 27.9622 36.666ZM30.9892 43.8697L38.2686 51.1803L28.0085 51.1713C28.1985 48.553 29.1865 45.9805 30.9892 43.8697ZM38.2057 53.1157L30.9982 60.31C29.2154 58.2243 28.2263 55.6939 28.0203 53.1068L38.2057 53.1157ZM39.5732 54.4851L39.5642 64.6833C36.8935 64.4777 34.3948 63.4358 32.3633 61.6822L39.5732 54.4851ZM41.5087 54.4336L48.7318 61.687C46.6938 63.4481 44.1804 64.4858 41.4997 64.688L41.5087 54.4336ZM37.1472 47.3112H40.1459C39.904 48.1192 39.731 48.9565 39.6446 49.8184L37.1472 47.3112ZM40.901 45.3757H35.2193L31.3649 41.5047H43.6601C42.5246 42.6157 41.5928 43.926 40.901 45.3757ZM26.9945 27.9563C28.5949 27.9563 29.8977 29.2591 29.8977 30.8596C29.8977 32.46 28.5949 33.7628 26.9945 33.7628C25.394 33.7628 24.0912 32.46 24.0912 30.8596C24.0912 29.2591 25.394 27.9563 26.9945 27.9563ZM19.2525 27.9563C20.853 27.9563 22.1557 29.2591 22.1557 30.8596C22.1557 32.46 20.853 33.7628 19.2525 33.7628C17.6521 33.7628 16.3493 32.46 16.3493 30.8596C16.3493 29.2591 17.6521 27.9563 19.2525 27.9563ZM8.60736 30.8596C8.60736 29.2591 9.91013 27.9563 11.5106 27.9563C13.111 27.9563 14.4138 29.2591 14.4138 30.8596C14.4138 32.46 13.111 33.7628 11.5106 33.7628C9.91013 33.7628 8.60736 32.46 8.60736 30.8596ZM12.4783 36.666C12.4783 36.2672 12.5884 35.8849 12.7562 35.5154C13.8227 35.2291 14.7399 34.5949 15.3816 33.733C16.0232 34.5949 16.9404 35.2291 18.0069 35.5154C18.1747 35.8849 18.2848 36.2672 18.2848 36.666C18.2848 38.2665 16.982 39.5692 15.3816 39.5692C13.7811 39.5692 12.4783 38.2665 12.4783 36.666ZM8.60736 42.4725C8.60736 41.9385 9.04114 41.5047 9.5751 41.5047H30.5606L30.2771 41.7892C29.1988 42.8713 28.3298 44.0838 27.6621 45.3757H9.5751C9.04114 45.3757 8.60736 44.9419 8.60736 44.408V42.4725ZM26.9945 64.7305C17.9228 64.7305 10.5428 57.3506 10.5428 48.2789V47.3112H26.8494C25.0887 52.4216 26.2205 58.3221 30.2762 62.3953C31.1986 63.3215 32.2301 64.0945 33.3311 64.7305H26.9945ZM53.1235 62.7951C52.3018 62.7951 51.4843 62.6944 50.6772 62.5172C50.7197 62.4756 50.767 62.4388 50.8095 62.3962L51.489 61.713L41.5375 51.7204C41.5262 51.5413 41.5106 51.3641 41.5106 51.1822C41.5106 45.1928 46.0677 40.2506 51.8963 39.6359C52.0646 40.451 52.1558 41.2888 52.1558 42.1408V43.4402H54.0912V42.1408C54.0912 41.2803 54.0052 40.4354 53.8559 39.6061C59.918 39.9874 64.7364 45.0256 64.7364 51.1822C64.7364 57.5859 59.5272 62.7951 53.1235 62.7951Z" fill="#80838B"/>
<path d="M60.8669 51.1826C60.8669 55.4515 57.3938 58.9246 53.125 58.9246V60.86C58.4613 60.86 62.8024 56.5189 62.8024 51.1826H60.8669Z" fill="#80838B"/>
</g>
<g clip-path="url(#clip1_566_13091)">
<path fill-rule="evenodd" clip-rule="evenodd" d="M71.447 34.2973C71.3014 31.5848 70.4979 29.5825 69.8142 28.1412C69.4089 27.2867 68.6537 26.6447 67.7422 26.3798C67.2341 26.2322 66.7157 26.2101 66.2233 26.299C66.0497 25.8297 65.7674 25.3945 65.382 25.0318C64.6908 24.3814 63.7541 24.0571 62.8122 24.1421L62.7956 24.1436C61.8925 24.2251 59.4375 24.4466 56.7592 25.8234L56.7256 25.8405C56.7105 25.8482 56.6954 25.8558 56.6802 25.8637C56.2631 26.0805 55.8542 26.3171 55.4537 26.5732L56.0946 28.9786C59.0818 26.8322 61.8255 26.5844 63.023 26.4763C63.2208 26.4585 63.4182 26.5029 63.5893 26.6007C63.656 26.6387 63.7187 26.685 63.7757 26.7386C64.0202 26.9816 64.225 27.5178 63.9425 27.9142L57.3188 39.5117L59.3078 40.7549L65.884 29.2406C66.0616 28.8626 66.5257 28.4654 67.0881 28.6305C67.3563 28.7085 67.5782 28.8962 67.6965 29.1456C68.5118 30.8643 70.9926 36.0946 66.5167 43.9316C65.9525 44.9195 65.367 45.8198 64.761 46.6315L65.4263 49.516C66.4951 48.3166 67.5454 46.8569 68.5522 45.094C70.6595 41.404 71.6335 37.7715 71.447 34.2973Z" fill="#80838B"/>
</g>
<defs>
<clipPath id="clip0_566_13091">
<rect width="60" height="60" fill="white" transform="translate(6.67188 6.66602)"/>
</clipPath>
<clipPath id="clip1_566_13091">
<rect width="17" height="30" fill="white" transform="translate(55 19)"/>
</clipPath>
</defs>
</svg>
