<svg width="48" height="49" viewBox="0 0 48 49" fill="none" xmlns="http://www.w3.org/2000/svg">
<g clip-path="url(#clip0_911_6041)">
<path d="M40.0138 37.7681H38.8339V13.0348H40.0058C40.653 13.0348 41.1777 12.5101 41.1777 11.8629C41.1777 11.2157 40.653 10.691 40.0058 10.691H38.8339V9.51915C38.8339 8.87196 38.3092 8.34728 37.662 8.34728C37.0148 8.34728 36.4902 8.87196 36.4902 9.51915V10.691H33.3261L34.9628 6.41087C35.1028 6.05032 35.0559 5.64392 34.8375 5.32478C34.6191 5.00548 34.2573 4.8147 33.8705 4.8147H14.1766C13.7899 4.8147 13.428 5.00548 13.2095 5.3247C12.9911 5.64384 12.9442 6.05024 13.0842 6.41079L17.4062 17.6051C17.1811 17.8186 17.0401 18.1198 17.0401 18.4545C17.0401 19.1017 17.5648 19.6263 18.212 19.6263H29.8351C30.4823 19.6263 31.007 19.1017 31.007 18.4545C31.007 18.1198 30.8659 17.8186 30.6409 17.6051L32.4159 13.0347H36.4902V37.7681H33.2957C33.8991 36.8065 34.1655 35.6597 34.0332 34.5167L32.8563 24.3463H33.3801C34.0273 24.3463 34.552 23.8216 34.552 23.1744C34.552 22.5272 34.0273 22.0025 33.3801 22.0025H12.449C9.34617 22.0025 6.82195 24.5268 6.82195 27.6295C6.82195 30.0164 8.33531 32.1504 10.5877 32.9398L13.3428 33.9054L13.272 34.5167C13.1398 35.6596 13.4062 36.8064 14.0095 37.768H7.98438C7.33719 37.768 6.8125 38.2927 6.8125 38.9399V43.6428C6.8125 44.29 7.33719 44.8147 7.98438 44.8147H40.0138C40.661 44.8147 41.1857 44.29 41.1857 43.6428V38.94C41.1856 38.2928 40.6609 37.7681 40.0138 37.7681ZM28.2519 17.2827H19.7953L18.1455 13.0348H29.9016L28.2519 17.2827ZM30.8119 10.691H17.2353L15.8889 7.15845H32.1582L30.8119 10.691ZM30.497 24.3463L30.7634 26.6484H16.542L16.8084 24.3463H30.497ZM11.363 30.728C10.0488 30.2674 9.1657 29.0223 9.1657 27.6296C9.1657 25.8192 10.6386 24.3463 12.449 24.3463H14.449L13.619 31.5188L11.363 30.728ZM16.2627 36.8806C15.7463 36.3011 15.5111 35.5573 15.6002 34.7862L16.2708 28.992H31.0346L31.7051 34.7861C31.7943 35.5572 31.5591 36.301 31.0427 36.8806C30.5804 37.3995 29.9611 37.7089 29.2795 37.7681H18.0259C17.3442 37.7089 16.725 37.3995 16.2627 36.8806ZM38.8419 42.4709H9.15625V40.1119H38.842V42.4709H38.8419Z" fill="#80838B"/>
</g>
<defs>
<clipPath id="clip0_911_6041">
<rect width="40" height="40" fill="white" transform="translate(4 4.8147)"/>
</clipPath>
</defs>
</svg>
