<svg width="24" height="24" viewBox="0 0 24 24" fill="none" xmlns="http://www.w3.org/2000/svg">
<path d="M18.1562 9.65626H17.8339C17.6969 8.31215 17.1003 7.05648 16.145 6.10113C15.1896 5.14578 13.9339 4.54924 12.5898 4.41218V4.3718L16.7632 3.7913C16.9171 3.7699 17.0563 3.68823 17.15 3.56427C17.2437 3.4403 17.2843 3.28418 17.2629 3.13026C17.2415 2.97634 17.1598 2.83722 17.0359 2.74352C16.9119 2.64981 16.7558 2.60919 16.6019 2.63058L11.9232 3.28132C11.7832 3.30081 11.6549 3.37029 11.562 3.47695C11.4691 3.58361 11.418 3.72026 11.418 3.86168V4.41218C10.0739 4.54924 8.8182 5.14578 7.86284 6.10113C6.90749 7.05648 6.31095 8.31215 6.17389 9.65626H5.85156C5.69616 9.65626 5.54713 9.71799 5.43724 9.82787C5.32736 9.93776 5.26562 10.0868 5.26562 10.2422C5.26562 10.3976 5.32736 10.5466 5.43724 10.6565C5.54713 10.7664 5.69616 10.8281 5.85156 10.8281H6.18484L6.89927 20.8308C6.90987 20.9786 6.97605 21.1169 7.0845 21.2179C7.19295 21.3188 7.33561 21.375 7.48378 21.375H16.5239C16.6721 21.375 16.8147 21.3188 16.9232 21.2179C17.0316 21.1169 17.0978 20.9786 17.1084 20.8308L17.823 10.8281H18.1562C18.3117 10.8281 18.4607 10.7664 18.5706 10.6565C18.6805 10.5466 18.7422 10.3976 18.7422 10.2422C18.7422 10.0868 18.6805 9.93776 18.5706 9.82787C18.4607 9.71799 18.3117 9.65626 18.1562 9.65626ZM12.0039 5.55469C13.1453 5.55614 14.247 5.97334 15.103 6.72824C15.959 7.48315 16.5108 8.52405 16.6549 9.65626H7.35288C7.49706 8.52405 8.04876 7.48315 8.9048 6.72824C9.76083 5.97334 10.8626 5.55614 12.0039 5.55469ZM15.9783 20.2031H8.02938L7.35975 10.8281H16.648L15.9783 20.2031Z" fill="#80838B"/>
<path d="M8.17166 14.2522L10.076 16.1565C10.1304 16.2109 10.1949 16.2541 10.266 16.2835C10.3371 16.313 10.4133 16.3281 10.4902 16.3281C10.5672 16.3281 10.6434 16.313 10.7145 16.2835C10.7855 16.2541 10.8501 16.2109 10.9045 16.1565L12.8088 14.2522C12.8632 14.1978 12.9064 14.1332 12.9359 14.0621C12.9653 13.991 12.9805 13.9148 12.9805 13.8379C12.9805 13.7609 12.9653 13.6848 12.9359 13.6137C12.9064 13.5426 12.8632 13.478 12.8088 13.4236L10.9045 11.5193C10.8501 11.4649 10.7855 11.4217 10.7145 11.3923C10.6434 11.3628 10.5672 11.3477 10.4902 11.3477C10.4133 11.3477 10.3371 11.3628 10.266 11.3923C10.1949 11.4217 10.1304 11.4649 10.076 11.5193L8.17166 13.4236C8.11724 13.478 8.07407 13.5426 8.04462 13.6137C8.01516 13.6848 8 13.7609 8 13.8379C8 13.9148 8.01516 13.991 8.04462 14.0621C8.07407 14.1332 8.11724 14.1978 8.17166 14.2522ZM10.4902 12.7623L11.5658 13.8379L10.4902 14.9135L9.41464 13.8379L10.4902 12.7623Z" fill="#80838B"/>
<path d="M11.6092 17.3947L13.2205 19.0061C13.2749 19.0605 13.3395 19.1037 13.4105 19.1331C13.4816 19.1626 13.5578 19.1777 13.6348 19.1777C13.7117 19.1777 13.7879 19.1626 13.859 19.1331C13.9301 19.1037 13.9946 19.0605 14.049 19.0061L15.6604 17.3947C15.7148 17.3404 15.758 17.2758 15.7874 17.2047C15.8169 17.1336 15.832 17.0574 15.832 16.9805C15.832 16.9035 15.8169 16.8273 15.7874 16.7563C15.758 16.6852 15.7148 16.6206 15.6604 16.5662L14.049 14.9549C13.9946 14.9004 13.9301 14.8573 13.859 14.8278C13.7879 14.7984 13.7117 14.7832 13.6348 14.7832C13.5578 14.7832 13.4816 14.7984 13.4105 14.8278C13.3395 14.8573 13.2749 14.9004 13.2205 14.9549L11.6092 16.5662C11.5547 16.6206 11.5116 16.6852 11.4821 16.7563C11.4527 16.8273 11.4375 16.9035 11.4375 16.9805C11.4375 17.0574 11.4527 17.1336 11.4821 17.2047C11.5116 17.2758 11.5547 17.3404 11.6092 17.3947ZM13.6348 16.1978L14.4174 16.9805L13.6348 17.7631L12.8521 16.9805L13.6348 16.1978Z" fill="#80838B"/>
</svg>
