<svg width="16" height="17" viewBox="0 0 16 17" fill="none" xmlns="http://www.w3.org/2000/svg">
<g clip-path="url(#clip0_489_37941)">
<path d="M7.99479 1.64673C4.32398 1.64673 1.32812 4.6428 1.32812 8.3134C1.32812 11.9842 4.32419 14.9801 7.99479 14.9801C11.6656 14.9801 14.6615 11.984 14.6615 8.3134C14.6615 4.64259 11.6654 1.64673 7.99479 1.64673ZM7.99479 14.1988C4.74956 14.1988 2.10938 11.5586 2.10938 8.3134C2.10938 5.06816 4.74956 2.42798 7.99479 2.42798C11.24 2.42798 13.8802 5.06816 13.8802 8.3134C13.8802 11.5586 11.24 14.1988 7.99479 14.1988Z" fill="#80838B"/>
<path d="M4.67969 12.0178C4.89542 12.0178 5.07031 11.8429 5.07031 11.6272C5.07031 11.4115 4.89542 11.2366 4.67969 11.2366C4.46395 11.2366 4.28906 11.4115 4.28906 11.6272C4.28906 11.8429 4.46395 12.0178 4.67969 12.0178Z" fill="#80838B"/>
<path d="M11.3125 5.38892C11.5282 5.38892 11.7031 5.21403 11.7031 4.99829C11.7031 4.78255 11.5282 4.60767 11.3125 4.60767C11.0968 4.60767 10.9219 4.78255 10.9219 4.99829C10.9219 5.21403 11.0968 5.38892 11.3125 5.38892Z" fill="#80838B"/>
<path d="M4.40348 4.72208C4.25092 4.87463 4.25092 5.12195 4.40348 5.2745C4.55603 5.42705 4.80335 5.42705 4.9559 5.2745C5.10845 5.12195 5.10845 4.87463 4.9559 4.72208C4.80337 4.56953 4.55603 4.56953 4.40348 4.72208Z" fill="#80838B"/>
<path d="M11.0363 11.351C10.8837 11.5035 10.8837 11.7509 11.0363 11.9034C11.1888 12.056 11.4362 12.056 11.5887 11.9034C11.7413 11.7509 11.7413 11.5035 11.5887 11.351C11.4362 11.1984 11.1888 11.1984 11.0363 11.351Z" fill="#80838B"/>
<path d="M8 4.79712C8.21573 4.79712 8.39062 4.62222 8.39062 4.40649V3.62524C8.39062 3.40951 8.21573 3.23462 8 3.23462C7.78427 3.23462 7.60938 3.40951 7.60938 3.62524V4.40649C7.60938 4.62222 7.78427 4.79712 8 4.79712Z" fill="#80838B"/>
<path d="M8 11.8284C7.78427 11.8284 7.60938 12.0033 7.60938 12.219V13.0002C7.60938 13.216 7.78427 13.3909 8 13.3909C8.21573 13.3909 8.39062 13.216 8.39062 13.0002V12.219C8.39062 12.0033 8.21573 11.8284 8 11.8284Z" fill="#80838B"/>
<path d="M4.48438 8.31274C4.48438 8.09701 4.30948 7.92212 4.09375 7.92212H3.3125C3.09677 7.92212 2.92188 8.09701 2.92188 8.31274C2.92188 8.52847 3.09677 8.70337 3.3125 8.70337H4.09375C4.30948 8.70337 4.48438 8.52847 4.48438 8.31274Z" fill="#80838B"/>
<path d="M11.5156 8.31274C11.5156 8.52847 11.6905 8.70337 11.9062 8.70337H12.6875C12.9032 8.70337 13.0781 8.52847 13.0781 8.31274C13.0781 8.09701 12.9032 7.92212 12.6875 7.92212H11.9062C11.6905 7.92212 11.5156 8.09701 11.5156 8.31274Z" fill="#80838B"/>
<path d="M8.39063 8.15095V5.96899C8.39063 5.75326 8.21573 5.57837 8 5.57837C7.78427 5.57837 7.60938 5.75326 7.60938 5.96899V8.31274C7.60938 8.41634 7.65055 8.51569 7.7238 8.58897L10.0676 10.9327C10.2201 11.0852 10.4674 11.0853 10.62 10.9327C10.7725 10.7802 10.7725 10.5328 10.62 10.3803L8.39063 8.15095Z" fill="#80838B"/>
</g>
<defs>
<clipPath id="clip0_489_37941">
<rect width="13.3333" height="13.3333" fill="white" transform="translate(1.32812 1.64868)"/>
</clipPath>
</defs>
</svg>
