<svg width="25" height="25" viewBox="0 0 25 25" fill="none" xmlns="http://www.w3.org/2000/svg">
<path d="M9.59738 6.13508C9.5502 6.06761 9.52049 5.98294 9.41074 5.98346C8.82892 5.98607 8.24709 5.98476 7.63086 5.98476C7.69081 6.07594 7.7307 6.13977 7.77371 6.20125C9.11018 8.11552 10.4469 10.0295 11.7837 11.9435C13.2228 14.0042 14.662 16.0652 16.1022 18.1251C16.1531 18.198 16.1828 18.3001 16.3009 18.2999C16.8817 18.2993 17.4627 18.2999 18.0886 18.2999C17.9275 18.068 17.7922 17.8724 17.6561 17.6775C14.9701 13.8299 12.2839 9.98238 9.59738 6.13508Z" fill="#7D6151"/>
<path d="M24.7813 10.3547C24.6156 9.08752 24.2246 7.88784 23.6552 6.75043C22.7593 4.96017 21.4963 3.47627 19.8687 2.30682C18.387 1.24235 16.7492 0.553548 14.9534 0.234417C14.5543 0.163556 14.1498 0.179969 13.7509 0.125H11.8785C11.6191 0.17528 11.354 0.154959 11.0931 0.189347C9.86688 0.350085 8.70219 0.72106 7.59641 1.26423C5.99952 2.04865 4.62343 3.12327 3.50618 4.51469C2.50336 5.7636 1.74324 7.14511 1.30244 8.69284C1.06679 9.52076 0.888748 10.3562 0.869979 11.2245C0.851211 12.0907 0.803768 12.9609 0.927328 13.8182C1.37882 16.9494 2.85866 19.5144 5.29362 21.5141C6.89859 22.8323 8.74129 23.6615 10.7918 24.0198C11.1679 24.0854 11.5495 24.0687 11.9252 24.125H13.7509C14.0418 24.0763 14.3377 24.1003 14.6294 24.0607C15.8533 23.8944 17.0195 23.5336 18.1248 22.9878C19.6755 22.2222 21.0172 21.1825 22.1212 19.845C23.5554 18.1079 24.4605 16.1321 24.7806 13.8951C24.8178 13.6343 24.7949 13.3688 24.8452 13.1094V11.1875C24.7965 10.9122 24.8173 10.6313 24.7811 10.3547H24.7813ZM15.7485 19.1645C15.6267 19.165 15.5921 19.0848 15.541 19.0103C14.3515 17.2776 13.1623 15.5447 11.9731 13.8117C11.9512 13.7797 11.9278 13.7489 11.8908 13.6976C11.4838 14.1694 11.0824 14.6342 10.682 15.0997C9.55799 16.407 8.4337 17.7134 7.31306 19.0233C7.23043 19.12 7.1504 19.169 7.01824 19.1648C6.69213 19.1546 6.36551 19.1614 5.98466 19.1614C6.24117 18.8608 6.46848 18.5927 6.69787 18.3259C8.19231 16.5862 9.68467 14.8449 11.1859 13.1112C11.3225 12.9536 11.3277 12.8585 11.2086 12.686C9.50976 10.2268 7.81955 7.76123 6.12777 5.29702C6.0845 5.23423 6.04644 5.1678 6.005 5.10163C6.07382 5.04197 6.14654 5.06933 6.21197 5.06907C7.4288 5.06698 8.64589 5.07089 9.86271 5.06359C10.0243 5.06255 10.1127 5.11908 10.2011 5.24856C11.3379 6.91326 12.4807 8.57404 13.6331 10.252C14.0656 9.75027 14.4918 9.25711 14.9164 8.76266C15.9226 7.59112 16.9301 6.42036 17.9316 5.24465C18.0429 5.11413 18.1555 5.055 18.3299 5.06359C18.6378 5.0787 18.9469 5.06776 19.3004 5.06776C18.869 5.57134 18.4704 6.03792 18.0706 6.5032C16.8045 7.97642 15.5407 9.4512 14.2673 10.9182C14.1503 11.0531 14.2267 11.1185 14.29 11.2107C16.0516 13.7784 17.813 16.3457 19.5746 18.9134C19.6223 18.9829 19.6693 19.053 19.7428 19.1617C18.3844 19.1617 17.0667 19.1598 15.7493 19.1645H15.7485Z" fill="#7D6151"/>
</svg>
