<svg width="75" height="75" viewBox="0 0 75 75" fill="none" xmlns="http://www.w3.org/2000/svg">
<g clip-path="url(#clip0_2016_98359)">
<path d="M56.1597 48.1617C56.8265 47.4956 57.1651 46.6812 57.1651 45.7445V29.9405C57.1651 29.0039 56.8265 28.1921 56.1597 27.5234C55.4929 26.8573 54.6776 26.519 53.7398 26.519H52.4192V23.6179C52.4192 21.3699 51.6143 19.4262 50.028 17.8417C48.4417 16.2571 46.4959 15.4531 44.2479 15.4531C42 15.4531 40.0516 16.2571 38.4653 17.8417C36.879 19.4262 36.0741 21.3699 36.0741 23.6179V26.519H34.7534C33.8157 26.519 33.003 26.8573 32.3336 27.5234C31.6667 28.1895 31.3281 29.0039 31.3281 29.9405V45.7445C31.3281 46.6812 31.6667 47.493 32.3336 48.1617C33.0004 48.8278 33.8157 49.166 34.7534 49.166H53.7398C54.6776 49.166 55.4929 48.8278 56.1597 48.1617ZM39.7599 26.519V23.6179C39.7599 22.3612 40.187 21.323 41.0675 20.4436C41.9479 19.5641 43.0054 19.1374 44.2453 19.1374C45.4852 19.1374 46.5558 19.5771 47.4232 20.4436C48.2906 21.31 48.7308 22.3612 48.7308 23.6179V26.519H39.7573H39.7599ZM53.4793 30.2007V45.4843H35.0139V30.2007H53.4793Z" fill="#7D6151"/>
<path d="M44.2456 41.2629C45.1834 41.2629 45.996 40.9247 46.6655 40.2586C47.3323 39.5925 47.6709 38.7781 47.6709 37.8414C47.6709 36.9047 47.3323 36.0929 46.6655 35.4243C45.9987 34.7582 45.1834 34.4199 44.2456 34.4199C43.3079 34.4199 42.4952 34.7582 41.8258 35.4243C41.1589 36.0903 40.8203 36.9047 40.8203 37.8414C40.8203 38.7781 41.1589 39.5925 41.8258 40.2586C42.4926 40.9247 43.3079 41.2629 44.2456 41.2629Z" fill="#7D6151"/>
<path d="M74.9977 71.3554C74.9117 70.8272 74.8805 70.2808 74.8492 69.75C74.8232 69.2895 74.7945 68.8133 74.732 68.3424C74.1485 64.005 73.5364 59.5974 72.9451 55.3354C72.6664 53.3372 72.3903 51.3389 72.1142 49.3406C71.015 41.3632 69.9079 33.3883 68.8035 25.4109L68.0898 20.2669C67.8371 18.443 67.587 16.6164 67.337 14.7925C66.7952 10.8532 66.2377 6.78122 65.6621 2.77949C65.3782 0.807242 64.4378 0.000650477 62.4191 0.000650477H14.074C13.9308 0.000650477 13.7901 -0.00195143 13.6468 0.00325238C12.9409 0.0318734 12.4278 0.414354 12.1647 1.11427C12.0553 1.40568 12.0032 1.7075 11.9537 1.99631L11.9407 2.07958C9.98189 13.4421 7.97359 24.9894 6.03301 36.1568L4.44148 45.3181C3.26932 52.07 2.09716 58.8246 0.927604 65.5765C0.84425 66.0605 0.753082 66.5471 0.661914 67.031C0.344128 68.7196 0.0185284 70.4629 0.000294817 72.227C-0.015334 73.8324 0.58898 74.6078 2.15707 74.9902L2.18833 74.998H14.6054C15.8896 74.8341 16.6606 74.0432 16.9601 72.5809C17.0096 72.3337 17.0461 72.0813 17.0774 71.8471C17.2519 70.4941 17.4446 69.1229 17.6296 67.7934C17.7155 67.1845 17.7989 66.5731 17.8849 65.9642C17.9187 65.7144 17.9578 65.4334 18.0125 65.3866C18.0698 65.3398 18.3303 65.3372 18.6376 65.3372C19.169 65.3346 19.6978 65.3346 20.2344 65.3372C20.6225 65.3372 20.9038 65.3398 20.9794 65.4048C21.0575 65.4725 21.1018 65.7925 21.1487 66.1308C21.2503 66.8775 21.3544 67.6242 21.4586 68.371C21.6279 69.5887 21.8051 70.848 21.9666 72.0865C22.1203 73.26 22.5188 74.652 24.2614 74.9929L38.1189 74.998L38.1841 74.9902C39.6688 74.6104 40.3382 73.7491 40.3539 72.1984C40.3591 71.7613 40.3148 71.332 40.2783 71.0093C40.1845 70.2079 40.0673 69.3961 39.9527 68.613C39.8303 67.7726 39.7027 66.9035 39.6063 66.0475C39.5776 65.7821 39.5412 65.4543 39.5724 65.3918C39.6349 65.3476 39.9709 65.3476 40.2158 65.3476C45.6364 65.345 51.057 65.345 56.475 65.3476C56.8084 65.3476 57.0949 65.3476 57.1626 65.4074C57.233 65.4699 57.2746 65.7561 57.3319 66.1229C57.4804 67.1013 57.6133 68.1004 57.7435 69.0683C57.892 70.1767 58.0457 71.3242 58.2228 72.4482C58.4572 73.9287 59.1866 74.7613 60.4551 74.9929L72.8774 74.998H72.8982C74.1121 74.7925 74.818 74.0848 75.0029 72.8879V71.3944V71.3528L74.9977 71.3554ZM13.7823 71.7509L13.7745 71.8185C13.7667 71.881 13.7536 71.9746 13.7406 71.9929C13.7406 71.9929 13.7172 72.0007 13.6052 72.0111C11.0446 71.9929 8.43985 71.9902 5.92361 71.985L3.13908 71.9798L13.7302 10.9495L14.845 18.9686C15.2332 21.7578 15.6213 24.5471 16.0068 27.3337C16.2673 29.2097 16.5251 31.0856 16.783 32.9616C17.0253 34.7231 17.2675 36.482 17.5124 38.2435C17.7781 40.1611 18.0437 42.0761 18.3094 43.9911L19.0544 49.3667C19.5102 52.6685 19.9661 55.9703 20.4193 59.2721C20.4558 59.5375 20.4844 59.8055 20.5157 60.0709C20.5808 60.6407 20.6459 61.2314 20.7762 61.8038C20.81 61.9521 20.8074 62.0223 20.8048 62.051C20.7423 62.0692 20.5808 62.064 20.5105 62.064C19.6665 62.0458 18.7861 62.0432 17.8119 62.0614C16.0094 62.0926 14.9779 63.0345 14.7409 64.8662C14.5455 66.3883 14.3241 67.9365 14.1079 69.4326C13.9985 70.2053 13.8865 70.9781 13.7797 71.7535L13.7823 71.7509ZM36.827 62.9902C36.2956 63.6017 36.0924 64.4941 36.2409 65.5765C36.3294 66.214 36.4154 66.8515 36.5014 67.4863C36.6941 68.907 36.8947 70.3771 37.1057 71.8237C37.1187 71.9226 37.1187 71.9746 37.1161 71.998C37.0926 72.0033 37.051 72.0137 36.9285 72.0137C33.2688 72.0006 29.372 71.9902 25.5169 72.0215C25.2486 72.0215 25.2434 71.985 25.2017 71.6754L25.1965 71.6442C25.0012 70.2496 24.811 68.8549 24.6209 67.4603L24.2692 64.8974C23.816 61.5956 23.3601 58.2912 22.9017 54.9894L17.2232 13.9989C17.0956 13.0856 16.9706 12.1724 16.8429 11.2591C16.5121 8.88617 16.1683 6.43517 15.8505 4.0206C15.8062 3.68495 15.7463 3.22441 15.814 3.14636C15.8792 3.0709 16.3089 3.0709 16.7231 3.0709H23.2638C36.1263 3.0709 48.9888 3.0709 61.8487 3.06049H61.8773C62.3306 3.06049 62.4165 3.0709 62.479 3.56266C63.0521 7.9781 63.6772 12.4612 64.2841 16.7934L64.6228 19.2157C64.9432 21.521 65.2688 23.8289 65.5944 26.1342C66.0346 29.2591 66.4748 32.3814 66.9072 35.5063C67.3109 38.4178 67.7069 41.3294 68.1028 44.2435C68.4909 47.1004 68.879 49.9547 69.2749 52.8116C69.6865 55.7986 70.1085 58.783 70.5279 61.7699C70.8222 63.8567 71.1139 65.9408 71.4057 68.0275C71.5359 68.9694 71.6583 69.9139 71.786 70.8896C71.8329 71.2539 71.8824 71.626 71.9292 72.0007H64.9275C64.6306 72.0007 64.331 71.9981 64.0341 71.9929C63.323 71.985 62.5858 71.9772 61.8617 72.0163C61.4892 72.0371 61.4189 71.9772 61.3694 71.5922C61.2391 70.58 61.0985 69.5679 60.9578 68.5557C60.7911 67.3641 60.6192 66.1308 60.4707 64.9157C60.2389 63.0267 59.1918 62.0666 57.3632 62.0614C54.3286 62.0562 51.2549 62.0536 48.163 62.0536C45.0711 62.0536 42.2345 62.0536 39.2677 62.0614C38.1945 62.0614 37.3505 62.384 36.8243 62.9876L36.827 62.9902Z" fill="#7D6151"/>
</g>
<defs>
<clipPath id="clip0_2016_98359">
<rect width="75" height="75" fill="white"/>
</clipPath>
</defs>
</svg>
